<?xml version="1.0" encoding="UTF-8" standalone="no"?>
<svg
   xmlns:dc="http://purl.org/dc/elements/1.1/"
   xmlns:cc="http://creativecommons.org/ns#"
   xmlns:rdf="http://www.w3.org/1999/02/22-rdf-syntax-ns#"
   xmlns:svg="http://www.w3.org/2000/svg"
   xmlns="http://www.w3.org/2000/svg"
   xmlns:sodipodi="http://sodipodi.sourceforge.net/DTD/sodipodi-0.dtd"
   xmlns:inkscape="http://www.inkscape.org/namespaces/inkscape"
   version="1.1"
   id="svg10"
   width="35mm"
   height="34mm"
   viewBox="0 0 132.28348 128.50393"
   sodipodi:docname="lineShoe1.svg"
   inkscape:version="1.0.2 (e86c870879, 2021-01-15, custom)">
  <metadata
     id="metadata16">
    <rdf:RDF>
      <cc:Work
         rdf:about="">
        <dc:format>image/svg+xml</dc:format>
        <dc:type
           rdf:resource="http://purl.org/dc/dcmitype/StillImage" />
        <dc:title></dc:title>
      </cc:Work>
    </rdf:RDF>
  </metadata>
  <defs
     id="defs14">
    <rect
       x="24.167166"
       y="501.46866"
       width="137.95422"
       height="47.327366"
       id="rect890" />
    <rect
       x="66.459702"
       y="429.97415"
       width="131.91245"
       height="52.36219"
       id="rect884" />
    <rect
       x="77.536324"
       y="404.80002"
       width="154.06567"
       height="44.306469"
       id="rect876" />
  </defs>
  <sodipodi:namedview
     pagecolor="#ffffff"
     bordercolor="#666666"
     borderopacity="1"
     objecttolerance="10"
     gridtolerance="10"
     guidetolerance="10"
     inkscape:pageopacity="0"
     inkscape:pageshadow="2"
     inkscape:window-width="1600"
     inkscape:window-height="837"
     id="namedview12"
     showgrid="false"
     units="mm"
     height="38mm"
     inkscape:zoom="1.5208438"
     inkscape:cx="107.57044"
     inkscape:cy="62.788611"
     inkscape:window-x="-8"
     inkscape:window-y="-8"
     inkscape:window-maximized="1"
     inkscape:current-layer="g1097" />
  <g
     inkscape:groupmode="layer"
     inkscape:label="Image"
     id="g18">
    <g
       style="fill:none;stroke:#000000;stroke-width:0.249503;stroke-miterlimit:4;stroke-dasharray:none;stroke-opacity:1"
       id="g872"
       transform="matrix(0.98329953,0,0,0.98329953,389.58355,248.35333)">
      <path
         fill-rule="evenodd"
         clip-rule="evenodd"
         d="M 46.8291,5.13752 45.9327,8.70648 44.3131,8.68528 C 42.4788,8.66127 41.6387,9.25434 40.44,11.4186 40.0221,12.1733 39.419,12.9907 39.1001,13.2358 38.59,13.6273 38.5323,13.43 38.6228,11.6139 38.7138,9.78575 38.6271,9.49744 37.8732,9.1202 37.1148,8.74003 37.0863,8.64333 37.6165,8.23634 c 0.3277,-0.25137 1.1199,-1.06993 1.7612,-1.81921 0.993,-1.16004 1.0631,-1.36179 0.4745,-1.36055 -0.3892,10e-4 -1.3343,0.80968 -2.1637,1.85155 l -1.4726,1.85021 0.268,-1.24974 c 0.1477,-0.68735 0.3558,-1.53074 0.4624,-1.87381 0.1519,-0.48857 -0.037,-0.62675 -0.8677,-0.63655 -2.1719,-0.02592 -4.7461,2.23812 -4.1854,3.6806 0.3641,0.93647 0.897,0.64338 1.1682,-0.64212 0.241,-1.14124 1.1853,-2.29475 1.5711,-1.91874 0.1432,0.14009 -0.569,3.51524 -1.6253,7.70082 -0.1693,0.6703 -0.0441,0.8051 0.758,0.8156 1.0676,0.014 1.0946,-0.0319 1.7339,-2.9314 0.3085,-1.3999 0.6312,-2.05061 1.0136,-2.0456 0.4668,0.00611 0.5138,0.4156 0.2775,2.4342 -0.2295,1.9642 -0.1735,2.516 0.2956,2.8956 1.3277,1.0759 3.2127,-0.2723 5.274,-3.7719 0.5492,-0.9321 0.8797,-1.1118 2.0182,-1.0969 1.12,0.0147 1.3254,0.1284 1.1578,0.6418 -0.1123,0.343 -1.0511,5.0855 -2.0867,10.5382 -1.7183,9.0474 -1.9873,11.6872 -1.099,10.785 0.1753,-0.1781 1.1781,-4.8865 2.2282,-10.4626 1.0496,-5.5761 2.0003,-10.3571 2.1127,-10.6249 0.112,-0.2675 0.5248,-0.4823 0.917,-0.4771 0.6841,0.0089 0.7073,0.4532 0.5705,10.9049 l -0.1426,10.8953 -1.038,0.1357 c -0.8349,0.109 -0.7615,0.1497 0.3741,0.2076 1.3179,0.0673 1.4148,0.1499 1.4533,1.2364 0.0372,1.0511 0.0576,1.071 0.2084,0.204 0.0921,-0.5284 0.4547,-1.0285 0.8058,-1.1117 0.5802,-0.1374 0.5786,-0.156 -0.02,-0.2015 -0.6124,-0.0466 -0.648,-0.8356 -0.5078,-11.2378 L 49.4631,10.364 50.7756,9.57982 C 51.4975,9.14812 52.3496,8.32927 52.6694,7.75947 53.1972,6.81893 53.1931,6.70179 52.6258,6.48632 52.1999,6.32499 51.7103,6.59286 51.0895,7.32666 50.5882,7.91914 50.0212,8.40192 49.829,8.39941 49.6365,8.39689 49.4929,7.3677 49.5093,6.11253 49.5518,2.86718 49.2422,1.5884 48.4115,1.57753 47.8506,1.57019 47.5625,2.21811 46.8291,5.13752 Z M 48.3703,6.769 C 48.3464,8.59878 48.2189,9.09447 47.7748,9.08866 47.464,9.08459 47.2127,8.85178 47.2163,8.57146 47.225,7.90843 48.116,4.43822 48.2772,4.44033 48.345,4.44122 48.3871,5.48912 48.3703,6.769 Z M 13.7311,4.76483 c -2.6748,0.68042 -4.41439,3.29662 -2.7674,4.16179 0.5901,0.30993 0.6756,0.19576 0.6902,-0.9198 0.0156,-1.18644 1.1471,-2.59853 2.0728,-2.58642 0.1635,0.00214 -0.0372,1.16754 -0.4462,2.59017 -1.0185,3.54333 -1.0081,5.08173 0.0394,5.79873 1.1159,0.7644 2.4818,0.7325 3.9478,-0.0916 0.9133,-0.5133 1.3647,-1.1437 1.8231,-2.5463 C 19.426,10.1463 19.71,8.97414 19.7214,8.5668 19.7408,7.89209 19.776,7.88253 20.1185,8.45813 20.7161,9.46246 21.4177,9.20452 21.53,7.9395 21.6329,6.785 22.4517,5.89267 23.3965,5.90503 c 0.654,0.00856 0.6041,0.6843 -0.3166,4.29267 -0.9901,3.8804 -0.9943,4.2838 -0.0468,4.2962 0.9249,0.0122 1.1882,-0.586 2.1557,-4.8952 0.6026,-2.68551 0.8669,-3.30079 1.4139,-3.29363 0.7742,0.01013 0.814,0.16176 0.2836,1.07541 -0.4637,0.79851 -0.1436,1.79097 0.5805,1.80045 0.3255,0.00426 0.5298,-0.37978 0.5381,-1.01166 0.0074,-0.56387 0.3535,-1.3034 0.7753,-1.65667 0.7368,-0.61698 0.7612,-0.61558 0.7447,0.04376 -0.0094,0.37514 -0.3714,2.11921 -0.8043,3.87594 -0.433,1.7568 -0.7899,3.4039 -0.7932,3.6599 -0.0105,0.8001 1.4959,0.542 1.8531,-0.3174 0.3334,-0.8024 2.0226,-7.91765 2.0309,-8.55419 0.0027,-0.19869 -1.985,-0.31422 -4.8562,-0.28198 -4.1424,0.04604 -4.9791,0.15361 -5.6615,0.72583 -0.7955,0.66705 -0.8007,0.6652 -0.788,-0.30393 0.0105,-0.80445 -0.1348,-0.9571 -0.8296,-0.87202 -0.7224,0.08866 -0.9434,0.51044 -1.5524,2.95882 -0.3905,1.5704 -0.801,3.22077 -0.9123,3.66727 -0.2765,1.1117 -1.567,2.2378 -2.2618,1.9738 -0.7739,-0.2938 -0.6973,-1.8851 0.247,-5.14227 1.1389,-3.92816 1.1737,-3.85287 -1.4655,-3.1813 z M 3.84019,5.13524 C 2.00032,6.0536 1.07466,8.8355 2.60232,8.8555 2.92706,8.85975 3.13216,8.47679 3.14035,7.85064 3.16649,5.85331 6.7755,4.2101 7.78759,5.73475 8.28754,6.48823 7.83506,8.06712 7.03977,8.34532 6.17104,8.64941 6.1068,8.49066 6.54114,7.1167 6.99042,5.69568 6.88703,5.53391 5.7004,5.80053 4.90414,5.97953 4.70857,6.41203 3.93637,9.70475 2.86289,14.2808 2.8628,14.2299 3.94629,14.2441 4.73969,14.2545 4.89719,13.9959 5.408,11.8463 5.87857,9.86409 6.12178,9.41897 6.77961,9.33699 7.74089,9.21673 8.17615,10.2483 7.80398,11.7663 7.52852,12.8906 6.81722,13.3153 5.83414,12.9422 5.35047,12.7586 5.263,12.8488 5.45219,13.3357 5.58743,13.6834 5.697,14.035 5.69592,14.1174 5.69484,14.1997 6.1905,14.2735 6.79741,14.2814 9.22433,14.3132 10.9043,10.6671 9.1689,9.1348 8.53081,8.57144 8.50934,8.42722 8.99565,7.97704 9.76001,7.26983 9.70975,5.95649 8.89101,5.23358 8.03577,4.47831 5.26399,4.42449 3.84019,5.13524 Z M 43.785,33.2319 c -0.5739,0.2865 -1.0441,0.6001 -1.0453,0.6975 -0.0013,0.097 0.4666,-0.0408 1.0402,-0.3069 0.5735,-0.2661 1.298,-0.5702 1.6102,-0.6761 0.5045,-0.171 0.5048,-0.1946 0.0028,-0.2137 -0.3107,-0.0116 -1.0341,0.2127 -1.6079,0.4992 z m -2.2963,0.7796 c -0.1732,0.774 -0.6371,1.3548 -1.4016,1.7551 -0.6283,0.3295 -1.1454,0.7395 -1.1491,0.911 -0.0034,0.1718 0.2224,0.1368 0.5017,-0.0776 0.4092,-0.3141 0.4987,-0.1296 0.4586,0.9466 -0.078,2.1062 0.7247,2.0706 1.4693,-0.0652 0.2047,-0.5878 0.3012,-0.6159 0.5885,-0.1714 0.4214,0.6515 0.44,2.8603 0.0241,2.8549 -0.1658,-0.0022 -0.2664,0.6009 -0.2237,1.3398 0.0427,0.7393 -0.0078,1.0609 -0.1126,0.7147 -0.1047,-0.3462 -0.3436,-0.6312 -0.5312,-0.6336 -0.1877,-0.0025 -0.1512,0.4055 0.0812,0.9063 0.4628,0.9986 1.0327,0.6104 1.0607,-0.722 0.0082,-0.3995 0.3039,-1.1071 0.6566,-1.5726 0.3528,-0.4659 0.441,-0.733 0.1962,-0.5933 -0.2973,0.1694 -0.4413,-0.057 -0.4331,-0.6803 0.0067,-0.5134 -0.2522,-1.4348 -0.575,-2.0474 -0.4213,-0.799 -0.483,-1.3262 -0.2178,-1.8652 0.2032,-0.413 0.2566,-1.0673 0.1181,-1.4536 -0.2098,-0.5861 -0.2944,-0.5109 -0.5109,0.4538 z m 9.5464,-0.5314 c 0.3083,0.1948 0.7301,0.3565 0.9373,0.3592 0.2072,0.0027 0.1245,-0.1545 -0.1838,-0.3494 -0.3083,-0.1949 -0.7301,-0.3565 -0.9373,-0.3592 -0.2072,-0.0027 -0.1245,0.1545 0.1838,0.3494 z m 2.4364,0.9736 c 0.205,0.1752 1.043,0.8905 1.8625,1.5902 l 1.4898,1.2717 -1.1139,-1.2091 c -0.6126,-0.6651 -1.4506,-1.3804 -1.8624,-1.5899 -0.4117,-0.2095 -0.5809,-0.2378 -0.376,-0.0629 z m -12.4824,2.9232 c -0.3622,1.5389 -0.9597,2.105 -0.9439,0.8942 0.0156,-1.1875 0.3782,-2.0654 0.8507,-2.0592 0.2151,0.0028 0.2536,0.4839 0.0932,1.165 z m -2.4009,0.9744 c -0.0888,1.6667 0.6238,2.6106 1.8223,2.4128 0.8882,-0.1462 0.8845,-0.1545 -0.1053,-0.2144 -1.0388,-0.0626 -1.1615,-0.2712 -1.5123,-2.575 -0.0989,-0.6504 -0.1553,-0.547 -0.2047,0.3766 z m 18.6045,-8e-4 c 0.3496,0.5213 0.7065,0.9485 0.7935,0.9496 0.2728,0.0036 -0.5866,-1.3876 -1.018,-1.6486 -0.2258,-0.1369 -0.1248,0.1778 0.2245,0.699 z M 51.5783,39.2199 49.439,40.2697 49.4059,39.46 c -0.0248,-0.6066 -0.0785,-0.6531 -0.2135,-0.1854 -0.0994,0.3435 -0.4648,0.623 -0.8122,0.6213 -0.535,-0.0023 -0.5477,0.0494 -0.0831,0.337 0.4339,0.2688 -0.2224,1.0426 -3.1497,3.7131 -2.0337,1.8554 -3.8897,3.3708 -4.1237,3.3677 -0.4411,-0.0057 -0.3074,-1.6994 0.2399,-3.0404 0.2414,-0.5913 0.2143,-0.622 -0.1593,-0.1811 -0.3658,0.4324 -0.4062,0.3524 -0.2167,-0.4286 0.1279,-0.5279 0.0641,-1.0619 -0.1423,-1.1867 -0.2064,-0.1248 -0.3796,0.0985 -0.3848,0.4962 -0.0052,0.3978 -0.357,1.023 -0.782,1.3891 -0.4413,0.3806 -0.6791,0.9049 -0.5555,1.2234 0.125,0.3214 -0.1216,0.8489 -0.5815,1.2457 -0.4513,0.389 -0.7055,0.926 -0.5852,1.2359 0.1243,0.3203 -0.0426,0.6372 -0.4026,0.7631 -0.4149,0.1454 -0.5406,0.4506 -0.3857,0.9364 0.168,0.5257 0.0596,0.7187 -0.4004,0.7127 -0.3895,-0.0051 -0.5548,0.1868 -0.4324,0.5017 0.109,0.2807 -0.0466,0.5959 -0.3456,0.7005 -0.299,0.1046 -0.5472,0.4368 -0.5511,0.7386 -0.004,0.3015 -0.1374,0.5063 -0.2961,0.4548 -0.343,-0.1108 -0.9399,0.3254 -3.9699,2.8993 -1.2539,1.0653 -2.4643,2.254 -2.6891,2.6417 -0.2251,0.3874 0.5913,-0.2962 1.8146,-1.5188 1.2229,-1.2229 2.8795,-2.5311 3.6813,-2.9069 1.8729,-0.8779 3.3424,-2.7761 4.9109,-6.3434 0.6902,-1.569 1.3317,-2.8515 1.4259,-2.8502 0.0941,0.0012 0.0617,0.317 -0.0725,0.7016 -0.2749,0.7881 0.342,2.1665 0.973,2.1747 0.228,0.003 2.0214,-1.4534 3.9856,-3.2363 1.9642,-1.7833 3.5685,-3.0388 3.5652,-2.7903 -0.0062,0.4725 -9.1422,9.5865 -9.6041,9.5804 -0.1462,-0.0019 -0.3343,-0.3667 -0.4182,-0.8111 -0.1311,-0.6924 -0.1619,-0.6674 -0.2171,0.1762 -0.098,1.5058 0.8218,1.2364 2.8755,-0.8421 4.0736,-4.124 7.1177,-6.9941 7.413,-6.9903 0.1722,0.0023 0.3027,0.796 0.2901,1.7637 -0.0214,1.6358 -0.1434,1.8576 -1.7304,3.1502 -0.9392,0.7651 -3.8024,2.5402 -6.3631,3.9454 -6.2742,3.4423 -8.5126,4.8629 -11.0612,7.0184 -1.1849,1.0025 -2.1675,1.6854 -2.183,1.5176 -0.0156,-0.1674 -0.1791,0.1516 -0.3631,0.7096 -0.4124,1.2503 0.0251,2.4821 1.1571,3.2571 0.6505,0.4453 1.6635,0.58 4.2557,0.5652 l 3.4016,-0.0192 -3.6588,-0.2527 c -2.8099,-0.194 -3.8125,-0.403 -4.3214,-0.9009 -0.5413,-0.5299 -0.5681,-0.7021 -0.1452,-0.9433 0.3964,-0.2261 0.4083,-0.3312 0.05,-0.4498 -0.9349,-0.3098 0.1067,-1.7359 2.8637,-3.9209 3.3708,-2.6715 14.3643,-8.8608 15.185,-8.5493 0.3183,0.1209 0.5356,0.041 0.4888,-0.1791 -0.0465,-0.2183 0.4708,-0.7042 1.149,-1.0795 l 1.2336,-0.6821 -0.0932,4.9551 -0.0927,4.9552 -2.7328,2.2111 c -1.5028,1.2161 -3.0748,2.453 -3.4931,2.7491 -0.7177,0.5076 -0.7072,0.5142 0.1869,0.1138 0.5211,-0.2335 1.9913,-1.3508 3.2673,-2.4835 1.276,-1.1327 2.4324,-2.0578 2.5703,-2.056 0.1379,0.0018 0.2125,2.9064 0.1661,6.4546 l -0.0845,6.4516 -1.4824,-0.743 c -0.8153,-0.4085 -1.6166,-0.737 -1.7802,-0.7298 -0.164,0.0068 0.5241,0.4323 1.5284,0.9453 l 1.8265,0.933 -0.2392,2.3834 c -0.2188,2.185 -0.2008,2.2747 0.2199,1.076 0.6991,-1.9921 1.0268,-2.0154 1.0692,-0.0751 l 0.0384,1.7611 0.2469,-1.9662 c 0.1897,-1.5096 0.1171,-2.0648 -0.3127,-2.3917 -0.4559,-0.3464 -0.5641,-1.7211 -0.5845,-7.4236 l -0.0248,-6.9984 4.0978,-1.9111 c 2.2539,-1.0512 3.9676,-1.921 3.8088,-1.9332 -0.1592,-0.0124 -1.992,0.7624 -4.0731,1.7217 l -3.7841,1.744 0.0656,-5.0114 0.0656,-5.0114 3.3173,-1.5539 c 1.8248,-0.8545 3.1871,-1.5635 3.0283,-1.5753 -0.1593,-0.0121 -2.0348,0.7784 -4.1678,1.7563 l -3.8787,1.7786 1.5244,-1.3121 c 0.8384,-0.7216 1.2253,-1.1173 0.8593,-0.8789 -0.61,0.3973 -0.6629,0.2677 -0.639,-1.5588 0.0361,-2.7621 0.9316,-3.2631 1.5517,-0.8684 0.2952,1.1389 0.3031,1.1433 0.1968,0.1103 -0.0609,-0.5916 -0.2303,-1.3501 -0.3766,-1.6853 -0.2082,-0.4776 0.1946,-0.8493 1.8532,-1.711 2.0505,-1.0653 2.6728,-1.7414 1.6153,-1.7552 -0.2818,-0.0037 -1.4748,0.4659 -2.6512,1.0431 z m 0.7197,0.5429 c -2.3904,1.3269 -2.4934,1.3649 -2.4877,0.9271 0.0042,-0.3169 3.7067,-2.1644 4.3211,-2.1563 0.205,0.0026 -0.6199,0.5558 -1.8334,1.2292 z m -8.4663,-0.5165 c 0.0857,0.0735 0.9824,0.2288 1.9933,0.3455 1.1234,0.13 1.6368,0.0877 1.3202,-0.1084 -0.4848,-0.3007 -3.6507,-0.5269 -3.3135,-0.2371 z m 15.0426,2.0997 c 0.4123,0.9471 0.8841,2.291 1.048,2.986 0.1956,0.8272 0.3152,0.9903 0.3469,0.4722 0.0562,-0.927 -1.2984,-4.668 -1.8005,-4.9717 -0.1895,-0.1149 -0.007,0.5663 0.4056,1.5135 z m -1.5621,2.9304 c 0.7306,0.146 1.5751,0.3923 1.8768,0.5473 0.3017,0.1547 0.2228,0.0237 -0.1752,-0.2916 -0.3983,-0.3153 -1.2428,-0.5612 -1.8768,-0.547 -1.1469,0.0258 -1.1458,0.0276 0.1752,0.2913 z m -0.1056,1.7034 c 0.2703,0.107 0.5956,0.0983 0.7222,-0.0189 0.1266,-0.1172 -0.0945,-0.2046 -0.4918,-0.1944 -0.4391,0.0114 -0.5295,0.0951 -0.2304,0.2133 z m -4.2724,0.7425 c -0.8337,0.3572 -1.8584,0.9182 -2.2771,1.2464 -0.4367,0.3423 -0.1429,0.267 0.6896,-0.1765 0.7979,-0.4256 2.1616,-0.9746 3.0303,-1.2207 0.8687,-0.2457 1.2404,-0.4582 0.8261,-0.4726 -0.4143,-0.0144 -1.4353,0.2663 -2.2689,0.6234 z m 6.2232,-0.4628 c -0.001,0.0773 0.2599,0.2401 0.5801,0.3617 0.3337,0.1265 0.4855,0.0683 0.3563,-0.136 -0.2167,-0.3434 -0.9326,-0.5157 -0.9364,-0.2257 z m -19.9452,1.4237 c -0.2396,0.6271 -0.4257,1.3178 -0.4143,1.5346 0.0119,0.2172 0.2729,-0.2327 0.5798,-0.9993 0.3074,-0.7665 0.4935,-1.4569 0.4142,-1.5346 -0.0796,-0.0773 -0.3406,0.3722 -0.5797,0.9993 z m 17.1845,0.7849 c 0.2579,0.1029 0.6817,0.1085 0.9418,0.0124 0.2605,-0.0958 0.0495,-0.1799 -0.4685,-0.1866 -0.518,-0.0068 -0.7308,0.0717 -0.4733,0.1742 z m 3.7635,0.3461 c 1.5373,0.6586 1.5863,1.7277 0.1464,3.2081 l -1.0504,1.0801 1.2382,-1.0354 c 0.7002,-0.5859 1.2427,-1.3863 1.2487,-1.8431 0.0111,-0.8506 -1.25,-1.9489 -2.2253,-1.938 -0.3165,0.0037 -0.0272,0.2413 0.6424,0.5283 z M 49.699,49.1965 c -0.0024,0.1855 0.1619,0.4375 0.3653,0.5605 0.2116,0.1281 0.2768,-0.0146 0.1525,-0.3349 -0.2424,-0.6234 -0.5111,-0.7404 -0.5178,-0.2256 z m 3.0112,0.2396 c -0.7286,0.2558 -1.0706,0.4737 -0.7599,0.4838 0.3107,0.0102 1.0765,-0.1961 1.7016,-0.4586 1.4632,-0.6139 0.7868,-0.6321 -0.9417,-0.0252 z m -4.9727,0.7849 c 0.3794,0.2353 0.2423,0.4927 -0.5794,1.0878 -0.5923,0.4284 -0.8207,0.6657 -0.508,0.5265 1.6145,-0.7172 2.2652,-1.9215 1.0391,-1.9225 -0.3071,0 -0.2918,0.0972 0.0483,0.3082 z m 10.3614,3.2441 c -0.7093,0.5256 -0.7048,0.5321 0.1142,0.168 0.4692,-0.2087 0.8537,-0.4544 0.8549,-0.5456 0.0036,-0.2739 -0.1929,-0.1974 -0.9691,0.3776 z M 37.341,56.0579 c -0.7092,0.5257 -0.7048,0.5322 0.1143,0.168 0.4688,-0.2087 0.8537,-0.4543 0.8549,-0.5456 0.0036,-0.2739 -0.193,-0.1973 -0.9692,0.3776 z m -2.462,1.5852 -1.3187,1.0827 1.4254,-0.9449 c 1.2596,-0.8346 1.6708,-1.2145 1.3204,-1.2191 -0.0595,-8e-4 -0.7019,0.4857 -1.4271,1.0813 z m -2.4945,1.8214 -0.7282,0.7962 0.8565,-0.6709 c 0.8048,-0.6305 1.0313,-0.9157 0.7299,-0.9197 -0.0716,-9e-4 -0.4576,0.3564 -0.8582,0.7944 z m -3.0299,2.218 c -0.7092,0.5257 -0.7048,0.5322 0.1143,0.168 0.4688,-0.2087 0.8537,-0.4543 0.8549,-0.5456 0.0036,-0.2739 -0.193,-0.1973 -0.9692,0.3776 z m 9.5298,2.319 c 0.2703,0.107 0.5956,0.0984 0.7222,-0.0188 0.1266,-0.1173 -0.0945,-0.2047 -0.4918,-0.1945 -0.4391,0.0115 -0.5295,0.0952 -0.2304,0.2133 z m -2.0933,0.3342 c 0.3653,0.0958 0.874,0.0964 1.1303,0.0016 0.2564,-0.0948 -0.0425,-0.1728 -0.6642,-0.1738 -0.6217,-9e-4 -0.8315,0.0765 -0.4661,0.1722 z m 0.8241,5.5813 c -1.1047,1.0265 -1.1708,1.1273 -0.2103,0.3192 l 1.4047,-1.1812 0.235,1.5607 c 0.3928,2.6072 0.5096,2.7824 2.159,3.2298 3.3635,0.9123 3.6369,1.0895 3.6206,2.3422 -0.0104,0.7937 -0.2887,1.3533 -0.8708,1.7521 -0.4703,0.3226 -0.6159,0.4764 -0.3229,0.3424 0.3677,-0.1685 0.4389,-0.1045 0.231,0.2064 -0.2072,0.3095 -0.8464,0.3807 -2.0396,0.2275 -0.9558,-0.1228 -2.4996,-0.3224 -3.4306,-0.4437 -1.3993,-0.1824 -1.3021,-0.1263 0.561,0.3228 1.2395,0.2987 2.9919,0.563 3.8944,0.5877 1.1639,0.0313 1.9539,0.3016 2.7185,0.9297 0.9994,0.8208 1.024,0.901 0.3391,1.0979 -0.4063,0.1168 -1.36,0.0932 -2.1192,-0.0524 -1.0859,-0.2083 -1.345,-0.1587 -1.2145,0.2337 0.1026,0.3085 0.8478,0.5489 1.9597,0.6322 1.1922,0.089 1.7137,0.0056 1.5531,-0.2482 -0.1329,-0.2105 -0.1042,-0.3878 0.0635,-0.3942 0.1678,-0.0064 1.0225,-0.1337 1.8998,-0.283 1.034,-0.1763 1.5121,-0.1482 1.3596,0.0797 -0.1296,0.1935 -0.0287,0.289 0.224,0.2128 1.1829,-0.358 0.3924,-0.8485 -1.5646,-0.9712 -2.3462,-0.1471 -2.91,-0.6919 -0.9302,-0.8991 1.0629,-0.111 1.0132,-0.1386 -0.3741,-0.2065 -0.8804,-0.043 -1.5981,-0.249 -1.5954,-0.4574 0.0027,-0.2083 -0.1655,-0.2821 -0.3735,-0.1635 -0.2517,0.1436 -0.2486,-0.0974 0.0094,-0.7181 0.5384,-1.2967 0.5067,-2.8726 -0.0671,-3.3374 -0.2647,-0.2147 -1.3127,-0.5786 -2.329,-0.8089 -2.0918,-0.4743 -2.8137,-0.9349 -2.8025,-1.7884 0.0066,-0.5084 0.4098,-0.5657 2.9256,-0.4161 3.0158,0.1791 3.8346,0.4953 3.8724,1.4948 0.0151,0.4023 0.085,0.4387 0.2256,0.1175 0.1119,-0.256 -0.0907,-0.7825 -0.4496,-1.1696 -0.5247,-0.5651 -1.1569,-0.7105 -3.2097,-0.7374 -2.6534,-0.0347 -3.3646,-0.3641 -2.3944,-1.1087 0.3117,-0.2394 0.5707,-0.7377 0.5756,-1.1072 0.0162,-1.2448 -1.7657,-0.8398 -3.5336,0.8031 z m 3.082,-0.5007 c -0.1681,0.7756 -1.4502,1.0513 -1.4405,0.3099 0.0065,-0.4919 0.5017,-0.8471 1.264,-0.9066 0.1709,-0.0131 0.2503,0.255 0.1765,0.5967 z m 1.3072,-0.3574 c 0.3654,0.0957 0.8741,0.0963 1.1304,0.0015 0.2563,-0.0947 -0.0426,-0.1727 -0.6643,-0.1737 -0.6217,-0.001 -0.8314,0.0765 -0.4661,0.1722 z m 2.084,0.3818 c 0.2703,0.107 0.5956,0.0983 0.7222,-0.0189 0.1266,-0.1172 -0.0945,-0.2046 -0.4918,-0.1944 -0.4391,0.0114 -0.5295,0.0951 -0.2304,0.2133 z m -8.956,3.1293 c -0.7085,1.2465 -0.8761,2.8811 -0.4639,4.5236 0.2321,0.9239 0.3216,1.7727 0.1991,1.886 -0.122,0.1134 -0.41,-0.541 -0.6392,-1.4542 -0.4587,-1.829 -0.9983,-2.0892 -1.8074,-0.873 -0.525,0.7891 -0.522,0.7909 0.26,0.1477 0.7839,-0.6447 0.795,-0.6363 1.2183,0.9111 0.3211,1.1747 0.3171,1.9395 -0.0162,3.0831 -0.4979,1.7101 -0.5447,3.7533 -0.1161,5.096 0.1737,0.5436 0.2267,-0.0221 0.1348,-1.4305 -0.0839,-1.2812 0.0187,-2.7301 0.2282,-3.2197 l 0.3806,-0.8902 0.3874,1.2583 c 0.3709,1.2034 0.3814,1.1799 0.2339,-0.534 l -0.154,-1.7924 1.6338,3.3336 c 1.7084,3.4859 2.5138,4.1052 3.1978,2.4588 0.966,-2.3259 1.5478,0.3525 0.6866,3.1618 -0.2287,0.7464 -0.6693,1.446 -0.9793,1.5544 C 38.734,90.0641 37.237,88.5929 36.7189,87.04 36.481,86.3272 36.214,85.9413 36.1253,86.1818 c -0.2457,0.6664 1.3484,3.2073 2.3371,3.7266 0.7017,0.3683 0.9899,0.3717 1.4528,0.0161 1.1449,-0.8787 1.8274,-4.921 1.0281,-6.0887 -0.3213,-0.469 -0.4474,-0.4495 -0.9383,0.1456 -0.312,0.3783 -0.5698,0.8985 -0.5732,1.1562 -0.0163,1.2498 -1.1511,0.1991 -2.1347,-1.9762 -1.5691,-3.4698 -1.7242,-4.0863 -1.1186,-4.4403 0.4044,-0.2364 0.3774,-0.3041 -0.1262,-0.315 -0.4182,-0.0091 -0.7718,-0.4828 -1.0162,-1.3614 -0.4732,-1.701 -0.4523,-2.1132 0.1898,-3.7573 0.5497,-1.4072 0.5028,-1.7662 -0.0935,-0.7174 z m 16.2195,1.1039 c 0.2545,0.534 0.5276,0.8001 0.6061,0.5913 0.0785,-0.2088 -0.1298,-0.6459 -0.4632,-0.9711 -0.5603,-0.5466 -0.5712,-0.5177 -0.1429,0.3798 z m -4.4845,2.0038 c 0.0077,1.4886 0.1468,1.9713 0.5699,1.9769 0.3081,0.004 0.5818,-0.2341 0.6086,-0.5292 0.0278,-0.3083 -0.0214,-0.3472 -0.1156,-0.091 -0.3731,1.0138 -0.8308,0.3164 -0.9479,-1.4447 L 46.857,73.7082 Z m 3.8945,0.7317 c -0.369,0.7217 -1.0237,1.6624 -1.4551,2.091 l -0.7845,0.7797 0.9565,0.0125 c 0.5259,0.0069 0.9586,-0.1486 0.9612,-0.3455 0.0026,-0.1969 -0.1671,-0.3603 -0.3773,-0.363 -0.2102,-0.0028 0.0693,-0.6357 0.6213,-1.4063 0.5519,-0.7708 0.9457,-1.5541 0.8758,-1.7405 -0.0703,-0.1868 -0.429,0.2507 -0.7979,0.9721 z m -1.8007,0.3699 c -0.0026,0.1969 0.175,0.3604 0.3943,0.3633 0.2192,0.0028 0.2963,-0.1573 0.1708,-0.3559 -0.1255,-0.1986 -0.3027,-0.362 -0.3943,-0.3632 -0.0915,-0.0012 -0.1682,0.1589 -0.1708,0.3558 z M 30.8633,79.016 c -0.4233,0.7643 -0.8676,2.0877 -0.9876,2.9412 l -0.2186,1.5518 0.5208,-1.7835 c 0.2864,-0.9809 0.8165,-2.3035 1.1779,-2.9387 0.3617,-0.6351 0.572,-1.1562 0.4673,-1.1576 -0.1048,-0.0013 -0.5368,0.6229 -0.9598,1.3868 z m 13.0345,2.5682 c -0.1266,0.1173 -0.4519,0.1259 -0.7222,0.0189 -0.2991,-0.1182 -0.2087,-0.2018 0.2304,-0.2133 0.3973,-0.0102 0.6184,0.0772 0.4918,0.1944 z m 3.3886,0.8017 c 0.465,0.0888 0.8437,0.3143 0.8412,0.5016 -0.0024,0.1883 0.4588,0.2423 1.0347,0.1213 1.8397,-0.387 1.6261,-0.6544 -0.5747,-0.7201 -1.1808,-0.0351 -1.7661,0.0088 -1.3012,0.0972 z m -11.915,1.1979 c -0.0111,0.3938 0.121,1.04 0.294,1.4361 0.4006,0.9176 0.4129,-0.0236 0.0164,-1.253 -0.2332,-0.7228 -0.2938,-0.7586 -0.3104,-0.1831 z m 10.2312,0.0938 c -1.8016,0.4369 -2.1943,0.7007 -1.8521,1.2426 0.1595,0.252 0.7559,0.1413 1.7507,-0.3247 0.8299,-0.3891 1.682,-0.6025 1.894,-0.4744 0.4901,0.2968 -0.632,1.4752 -2.0428,2.1457 -0.5737,0.2728 -1.0455,0.653 -1.048,0.8449 -0.007,0.5359 0.976,0.4263 1.5094,-0.1686 0.2619,-0.292 0.9846,-0.5242 1.6062,-0.5161 0.9852,0.0129 1.066,0.0863 0.6309,0.5715 -0.2746,0.3062 -1.1504,0.8619 -1.9462,1.235 -1.4736,0.6911 -1.775,1.1444 -1.0516,1.5821 0.2224,0.1347 0.8715,-0.1698 1.4426,-0.6761 0.5897,-0.523 1.4732,-0.9149 2.0451,-0.9074 0.9821,0.0128 0.965,0.0491 -0.6944,1.4647 -0.9359,0.798 -1.608,1.5992 -1.494,1.7797 0.1141,0.1806 0.0681,0.2967 -0.1025,0.2583 -0.1701,-0.0384 -0.6232,0.0552 -1.0068,0.2077 -0.4371,0.1741 -1.1786,0.0519 -1.9868,-0.3271 -0.7089,-0.3326 -1.4955,-0.604 -1.7476,-0.603 -0.855,0.0035 2.802,1.4611 3.6952,1.4728 0.506,0.0066 1.0591,0.3261 1.2869,0.743 0.2197,0.4021 0.5644,0.6373 0.7659,0.5224 0.202,-0.1148 0.2726,-0.3584 0.1571,-0.5411 -0.1152,-0.1823 0.0595,-0.2298 0.388,-0.1048 1.3419,0.5091 -0.7872,2.2179 -3.091,2.481 -1.3792,0.1574 -1.5983,0.0554 -2.9036,-1.3542 -0.9872,-1.066 -1.3483,-1.7436 -1.2011,-2.2526 0.1464,-0.5058 0.089,-0.6158 -0.1871,-0.3602 -0.6007,0.5561 -0.0621,1.7527 1.4221,3.1589 1.213,1.1495 1.2579,1.2608 0.5018,1.2509 -1.455,-0.0191 -2.9805,-1.0692 -3.9808,-2.7398 -0.9687,-1.6176 -1.4408,-2.1089 -1.0431,-1.0857 0.1155,0.2969 0.1237,0.5387 0.0186,0.5373 -0.2962,-0.0039 -1.7488,-2.5272 -2.4928,-4.3294 -0.3678,-0.8911 -0.6811,-1.3639 -0.6965,-1.0511 -0.0702,1.4217 2.3497,5.0397 5.698,8.5196 3.2505,3.3783 7.4862,6.6816 8.5381,6.6586 0.2356,-0.005 -0.1611,-0.327 -0.8814,-0.716 l -1.3095,-0.706 1.8816,0.183 1.8816,0.182 -1.6909,-0.363 c -0.9299,-0.201 -2.0699,-0.561 -2.5329,-0.801 -0.8701,-0.4521 -1.1181,-1.5396 -0.439,-1.9264 0.2392,-0.1362 0.1067,-0.6041 -0.3468,-1.2263 L 44.2139,96.1586 45.734,95.747 c 1.8608,-0.5034 2.9986,-1.5005 3.0135,-2.64 0.0119,-0.9108 0.6374,-1.2832 2.1213,-1.2638 1.2444,0.0163 5.3611,5.3546 5.3406,6.9255 -0.0081,0.6183 0.1451,0.9734 0.3657,0.8477 0.2319,-0.132 0.3713,0.4166 0.3583,1.4086 -0.0189,1.446 -0.1282,1.65 -0.9906,1.844 -0.5332,0.119 -2.3551,0.123 -4.0484,0.008 -1.6937,-0.116 -2.7428,-0.08 -2.3316,0.078 1.1128,0.43 6.1486,0.466 6.9928,0.05 0.4035,-0.199 0.7648,-0.717 0.8029,-1.153 0.0385,-0.436 0.1754,0.015 0.3046,1.001 l 0.235,1.794 0.0712,-1.611 c 0.0952,-2.148 -1.1804,-5.1069 -3.5425,-8.2179 -1.7572,-2.3143 -2.4151,-3.671 -1.516,-3.1272 0.2056,0.1244 0.3758,0.0755 0.3782,-0.1089 0.0025,-0.1855 -0.7539,-0.2641 -1.6933,-0.1758 -1.8867,0.1773 -2.2128,-0.2696 -0.8428,-1.1554 0.9542,-0.6174 1.5923,-0.7139 1.2398,-0.1872 -0.1368,0.2041 0.0211,0.2613 0.3781,0.1364 0.3963,-0.1388 0.4852,-0.3392 0.2519,-0.5667 -0.2336,-0.228 -1.0612,-0.2195 -2.3413,0.0241 -1.0894,0.2074 -2.0542,0.3047 -2.1446,0.2168 -0.2787,-0.2718 1.7573,-1.3484 2.9625,-1.5661 0.6282,-0.1138 1.0934,-0.3684 1.0342,-0.5661 -0.0596,-0.1977 -0.2732,-0.3098 -0.4749,-0.2487 -0.2016,0.0611 -1.2205,0.1814 -2.2643,0.2676 l -1.8977,0.1567 0.9515,-0.7244 c 0.5233,-0.3982 1.3328,-0.7231 1.7992,-0.7213 0.4665,0.0018 0.8497,-0.1425 0.852,-0.3208 0.0024,-0.1804 -1.0408,-0.2481 -2.353,-0.1529 -2.1102,0.1532 -2.3052,0.1131 -1.8616,-0.3835 0.673,-0.7531 3.0346,-1.7502 3.4915,-1.4739 0.2033,0.123 0.3721,0.0432 0.375,-0.1774 0.0035,-0.2742 -0.5489,-0.3294 -1.7469,-0.1747 -1.2663,0.1636 -1.6775,0.1145 -1.4826,-0.1766 0.3071,-0.4593 0.2332,-0.4567 -1.9191,0.0655 z m -15.549,0.1173 c -0.0152,0.1545 1.6087,3.5595 3.6086,7.5667 3.9155,7.8461 5.421,9.9054 9.0018,12.3174 5.1682,3.48 12.2517,4.283 14.6071,1.656 0.2945,-0.329 -0.1249,-0.184 -0.9319,0.322 -1.988,1.245 -5.3657,1.218 -9.0568,-0.074 -6.0613,-2.121 -8.5491,-4.843 -13.5802,-14.8596 -1.9915,-3.9649 -3.6331,-7.0826 -3.6486,-6.9285 z m 15.04,0.594 c -0.001,0.0773 -0.266,0.2332 -0.5893,0.3464 -0.3369,0.1177 -0.4872,0.0556 -0.3527,-0.1453 0.2256,-0.3376 0.9458,-0.4911 0.942,-0.2011 z m 0.6897,4.8813 c -0.301,0.1715 -0.6311,0.2302 -0.7334,0.1304 -0.1023,-0.0998 0.0603,-0.3219 0.3614,-0.4934 0.301,-0.1715 0.6311,-0.2302 0.7334,-0.1304 0.1023,0.0998 -0.0603,0.3219 -0.3614,0.4934 z m 3.8816,1.5955 c -0.3857,0.4253 -0.7236,0.8184 -0.7503,0.8735 -0.0263,0.0548 -0.5811,0.2377 -1.2329,0.4061 -1.0859,0.2808 -1.1522,0.2509 -0.7979,-0.3596 0.2124,-0.366 0.5594,-0.7643 0.7705,-0.8844 0.211,-0.1204 0.3147,-0.3296 0.2302,-0.4646 -0.0841,-0.1354 0.4399,-0.2682 1.1648,-0.2952 1.3164,-0.049 1.3172,-0.0483 0.6156,0.7242 z M 44.409,97.197 c 0.6712,0.5946 0.7257,0.8342 0.3563,1.5673 -0.2399,0.476 -0.5275,0.8654 -0.6391,0.8653 -0.1111,0 -1.014,-0.8035 -2.006,-1.7861 l -1.8038,-1.7864 1.6498,0.2189 c 0.9077,0.1207 2.007,0.535 2.4428,0.921 z m 10.8216,3.486 c -0.4245,0.276 -1.7009,0.634 -2.8364,0.798 -1.3107,0.189 -1.6523,0.317 -0.9349,0.352 1.5424,0.075 3.7823,-0.521 4.3536,-1.158 0.5781,-0.645 0.4232,-0.643 -0.5823,0.008 z"
         fill="#000000"
         id="path861"
         style="stroke:#000000;stroke-width:0.249503;stroke-miterlimit:4;stroke-dasharray:none;stroke-opacity:1" />
    </g>
    <text
       xml:space="preserve"
       id="text874"
       style="font-style:normal;font-variant:normal;font-weight:normal;font-stretch:normal;font-size:40px;line-height:1.25;font-family:'Segoe Script';-inkscape-font-specification:'Segoe Script, Normal';font-variant-ligatures:normal;font-variant-caps:normal;font-variant-numeric:normal;font-variant-east-asian:normal;white-space:pre;shape-inside:url(#rect876);fill:#000000;fill-opacity:1;stroke:none;"><tspan
         style="visibility:hidden"
         x="77.537109"
         y="484.32524"><tspan
           dx="0 29.765625 30.898438 29.21875 12.226562">BUTIK</tspan></tspan></text>
    <text
       xml:space="preserve"
       id="text882"
       style="font-style:normal;font-weight:normal;font-size:40px;line-height:1.25;font-family:sans-serif;white-space:pre;shape-inside:url(#rect884);fill:#000000;fill-opacity:1;stroke:none;" />
    <text
       xml:space="preserve"
       style="font-style:normal;font-weight:normal;font-size:40px;line-height:1.25;font-family:sans-serif;fill:#000000;fill-opacity:1;stroke:none"
       x="-111.77314"
       y="172.19106"
       id="text924"><tspan
         sodipodi:role="line"
         id="tspan922"
         x="-111.77314"
         y="172.19106" /></text>
    <g
       id="g1097"
       transform="matrix(0.52007397,0,0,0.52007397,8.6947009,-137.54384)">
      <text
         xml:space="preserve"
         id="text888"
         style="font-style:normal;font-variant:normal;font-weight:normal;font-stretch:normal;font-size:40px;line-height:1.25;font-family:Gabriola;-inkscape-font-specification:'Gabriola, Normal';font-variant-ligatures:normal;font-variant-caps:normal;font-variant-numeric:normal;font-variant-east-asian:normal;white-space:pre;shape-inside:url(#rect890);fill:#000000;fill-opacity:1;stroke:none;"
         transform="matrix(1.9611245,0,0,1.9611245,-43.696241,-683.73487)"><tspan
           x="24.167969"
           y="533.8125"><tspan
             style="font-style:normal;font-variant:normal;font-weight:normal;font-stretch:normal;font-size:40px;font-family:Gabriola;-inkscape-font-specification:'Gabriola, Normal';font-variant-ligatures:normal;font-variant-caps:normal;font-variant-numeric:normal;font-variant-east-asian:normal">BUTIK</tspan></tspan></text>
      <path
         id="path1196"
         style="fill:none;stroke:#000000;stroke-width:2.11508374;stroke-linecap:butt;stroke-linejoin:miter;stroke-opacity:1;stroke-miterlimit:4;stroke-dasharray:none"
         d="m 193.76019,346.13357 3.26128,-31.81716 3.86728,29.461 m -43.24598,12.63235 c 0,0 0.7883,4.65111 4.86416,6.63293 1.67087,0.7241 5.97806,-0.51622 7.95952,-2.43207 v 0 c 17.01074,-13.95854 44.83676,-21.52229 59.69643,-22.10979 m -33.1414,-24.18442 -6.1621,48.42578 c -0.0985,0.38938 -0.18784,0.89469 -0.29883,1.07812 -0.18757,0.30999 -0.34064,0.42666 -0.76172,0.56836 -0.70463,0.23713 -1.3494,0.60099 -1.7793,1.20117 -0.4299,0.60019 -0.60259,1.30536 -0.71875,2.16211 -0.12966,0.95641 -0.0909,1.8831 0.10742,2.70508 0.19831,0.82198 0.54061,1.57024 1.20703,2.07813 0.36786,0.28033 0.96075,0.41894 1.52539,0.40429 -0.20874,0.37647 -0.41791,0.75809 -0.45312,1.25196 -0.007,0.10329 -0.20383,0.91385 -0.38867,1.35156 -0.11882,0.2814 -0.16093,0.33678 -0.16602,0.35742 -0.22478,0.0223 -0.46538,-0.0393 -0.64062,0.0703 -0.33769,0.21114 -0.53249,0.51039 -0.64258,0.81446 -0.18852,0.52069 -0.0702,1.14885 0.33008,1.65039 -0.0136,0.022 9e-5,-0.024 -0.10742,0.20703 -0.0656,0.1409 -0.1579,0.27648 -0.20508,0.33008 -0.0236,0.0268 -0.0385,0.0308 0.004,0.002 -0.60086,0.11965 -1.1373,0.43428 -1.3789,0.96094 -0.22956,0.5004 -0.0668,1.12321 0.27929,1.625 -0.43029,0.16215 -0.85368,0.36914 -1.05664,0.77148 l -0.4082,-0.4707 v 1.73828 c -0.19686,0.10578 -0.4152,0.18383 -0.54102,0.37305 -0.28814,0.43336 -0.2644,0.9146 -0.14062,1.36914 -0.29082,0.1273 -0.63828,0.11667 -0.80469,0.38281 -0.17498,0.27986 -0.1006,0.57696 -0.12304,0.86914 -0.18218,-0.002 -0.29481,-0.10983 -0.52149,0.004 -0.54334,0.27262 -0.65771,0.70881 -0.7539,1.00195 0.0618,-0.18834 -0.20239,0.23525 -0.63672,0.45312 -1.69569,0.85061 -3.9987,2.97057 -5.47461,4.86719 -1.61417,2.07429 -2.44534,3.87605 -2.58399,5.83399 -0.0719,1.01778 0.005,1.9101 0.42188,2.69336 0.41693,0.78325 1.11828,1.33646 1.99218,1.81445 0.57979,0.31712 1.05744,0.5524 1.66211,0.66992 0.60468,0.11752 1.24799,0.129 2.35743,0.14453 2.69862,0.0378 6.45302,-0.34765 8.93554,-0.92383 3.96322,-0.91984 7.08013,-2.96269 10.54688,-6.82617 0.17406,-0.19397 0.39925,-0.35502 0.61523,-0.54492 0.007,0.23077 0.0127,0.37428 0.0195,0.64648 0.0357,1.4194 0.0728,3.36825 0.0996,5.4961 0.0269,2.13224 0.0541,4.13888 0.0781,5.65625 0.0147,0.92572 0.0232,1.19929 0.0332,1.67773 -0.3936,-0.20667 -0.85814,-0.44037 -1.36719,-0.67969 -1.49564,-0.70311 -2.65155,-1.06472 -4.08593,-1.26953 -1.72695,-0.24658 -2.41401,-0.37631 -3.9336,-0.74218 -0.82457,-0.19853 -1.60442,0.0929 -2.36523,0.55859 -0.76081,0.46568 -1.55581,1.15655 -2.44141,2.07812 -1.86121,1.93681 -2.96573,3.96418 -3.26562,6.16797 -0.01,0.0699 0.0258,0.13399 0.0176,0.20118 l -0.63282,0.67773 c -0.0615,0.0117 -0.13503,-0.0448 -0.18945,-0.0254 -0.37299,0.13338 -0.62337,0.34651 -0.86523,0.5918 -0.48373,0.49057 -0.93808,1.17512 -1.49219,2.1289 -1.48701,2.5595 -2.0982,4.0238 -2.38086,5.82031 -0.14546,0.92447 -0.16329,1.76164 0.0547,2.64844 0.21797,0.88681 0.63442,1.7878 1.29296,3.03516 0.53907,1.02105 1.92511,3.89884 3.0293,6.30078 4.15397,9.03615 5.81408,11.58358 10.14258,15.57812 2.02592,1.86962 5.07575,3.39334 8.16992,4.47852 l -0.43359,0.20313 2.77343,0.67187 c 1.90967,0.46371 4.77189,0.65635 6.4375,0.33789 0.93236,-0.17826 1.89754,-0.59573 2.76563,-1.10742 0.86809,-0.51169 1.62605,-1.07288 2.10937,-1.82031 0.56559,-0.87464 0.72404,-1.96582 0.71876,-3.1543 -0.005,-1.18848 -0.21586,-2.47214 -0.64649,-3.65234 -0.94528,-2.59077 -2.82763,-5.75511 -4.96094,-8.39844 -0.49443,-0.61266 -0.94289,-1.18592 -1.26172,-1.61133 0.13782,-0.1006 0.28787,-0.19088 0.40235,-0.31445 0.18839,-0.20337 0.41059,-0.38218 0.45117,-0.92969 v -0.002 -0.002 c 0.0272,-0.38203 -0.16988,-0.87184 -0.49023,-1.12109 -0.20912,-0.1627 -0.40741,-0.15876 -0.60938,-0.19141 0.14442,-0.19846 0.33078,-0.36431 0.34961,-0.6289 0.0297,-0.4163 -0.14486,-0.86771 -0.41211,-1.15039 -0.23935,-0.25317 -0.52286,-0.36955 -0.80273,-0.45508 0.33971,-0.32167 0.71024,-0.66526 0.74218,-1.11328 0.0241,-0.33782 -0.0934,-0.76651 -0.36132,-1.05274 -0.26789,-0.28622 -0.60242,-0.40492 -0.88868,-0.44726 -0.18074,-0.0267 -0.34309,0.0763 -0.51367,0.0898 0.0618,-0.0808 0.15177,-0.0977 0.19922,-0.20117 0.17291,-0.37707 0.13208,-0.88057 -0.043,-1.21484 -0.23103,-0.4413 -0.57806,-0.5932 -0.84961,-0.68555 -0.16579,-0.0564 -0.3216,-0.0596 -0.48047,-0.0781 0.18542,-0.0789 0.38085,-0.0826 0.54493,-0.2539 0.16816,-0.17556 0.3225,-0.38904 0.40625,-0.67774 0.0837,-0.28869 0.0619,-0.65711 -0.0723,-0.9375 -0.16408,-0.34293 -0.43337,-0.3859 -0.67773,-0.51172 0.24626,-0.21946 0.49422,-0.49803 0.55664,-0.95507 0.0616,-0.45111 -0.22042,-0.949 -0.55079,-1.22852 v -1.8418 l -0.34765,0.48243 c -0.0165,-0.0241 -0.0111,-0.0769 -0.0273,-0.0996 -0.17014,-0.23722 -0.52912,-0.44922 -0.87109,-0.58203 0.20645,-0.0551 0.45885,0.012 0.63086,-0.0977 0.41853,-0.26671 0.79824,-0.70706 0.84375,-1.3457 0.0117,-0.16411 0.006,-0.37948 -0.10352,-0.625 -0.0588,-0.13144 -0.19709,-0.206 -0.30859,-0.3125 0.14875,-0.27061 0.16227,-0.31488 0.46485,-0.82422 1.01058,-1.70115 1.36655,-2.57136 1.44335,-3.64844 0.0609,-0.85477 2.2e-4,-1.63207 -0.44921,-2.29102 -0.44944,-0.65894 -1.19486,-0.98314 -1.97657,-1.13281 -0.47067,-0.0901 -0.66688,-0.16327 -0.66797,-0.16406 -0.001,-7.9e-4 -0.0651,-0.008 -0.1621,-0.49609 -0.19404,-0.97553 -0.24425,-3.37466 -0.29883,-8.125 -0.0263,-2.29081 -0.0565,-4.43835 -0.084,-6.05469 -0.0137,-0.80817 -0.0255,-1.48288 -0.0371,-1.97852 -0.009,-0.40119 -0.015,-0.57421 -0.0273,-0.77148 0.0205,-0.0174 -0.0165,0.0174 0.0254,-0.0117 0.31109,-0.21679 1.13419,-0.65863 2.64062,-1.42383 1.78464,-0.90649 4.4358,-2.20166 5.85157,-2.85742 2.15765,-0.9994 3.92025,-2.12322 5.14648,-3.27539 0.61312,-0.57609 1.09697,-1.15738 1.41797,-1.78321 0.321,-0.62582 0.48484,-1.34151 0.29297,-2.04296 -0.31429,-1.14895 -1.28324,-1.82878 -2.36719,-2.32618 -1.08395,-0.49739 -2.37076,-0.77827 -3.64258,-0.68945 -1.60224,0.11193 -3.80489,0.81992 -6.04296,1.83985 -0.87065,0.39677 -1.57973,0.59449 -2.02735,0.6289 -0.15497,0.0119 -0.11268,-0.0196 -0.19336,-0.0293 1.10003,-1.33029 3.38661,-2.46981 6.17383,-2.83007 2.02125,-0.26128 3.28507,-0.14224 4.16602,0.24414 0.30211,0.1325 0.55313,0.22717 0.78125,0.29101 0.11405,0.0319 0.21826,0.058 0.35742,0.0723 0.13916,0.0143 0.30918,0.13598 0.76953,-0.1836 0.23017,-0.15979 0.45294,-0.5766 0.4414,-0.88085 -0.0115,-0.30426 -0.11796,-0.45856 -0.1875,-0.56055 -0.13907,-0.20399 -0.23279,-0.26066 -0.33007,-0.33399 -0.0691,-0.0521 -0.17016,-0.0989 -0.2461,-0.14648 l 0.0156,-0.22266 c 0.2207,-0.29468 0.43301,-0.61227 0.44726,-0.86914 0.0197,-0.35557 -0.0223,-0.70138 -0.0957,-1.11523 -0.54143,-3.05327 -2.55902,-6.90532 -5.19336,-10.17383 -1.30796,-1.62284 -2.09746,-2.33006 -3.58008,-3.19727 -1.05879,-0.61929 -2.68165,-1.34602 -3.83984,-1.71875 -0.60592,-0.19499 -0.95409,-0.33481 -1.17188,-0.43554 0.0228,-0.54752 0.029,-1.21281 0.0234,-2.44141 -0.007,-1.48709 -0.0276,-3.36227 -0.0547,-5.21875 -0.0271,-1.85648 -0.06,-3.69351 -0.0957,-5.10547 -0.0179,-0.70598 -0.0367,-1.30531 -0.0547,-1.75195 -0.009,-0.22332 -0.018,-0.40787 -0.0273,-0.55469 -0.009,-0.14682 0.007,-0.17288 -0.0488,-0.41601 -0.018,-0.0784 -0.0357,-0.14959 -0.0625,-0.23243 -0.0268,-0.0828 -0.0106,-0.15334 -0.20703,-0.39648 -0.0491,-0.0608 -0.11629,-0.13753 -0.24219,-0.21875 -0.063,-0.0406 -0.14277,-0.0803 -0.23828,-0.11133 -0.0921,-0.0299 -0.29596,-0.0476 -0.3125,-0.0488 l -1.8789,-29.39843 z m 0.66211,10.63671 2.23829,35.07422 -0.8711,-0.0195 c -1.64676,-0.0385 -2.55239,0.0998 -3.83398,0.5918 -0.6266,0.24053 -1.19638,0.59215 -1.76758,0.92383 0.27429,-1.68821 0.82106,-5.41025 1.36914,-9.27344 0.29615,-2.08743 0.57724,-4.09421 0.7793,-5.58789 0.10103,-0.74684 0.18148,-1.36539 0.23632,-1.80469 0.0274,-0.21965 0.0488,-0.39316 0.0625,-0.52344 0.007,-0.0651 0.0119,-0.11733 0.0156,-0.17187 0.002,-0.0273 0.004,-0.0522 0.004,-0.0996 1.4e-4,-0.0237 0.002,-0.0503 -0.004,-0.10938 -0.003,-0.0295 -0.007,-0.0672 -0.0215,-0.13281 -0.0148,-0.0649 -0.15481,-0.34681 -0.1582,-0.35351 -0.0859,-0.12249 -0.25001,-0.13084 -0.3789,-0.20118 z M 199.5,362.23828 c 0.16748,0.006 0.25545,0.0257 0.37891,0.041 0.014,0.24484 0.0284,0.52226 0.041,0.88672 0.0304,0.8782 0.054,2.03166 0.0684,3.17382 0.0142,1.12211 0.0178,2.22579 0.01,3.0586 -0.89871,-0.40853 -1.85597,-0.69629 -2.76172,-0.83008 -0.44248,-0.0654 -0.81477,0.0553 -1.22461,0.0645 v -0.42969 l -1.34766,0.50196 c -0.17292,0.0642 -0.32793,0.16263 -0.50586,0.24023 -0.0557,-1.1102 -0.29471,-2.17689 -0.89843,-3.00781 -0.27187,-0.37417 -0.31761,-0.63681 -0.27735,-0.88477 0.0403,-0.24795 0.19702,-0.55113 0.61524,-0.89648 1.06604,-0.88031 2.39668,-1.49574 3.83984,-1.76367 0.67883,-0.12603 1.47201,-0.17681 2.0625,-0.1543 z m 2.79297,0.53906 c 0.13568,0.0399 0.13646,0.0312 0.30078,0.0918 0.461,0.1701 1.03049,0.40789 1.60742,0.66992 1.15387,0.52407 2.38861,1.19154 2.79883,1.49805 1.02857,0.7685 2.90968,3.03934 4.2793,5.34961 0.5021,0.84693 1.16076,2.2766 1.66211,3.55273 0.16904,0.43029 0.28521,0.7869 0.41015,1.15625 -0.90564,-0.38013 -1.88507,-0.59079 -3,-0.38672 -1.52433,0.27902 -3.269,1.05363 -5.7207,2.34766 -7.2e-4,3.8e-4 -0.001,-3.8e-4 -0.002,0 -0.10245,0.0541 -0.16513,0.0858 -0.26563,0.13867 0.26953,-0.46774 0.47771,-0.94408 0.56641,-1.44922 0.19099,-1.08775 -0.13938,-2.18202 -0.79492,-3.18164 l -0.0234,-0.0352 c 1.456,-1.02895 2.96186,-1.93353 3.69531,-2.24414 0.55064,-0.23317 0.99623,-0.47395 1.33984,-0.95899 0.17181,-0.24252 0.3217,-0.60357 0.26563,-1.01172 -0.0561,-0.40814 -0.32075,-0.74463 -0.58008,-0.93164 -0.35074,-0.2529 -0.61409,-0.24292 -0.83008,-0.24414 -0.21599,-10e-4 -0.4101,0.0263 -0.61523,0.0664 -0.41027,0.0802 -0.86069,0.21881 -1.35352,0.40039 -0.98564,0.36315 -2.11931,0.8969 -3.10156,1.50195 -0.21855,0.13463 -0.36683,0.21627 -0.56445,0.33399 -0.009,-0.3253 -0.021,-0.58781 -0.0293,-0.98243 -0.0307,-1.45919 -0.0503,-3.29618 -0.0469,-4.82812 z m -10.53125,7.28711 v 0.0898 l -0.13672,0.0449 c 0.0483,-0.0442 0.0933,-0.0871 0.13672,-0.13477 z m 4.62305,0.82227 c 0.53514,0.0381 1.54103,0.27094 2.36132,0.54492 0.20474,0.0684 0.34007,0.13405 0.51563,0.20313 -0.34263,0.34642 -0.74239,0.73869 -1.24805,1.18359 -1.28361,1.1294 -3.07862,2.90308 -4.09375,4.05273 -0.4723,0.53491 -0.95862,1.06273 -1.35351,1.47266 -0.38515,0.39981 -0.76523,0.72937 -0.70118,0.6875 -0.0278,-0.50937 0.0783,-0.95637 0.65039,-2.02148 0.57476,-1.07004 0.98738,-2.30764 1.26954,-3.74805 0.19671,-1.00419 0.32186,-1.47668 0.38086,-1.59375 0.059,-0.11708 0.0672,-0.11767 0.52734,-0.42188 0.75799,-0.50115 0.54432,-0.44118 1.69141,-0.35937 z m 6.01562,3.3418 c 0.0458,0.0873 0.0114,0.0173 0.0586,0.1289 0.19468,0.45959 0.24053,0.70418 0.23438,0.875 -0.006,0.17082 -0.0567,0.35851 -0.27344,0.74219 -0.002,0.003 -0.01,0.0125 -0.0117,0.0156 -0.0104,-0.32466 -0.026,-0.54099 -0.0312,-0.84179 -0.01,-0.56379 0.008,-0.74721 0.0234,-0.91992 z m -12.98633,1.5957 c 0.15951,-0.0335 0.28571,6.8e-4 0.3125,0.01 -0.1359,-0.0461 -0.27176,0.0493 -0.41992,0.0469 0.044,-0.0208 0.0549,-0.0456 0.10742,-0.0566 z m 10.65235,0.15625 c 0.002,0.17409 0.0128,0.28654 0.0117,0.47265 l -0.0117,2.01954 -1.08789,0.96875 c -0.78122,0.69449 -1.68052,1.49368 -1.99805,1.77539 0.0673,-0.0597 -0.0405,0.0289 -0.16797,0.11523 -0.12751,0.0864 -0.30726,0.20487 -0.5293,0.34766 -0.44407,0.28557 -1.05814,0.67099 -1.79101,1.125 -0.46958,0.2909 -1.19925,0.72791 -1.75586,1.06836 0.20199,-0.23477 0.28921,-0.25615 0.51367,-0.52344 1.65314,-1.96859 3.63296,-4.14732 5.24609,-5.81641 0.61827,-0.63971 1.10317,-1.10647 1.57032,-1.55273 z m 11.57812,0.99609 c 0.19743,0.0185 0.3237,0.14178 0.50195,0.19141 -0.48008,-0.0133 -0.94143,-0.0515 -1.45507,-0.0234 -0.4627,0.0253 -0.88769,0.21667 -1.35743,0.27735 0.0586,-0.0235 0.25657,-0.12988 0.30274,-0.14649 0.73737,-0.26524 1.41327,-0.35443 2.00781,-0.29883 z m -21.1543,4.34375 c 0.39317,0.22602 0.80931,0.24647 1.22071,0.19336 -0.49367,0.58627 -0.99741,1.18282 -1.40821,1.65235 -0.21784,0.24899 -0.26364,0.28985 -0.43359,0.47656 0.0248,-0.12261 0.0368,-0.21276 0.0645,-0.33985 0.17029,-0.78109 0.38444,-1.47291 0.55664,-1.98242 z m 9.61915,0.94336 c 0.004,0.10665 0.008,0.17034 0.0117,0.28711 -0.11516,-0.0219 -0.23707,-0.0649 -0.35937,-0.0762 0.0831,-0.0528 0.0562,-0.0428 0.15234,-0.10156 0.0754,-0.0461 0.12215,-0.0662 0.19532,-0.10938 z m 12.65624,0.0274 c 0.62515,0.036 1.21236,0.149 1.69141,0.3164 0.47905,0.1674 0.84308,0.39078 1.0293,0.57227 0.18622,0.18148 0.18843,0.25041 0.18359,0.31836 -0.0306,0.42908 -0.37631,1.08485 -1.36719,1.90234 -0.99087,0.81749 -2.55987,1.74469 -4.69726,2.74023 -1.70198,0.79276 -4.25997,2.03642 -5.72266,2.78126 -0.5019,0.25557 -0.89387,0.44527 -1.29492,0.64062 -0.004,-0.18108 -0.008,-0.29412 -0.0117,-0.50195 -0.0201,-1.16295 -0.0348,-2.70861 -0.0391,-4.25782 -0.002,-0.87142 0.005,-1.60139 0.008,-2.4082 0.46562,0.20405 0.97751,0.33537 1.52539,0.27539 0.86934,-0.0952 1.82994,-0.43203 3.2168,-0.99414 1.35828,-0.55054 3.11047,-1.14121 3.55859,-1.24023 0.63106,-0.13947 1.29478,-0.18054 1.91992,-0.14453 z m -15.82617,1.33789 c 0.0282,0.0445 0.0899,0.0644 0.12305,0.10742 -0.013,-0.009 -0.0339,-0.0102 -0.0449,-0.0195 -0.0758,-0.0641 -0.0754,-0.0765 -0.0801,-0.0859 6.7e-4,-4.2e-4 0.001,-0.002 0.002,-0.002 z m 0.38867,0.33984 c 0.15656,0.14175 0.27486,0.32235 0.46094,0.4043 0.17189,0.0757 0.35843,0.0805 0.53516,0.11718 -0.76457,0.48424 -1.79392,1.07411 -3.45899,1.89844 -1.83574,0.90884 -4.29208,2.12488 -5.45898,2.70313 -1.21939,0.60423 -2.82018,1.52086 -3.71289,2.13672 -1.12781,0.77802 -2.69556,1.99044 -4.04492,3.08984 -0.67469,0.5497 -1.29247,1.06879 -1.77149,1.49414 -0.2395,0.21267 -0.44417,0.40129 -0.61133,0.56641 -0.16715,0.16511 -0.27572,0.24557 -0.43945,0.51757 -0.0257,0.0426 -0.0583,0.12825 -0.0898,0.21094 -0.0297,0.0106 -0.0765,0.0205 -0.10352,0.0312 -0.1474,0.0587 -0.27928,0.12655 -0.43164,0.20899 -0.28295,0.15308 -0.62857,0.36636 -0.99219,0.60546 0.43908,-0.50013 0.78757,-0.93077 1.5879,-1.71289 1.68265,-1.64439 2.54317,-2.46242 4.375,-3.7207 1.83182,-1.25828 4.64805,-2.95144 10.09765,-6.20508 2.26223,-1.35063 3.47165,-2.05748 4.01953,-2.3164 0.0736,-0.0348 -0.007,-0.0145 0.0391,-0.0293 z m -9.91015,1.78711 c 0.10634,0.35011 0.34953,0.7018 0.72461,0.95508 -1.88698,1.13813 -2.28764,1.5349 -3.4043,2.25781 0.30445,-0.2182 0.66325,-0.36341 0.9043,-0.63672 0.36923,-0.41864 0.76869,-1.08954 1.16406,-1.6875 l 0.5,0.57617 v -1.30273 c 0.037,-0.0612 0.0747,-0.10037 0.11133,-0.16211 z m 12.77344,0.33594 c 0.006,0.38526 0.0147,0.64227 0.0195,1.04687 0.0416,3.50334 0.0615,5.13264 -0.043,5.65625 -0.0522,0.26181 -0.0197,0.1673 -0.0898,0.22461 -0.0702,0.0573 -0.36651,0.21591 -0.82812,0.49414 -0.57483,0.34647 -1.09279,0.80691 -1.47461,1.35938 -0.25389,0.36737 -1.25099,1.37577 -2.33008,2.29101 -1.07909,0.91524 -2.29896,1.82036 -3.04883,2.24805 -1.70234,0.97093 -3.581,1.51965 -7.12304,2.01367 -1.16565,0.16258 -3.06548,0.22824 -4.72656,0.19336 -0.83055,-0.0174 -1.60647,-0.0588 -2.20313,-0.11914 -0.59666,-0.0603 -1.11378,-0.22868 -0.96484,-0.15234 -0.0275,-0.0141 -0.33928,-0.27176 -0.59766,-0.49805 0.56225,-0.27098 1.16384,-0.60497 1.75195,-1 0.36087,-0.24239 0.6868,-0.47618 0.94532,-0.6875 0.12925,-0.10566 0.23765,-0.19831 0.35742,-0.33203 0.0599,-0.0669 0.12524,-0.13221 0.20898,-0.30469 0.0139,-0.0286 0.0207,-0.0973 0.0352,-0.13477 0.0114,-0.005 0.0383,-0.009 0.0488,-0.0137 0.23776,-0.10293 0.33827,-0.18486 0.51367,-0.30859 0.35079,-0.24746 0.82358,-0.61978 1.38086,-1.08789 4.5268,-3.80246 5.81124,-4.62033 11.55859,-7.36719 2.93648,-1.40345 4.80412,-2.34487 6.00781,-3.07812 0.26137,-0.15922 0.39601,-0.29801 0.60157,-0.44336 z m -7.35547,23.20117 1.09375,0.16211 c 2.04155,0.30301 4.37156,1.15289 5.9414,2.15039 0.50084,0.31824 0.6296,0.45842 0.60352,0.41601 -0.0261,-0.0424 0.0156,0.0417 0.0332,0.5625 0.008,0.25109 -0.004,0.54872 -0.0293,0.79297 -0.0258,0.24425 -0.0971,0.47872 -0.0645,0.40039 -0.13599,0.32653 -0.18246,0.61079 -0.25976,1 -0.0586,-0.54039 -0.0862,-1.22851 -0.1875,-1.64257 -0.19869,-0.81194 -0.54556,-1.46746 -1.02344,-1.95899 -0.36003,-0.37027 -0.99501,-0.68779 -1.76758,-0.7793 -0.77257,-0.0915 -1.8355,-0.0959 -3.69531,-0.0859 -0.67105,0.004 -0.75912,-0.0559 -1.14063,-0.10352 0.24263,-0.28041 0.3931,-0.58599 0.4961,-0.91406 z m -4.31641,1.11133 c 0.0214,0.0325 0.0259,0.0841 0.0469,0.11718 h -0.002 c 0.045,0.071 -0.005,0.0795 0.0234,0.12305 l -0.33594,0.24414 0.42188,0.20117 c -0.0107,0.0419 0.0366,0.0433 0.0215,0.10743 -0.16281,0.68901 -0.11821,1.39102 0.16211,2.04296 0.30295,0.70456 0.72882,1.37302 1.43555,1.77539 0.70673,0.40238 1.52132,0.5684 2.80859,0.81055 0.62556,0.11767 1.25089,0.26315 1.73242,0.39649 0.24077,0.0667 0.44678,0.13097 0.5879,0.18164 0.14111,0.0507 0.25261,0.13234 0.11914,0.0352 0.13514,0.0984 0.22082,0.2161 0.27148,0.52735 0.0507,0.31125 0.0229,0.80079 -0.15234,1.41992 -0.0808,0.28543 -0.0835,0.27933 -0.125,0.38867 -0.43794,0.0315 -0.86036,0.16408 -1.13672,0.48633 -0.21861,0.2549 -0.33051,0.58655 -0.35547,0.93164 -0.21912,10e-4 -0.25251,0.0192 -0.55469,-0.0176 -0.65116,-0.0793 -1.44133,-0.23727 -2.17187,-0.44726 -2.01814,-0.58009 -3.60209,-0.66708 -5,-0.25 -0.10931,0.0326 -0.24281,0.009 -0.34961,0.0488 -0.0367,0.0136 -0.0598,0.022 -0.0957,0.0352 -0.0442,-0.15629 -0.0823,-0.27134 -0.1289,-0.45117 -0.2008,-0.77528 -0.40409,-1.72196 -0.46875,-2.20703 -0.14975,-1.12336 -0.16072,-1.00127 0.34961,-2.31641 0.62376,-1.6075 1.76805,-3.0814 2.89648,-4.18359 z m 2.65039,2.0332 c 0.43436,0.0803 0.80992,0.18698 1.39258,0.22656 0.9513,0.0646 2.08511,0.0822 3.25781,0.0449 0.73687,-0.0234 1.13056,-0.007 1.25586,0.0176 0.1253,0.0249 0.0452,-0.0209 0.24024,0.15821 0.17711,0.16263 0.28878,0.31983 0.41601,0.88085 0.0958,0.4226 0.14968,1.28232 0.20313,2.15821 -0.15735,-0.34056 -0.32618,-0.68158 -0.55469,-0.92774 -0.84501,-0.9102 -2.00098,-1.33167 -3.65039,-1.44921 -1.55391,-0.11078 -2.3719,-0.6407 -2.50391,-0.89649 -0.0263,-0.051 -0.0308,-0.12154 -0.0566,-0.21289 z m 6.92188,4.87305 c 0.0546,0.84723 0.098,1.65704 0.29101,2.20507 0.12512,0.3552 0.30553,0.72332 0.72266,0.99219 l -0.96289,0.0996 -0.26172,-0.31836 c -0.15749,-0.1918 -0.2118,-0.30066 -0.23047,-0.33984 0.076,-0.23134 0.12905,-0.4377 0.18945,-0.73438 0.0749,-0.36765 0.15203,-0.80174 0.21485,-1.22851 0.0421,-0.28623 0.0105,-0.45537 0.0371,-0.67578 z m -2.38086,1.70703 h 0.004 c -0.001,-8e-5 -8.7e-4,0.002 -0.002,0.002 -0.001,-8e-5 -8.3e-4,-0.002 -0.002,-0.002 z m 5.71289,0.58008 c 0.0575,0.0547 0.071,0.11955 0.14453,0.16992 -0.0255,0.0348 -0.10853,0.17225 -0.13086,0.20117 -0.25439,0.32946 -0.11835,0.20732 -0.22852,0.24023 0.007,-0.002 -0.24647,0.0439 -0.43164,0.0781 0.24703,-0.1781 0.47073,-0.39119 0.64649,-0.68945 z m -19.11914,0.0586 c 0.12011,0.42451 0.2179,0.73328 0.32617,1.1582 0.18869,0.74058 0.25225,1.07811 0.25,1.22266 -0.002,0.14455 -0.0422,0.279 -0.24805,0.78906 -1.00893,2.50022 -0.8612,5.70956 0.0176,8.91602 0.87878,3.20645 2.51812,6.41544 4.75391,8.84179 0.76095,0.82582 2.23337,2.50515 3.23632,3.68946 1.30004,1.53511 2.79433,2.94244 4.62305,4.36523 4.68962,3.64864 6.85786,4.59509 11.20117,4.89649 2.14368,0.14877 3.73177,0.0755 4.97657,-0.42774 0.31189,-0.1261 0.50287,-0.39016 0.75586,-0.58984 -0.0123,0.12344 0.006,0.33995 -0.0117,0.42187 -0.17248,0.77852 -0.13913,0.71297 -1.03321,1.46289 -0.57239,0.48012 -1.43691,0.94882 -1.98437,1.10743 -2.39565,0.69406 -5.42759,0.3301 -9.66016,-1.35938 -3.7778,-1.50797 -5.50759,-2.79403 -8.79101,-6.55273 -1.9702,-2.25539 -3.74221,-5.36017 -6.84766,-12.13477 -0.98872,-2.15695 -2.10865,-4.49738 -2.57422,-5.35156 -1.36869,-2.51119 -1.60597,-3.29705 -1.5,-4.63867 0.057,-0.72083 0.50991,-2.17815 1.13086,-3.53907 0.42846,-0.93901 0.91186,-1.59464 1.37891,-2.27734 z m 6.15039,1.99805 c 0.76697,0.0369 1.66867,0.17904 2.60156,0.45508 0.95679,0.28313 1.83984,0.46145 2.60742,0.52148 0.76759,0.06 1.41081,0.086 2.07422,-0.33008 -0.0937,0.0588 -0.0197,-0.006 0.18555,0.0723 0.2052,0.0782 0.46867,0.26752 0.63672,0.49609 0.0958,0.13024 0.25256,0.15867 0.35937,0.26758 -0.12627,-0.0148 -0.26105,0.089 -0.45703,0.043 -0.92843,-0.21802 -1.51254,-0.34623 -2.08203,-0.33594 -0.28475,0.005 -0.61988,0.0388 -0.95703,0.29102 -0.33715,0.25225 -0.50081,0.70045 -0.52149,0.99023 -0.0457,0.64149 0.40577,1.44915 1.01758,1.71289 0.61181,0.26374 1.21629,0.2366 1.94531,0.14063 0.54501,-0.0717 1.33343,-0.0203 1.66602,0.0703 0.14102,0.0384 0.38359,0.0781 0.56445,0.12109 -0.18567,0.0482 -0.52087,0.17031 -0.58593,0.17578 -0.81183,0.0683 -1.49487,0.21442 -2.07422,0.50586 -0.28968,0.14573 -0.56381,0.33111 -0.78711,0.61524 -0.2233,0.28412 -0.37402,0.6973 -0.34571,1.09961 0.0275,0.3914 0.18812,0.8477 0.54493,1.15429 0.3568,0.3066 0.8092,0.39228 1.18554,0.375 0.33394,-0.0153 0.65943,-0.26374 0.97657,-0.38476 0.007,-0.002 -0.0327,0.0181 -0.0234,0.0156 -0.62948,0.17187 -1.17698,0.41341 -1.54688,0.9961 -0.18495,0.29134 -0.28974,0.7099 -0.20898,1.0957 0.0808,0.38579 0.30809,0.68903 0.55859,0.9043 0.16234,0.1395 0.31336,0.26985 0.54297,0.39257 0.0558,0.0299 0.16646,0.01 0.23828,0.0352 -0.138,0.11486 -0.35842,0.16529 -0.47461,0.30859 -0.21508,0.26529 -0.39519,0.63125 -0.39843,1.04688 -0.003,0.41562 0.18388,0.80449 0.41601,1.07226 0.44254,0.51047 1.26072,0.6656 1.89649,0.49024 -0.37332,0.25286 -0.67074,0.54866 -0.86329,0.93164 -0.0188,0.0375 0.0144,0.0946 -0.002,0.13477 -0.53685,-0.11522 -1.1062,-0.20296 -1.52148,-0.41797 -0.96562,-0.49995 -1.57723,-0.81416 -2.27149,-0.91797 -0.69425,-0.10381 -1.39785,0.1907 -1.86914,0.54101 -0.63607,0.47279 -1.07407,1.28434 -1.10742,2.0625 -0.0306,0.71487 0.21701,1.4396 0.66797,2.10547 0.26199,0.38685 0.75091,0.81979 1.1543,1.22852 -0.0576,-0.0395 -0.10231,-0.0645 -0.16016,-0.10547 -0.65075,-0.46043 -1.37155,-1.14178 -1.36523,-1.13281 -0.32283,-0.45814 -0.91225,-1.4322 -1.41797,-2.33008 -0.25287,-0.44894 -0.48834,-0.88387 -0.66797,-1.23438 -0.17964,-0.3505 -0.31294,-0.67186 -0.3086,-0.6582 -0.0771,-0.24288 -0.14278,-0.44161 -0.36914,-0.70508 0.22548,0.18043 0.41879,0.41815 0.66602,0.56446 0.38083,0.22536 0.77973,0.38818 1.1914,0.47656 v 0.6582 l 0.69727,-0.64844 c 0.0869,-0.0116 0.16475,0.0287 0.25391,0.004 0.78323,-0.21789 1.21278,-0.8188 1.625,-1.50195 0.89033,-1.47556 1.24313,-3.46942 1.2539,-5.21094 0.005,-0.87076 -0.074,-1.66735 -0.3125,-2.35742 -0.11925,-0.34504 -0.27688,-0.67414 -0.56445,-0.96875 -0.28757,-0.29462 -0.77691,-0.52764 -1.25586,-0.49414 -0.38147,0.0267 -0.95371,0.30048 -1.22266,0.67382 -0.26894,0.37335 -0.38405,0.73704 -0.54687,1.25 -0.0386,0.12167 -0.0913,0.22829 -0.13867,0.34961 -0.55305,-0.79844 -1.53052,-2.79364 -2.60352,-5.67968 l -0.31445,-0.84375 0.0254,-0.01 c 0.39491,-0.14638 1.02599,-0.21468 1.79297,-0.17773 z m -3.97461,6.37695 c 0.43553,1.67504 0.89551,3.72325 1.32422,4.73242 0.55014,1.29504 1.25799,2.11681 2.06054,2.77149 -0.12441,-0.1404 -0.32483,-0.37412 -0.80273,-0.37305 -0.16968,3.8e-4 -0.19702,0.14555 -0.33203,0.21875 -0.95294,-1.83431 -1.79709,-3.8708 -2.15039,-5.76563 -0.0861,-0.46152 -0.0635,-1.04001 -0.0996,-1.58398 z m 18.29101,1.02539 c -0.0991,0.0465 -0.19559,0.0116 -0.29492,0.0762 0.12836,-0.0834 -0.0368,0.009 -0.22461,0.0391 -0.1878,0.03 -0.42877,0.0448 -0.61523,0.0332 -0.0309,-0.002 -0.0661,0.007 -0.0977,0.006 0.0323,-0.0196 0.17326,-0.13915 0.19141,-0.14649 0.10163,-0.0411 0.21802,-0.0473 0.82617,-0.004 0.0817,0.006 0.1375,-0.008 0.21484,-0.004 z m -15.53125,0.14844 c 0.014,0.0245 0.031,0.0735 0.0449,0.0976 0.31845,0.55041 0.61886,0.99857 0.9375,1.35938 0.31863,0.36081 0.63196,0.71326 1.28515,0.78906 0.48935,0.0568 0.82146,-0.13851 1.0625,-0.3164 0.21945,-0.16196 0.38188,-0.35147 0.53711,-0.55469 -0.14105,1.95593 -0.75292,3.40834 -1.02344,3.66015 -0.22457,0.20905 -0.14788,0.10833 0.006,0.11524 0.15375,0.007 0.003,0.002 -0.36328,-0.26367 -0.68918,-0.50087 -1.21649,-1.15588 -1.77148,-2.43164 -0.23138,-0.53188 -0.48163,-1.69591 -0.71485,-2.45508 z m 5.80079,8.96289 c 0.2223,0.024 0.69387,0.1861 1.3125,0.5625 0.99736,0.60684 1.80705,0.83855 3.35156,0.96094 0.39888,0.0316 0.37888,0.0348 0.59765,0.0625 2.3e-4,0.14109 -0.10814,0.26475 -0.0723,0.4082 0.0796,0.31807 0.33928,0.605 0.65625,0.82422 -0.23069,0.11444 -0.30852,0.23061 -0.58984,0.33594 -0.39169,0.14663 -1.29622,0.41023 -1.84376,0.53125 l -0.61914,0.13671 -0.83007,-0.70898 c -0.7359,-0.62933 -1.38255,-1.30784 -1.8125,-1.86523 -0.21498,-0.2787 -0.37595,-0.52985 -0.46289,-0.70118 -0.087,-0.17133 -0.0636,-0.27839 -0.0762,-0.10156 -0.007,0.096 0.15033,-0.35717 0.19336,-0.41016 0.058,-0.0714 -0.027,-0.0591 0.19532,-0.0351 z m 11.875,0.29687 c 0.14128,0.0129 0.19793,0.0419 0.21484,0.0488 0.0715,0.18177 0.13939,0.32822 0.22852,0.46875 0.12316,0.19421 0.27819,0.42057 0.46289,0.67774 0.36938,0.51433 0.85224,1.14802 1.37304,1.79296 2.38794,2.95711 3.125,4.63344 3.08203,5.23047 -0.0452,0.62644 -0.27859,1.07824 -0.7207,1.46289 -0.44211,0.38465 -1.12816,0.68856 -2.06445,0.80274 -1.99897,0.24377 -4.19614,0.12754 -5.98047,-0.23828 -1.75526,-0.35987 -3.06559,-1.07605 -3.36133,-1.44727 0.2018,-0.167 0.40552,-0.32844 0.55859,-0.57226 0.2004,-0.31921 0.31269,-0.76248 0.25782,-1.16211 -0.0972,-0.70812 -0.50633,-1.17591 -1.01758,-1.6875 0.80867,-0.25015 1.72285,-0.50706 2.24609,-0.75 0.81543,-0.37862 1.39929,-0.85229 1.88086,-1.41407 0.29884,-0.34891 0.54486,-0.8043 0.65039,-1.29882 0.0846,-0.39621 0.0717,-0.84696 0.0566,-1.33008 0.0915,-0.0537 0.2422,-0.14368 0.61719,-0.29297 0.61244,-0.24384 1.19231,-0.32053 1.51563,-0.29102 z m -10.7129,6.13868 c 0.007,-9e-5 0.0109,8e-5 0.0176,0 0.7475,-0.009 1.01215,0.0168 1.08789,0.0449 0.0757,0.0281 0.25839,0.15975 0.78125,0.64062 0.16241,0.14937 0.2751,0.27206 0.40625,0.40625 -0.18639,0.18162 -0.3875,0.34648 -0.49609,0.56836 -0.19956,-0.15519 -0.20699,-0.14345 -0.44922,-0.33984 -0.55429,-0.4494 -0.87704,-0.85372 -1.34766,-1.32031 z m 3.93555,2.67382 0.0215,0.0293 -0.18164,0.13477 c 0.0607,-0.0451 0.10207,-0.11645 0.16015,-0.16407 z m 13.11719,2.40625 c -0.0437,0.34609 -0.083,0.74895 -0.14258,0.86719 -0.13668,0.27113 -0.14961,0.26749 -0.18555,0.29102 -0.0359,0.0235 -0.23606,0.10794 -0.71093,0.21289 -0.26165,0.0578 -1.30231,0.009 -2.07813,0.0117 0.84873,-0.18408 1.72021,-0.34099 2.35938,-0.73047 0.29231,-0.17813 0.51716,-0.42299 0.75781,-0.65235 z" />
    </g>
  </g>
</svg>
