<?xml version="1.0" encoding="UTF-8" standalone="no"?>
<svg
   xmlns:dc="http://purl.org/dc/elements/1.1/"
   xmlns:cc="http://creativecommons.org/ns#"
   xmlns:rdf="http://www.w3.org/1999/02/22-rdf-syntax-ns#"
   xmlns:svg="http://www.w3.org/2000/svg"
   xmlns="http://www.w3.org/2000/svg"
   xmlns:xlink="http://www.w3.org/1999/xlink"
   xmlns:sodipodi="http://sodipodi.sourceforge.net/DTD/sodipodi-0.dtd"
   xmlns:inkscape="http://www.inkscape.org/namespaces/inkscape"
   version="1.1"
   id="svg10"
   width="100mm"
   height="100mm"
   viewBox="0 0 377.95275 377.95283"
   sodipodi:docname="lineShoe4.svg"
   inkscape:version="1.0.2 (e86c870879, 2021-01-15, custom)">
  <sodipodi:namedview
     pagecolor="#ffffff"
     bordercolor="#666666"
     borderopacity="1"
     objecttolerance="10"
     gridtolerance="10"
     guidetolerance="10"
     inkscape:pageopacity="0"
     inkscape:pageshadow="2"
     inkscape:window-width="1600"
     inkscape:window-height="837"
     id="namedview1584"
     showgrid="true"
     height="75mm"
     inkscape:zoom="0.92172518"
     inkscape:cx="430.3609"
     inkscape:cy="306.48904"
     inkscape:window-x="-8"
     inkscape:window-y="-8"
     inkscape:window-maximized="1"
     inkscape:current-layer="g18"
     width="113mm">
    <inkscape:grid
       type="xygrid"
       id="grid3744" />
  </sodipodi:namedview>
  <metadata
     id="metadata16">
    <rdf:RDF>
      <cc:Work
         rdf:about="">
        <dc:format>image/svg+xml</dc:format>
        <dc:type
           rdf:resource="http://purl.org/dc/dcmitype/StillImage" />
        <dc:title></dc:title>
      </cc:Work>
    </rdf:RDF>
  </metadata>
  <defs
     id="defs14">
    <linearGradient
       inkscape:collect="always"
       id="linearGradient2968">
      <stop
         style="stop-color:#000000;stop-opacity:1;"
         offset="0"
         id="stop2964" />
      <stop
         style="stop-color:#000000;stop-opacity:0;"
         offset="1"
         id="stop2966" />
    </linearGradient>
    <rect
       x="-92.533905"
       y="107.65509"
       width="51.836315"
       height="136.54443"
       id="rect1277" />
    <rect
       x="-78.626602"
       y="143.0555"
       width="53.100616"
       height="93.558228"
       id="rect1260" />
    <rect
       x="-64.719299"
       y="122.8267"
       width="151.71605"
       height="102.40833"
       id="rect1216" />
    <rect
       x="24.167166"
       y="501.46866"
       width="137.95422"
       height="47.327366"
       id="rect890" />
    <rect
       x="66.459702"
       y="429.97415"
       width="131.91245"
       height="52.36219"
       id="rect884" />
    <rect
       x="77.536324"
       y="404.80002"
       width="154.06567"
       height="44.306469"
       id="rect876" />
    <filter
       inkscape:collect="always"
       style="color-interpolation-filters:sRGB"
       id="filter2364"
       x="-0.14047886"
       width="1.2809577"
       y="-0.14023484"
       height="1.2804697"
       inkscape:label="Cross Blur">
      <feGaussianBlur
         inkscape:collect="always"
         stdDeviation="7.1451775"
         id="feGaussianBlur2366"
         result="fbSourceGraphic" />
      <feColorMatrix
         result="fbSourceGraphicAlpha"
         in="fbSourceGraphic"
         values="0 0 0 -1 0 0 0 0 -1 0 0 0 0 -1 0 0 0 0 1 0"
         id="feColorMatrix2404" />
      <feGaussianBlur
         id="feGaussianBlur2406"
         stdDeviation="9.97879 5.74961"
         result="fbSourceGraphic"
         in="fbSourceGraphic" />
      <feColorMatrix
         result="fbSourceGraphicAlpha"
         in="fbSourceGraphic"
         values="0 0 0 -1 0 0 0 0 -1 0 0 0 0 -1 0 0 0 0 1 0"
         id="feColorMatrix2408" />
      <feGaussianBlur
         id="feGaussianBlur2410"
         stdDeviation="9.97879 5.74961"
         result="fbSourceGraphic"
         in="fbSourceGraphic" />
      <feColorMatrix
         result="fbSourceGraphicAlpha"
         in="fbSourceGraphic"
         values="0 0 0 -1 0 0 0 0 -1 0 0 0 0 -1 0 0 0 0 1 0"
         id="feColorMatrix2724" />
      <feColorMatrix
         id="feColorMatrix2726"
         in="fbSourceGraphic"
         values="1 0 0 0 0 0 1 0 0 0 0 0 1 0 0 -0.2125 -0.7154 -0.0721 1 0 "
         result="colormatrix" />
      <feComposite
         in2="colormatrix"
         id="feComposite2728"
         in="fbSourceGraphic"
         operator="arithmetic"
         k2="1"
         k3="0.838323"
         k4="0.284431"
         result="composite"
         k1="0" />
      <feGaussianBlur
         id="feGaussianBlur2730"
         stdDeviation="5 0.01"
         result="blur1" />
      <feGaussianBlur
         id="feGaussianBlur2732"
         in="composite"
         stdDeviation="0.01 5"
         result="blur2" />
      <feBlend
         in2="blur1"
         id="feBlend2734"
         in="blur2"
         mode="darken"
         result="blend" />
    </filter>
    <linearGradient
       inkscape:collect="always"
       xlink:href="#linearGradient2968"
       id="linearGradient2970"
       x1="375.1355"
       y1="63.151363"
       x2="240.99908"
       y2="245.15494"
       gradientUnits="userSpaceOnUse"
       gradientTransform="translate(-205.78211,64.402126)" />
    <filter
       inkscape:collect="always"
       style="color-interpolation-filters:sRGB"
       id="filter3740"
       x="-0.14042588"
       width="1.2808517"
       y="-0.14018193"
       height="1.2803639">
      <feGaussianBlur
         inkscape:collect="always"
         stdDeviation="8.8450505"
         id="feGaussianBlur3742" />
    </filter>
    <linearGradient
       inkscape:collect="always"
       xlink:href="#linearGradient2968"
       id="linearGradient3756"
       gradientUnits="userSpaceOnUse"
       gradientTransform="translate(-205.78211,64.402126)"
       x1="375.1355"
       y1="63.151363"
       x2="240.99908"
       y2="245.15494" />
  </defs>
  <g
     id="g18"
     transform="matrix(2.1425012,0,0,2.1581799,41.566773,-205.33826)">
    <text
       xml:space="preserve"
       id="text874"
       style="font-style:normal;font-variant:normal;font-weight:normal;font-stretch:normal;font-size:40px;line-height:1.25;font-family:'Segoe Script';-inkscape-font-specification:'Segoe Script, Normal';font-variant-ligatures:normal;font-variant-caps:normal;font-variant-numeric:normal;font-variant-east-asian:normal;white-space:pre;shape-inside:url(#rect876);fill:#000000;fill-opacity:1;stroke:none;"><tspan
         style="visibility:hidden"
         x="77.537109"
         y="484.32524"><tspan
           dx="0 29.765625 30.898438 29.21875 12.226562">BUTIK</tspan></tspan></text>
    <text
       xml:space="preserve"
       id="text882"
       style="font-style:normal;font-weight:normal;font-size:40px;line-height:1.25;font-family:sans-serif;white-space:pre;shape-inside:url(#rect884);fill:#000000;fill-opacity:1;stroke:none;" />
    <text
       xml:space="preserve"
       style="font-style:normal;font-weight:normal;font-size:40px;line-height:1.25;font-family:sans-serif;fill:#000000;fill-opacity:1;stroke:none"
       x="-111.77314"
       y="172.19106"
       id="text924"><tspan
         id="tspan922"
         x="-111.77314"
         y="172.19106" /></text>
    <g
       id="g3754"
       transform="matrix(0.9069871,0,0,0.9069871,-9.5887446,8.4634723)">
      <g
         id="g1097"
         transform="matrix(0.52007397,0,0,0.52007397,70.198255,312.7576)"
         style="fill:#a413bc;fill-opacity:1;stroke:#a413bc;stroke-opacity:1">
        <g
           id="g1358"
           transform="matrix(0.55319469,0,0,0.55319469,22.806527,-253.87349)"
           style="fill:#a413bc;fill-opacity:1;stroke:#a413bc;stroke-opacity:1">
          <g
             aria-label="BUTIK"
             transform="matrix(1.9611245,0,0,1.9611245,-143.57597,-1042.7962)"
             id="text888"
             style="font-style:normal;font-variant:normal;font-weight:normal;font-stretch:normal;font-size:40px;line-height:1.25;font-family:Gabriola;-inkscape-font-specification:'Gabriola, Normal';font-variant-ligatures:normal;font-variant-caps:normal;font-variant-numeric:normal;font-variant-east-asian:normal;white-space:pre;shape-inside:url(#rect890);fill:#a413bc;fill-opacity:1;stroke:#a413bc;stroke-opacity:1" />
          <g
             aria-label="V"
             id="text1275"
             style="font-style:normal;font-variant:normal;font-weight:normal;font-stretch:normal;font-size:76.9121px;line-height:1.25;font-family:Candara;-inkscape-font-specification:'Candara, Normal';font-variant-ligatures:normal;font-variant-caps:normal;font-variant-numeric:normal;font-variant-east-asian:normal;white-space:pre;shape-inside:url(#rect1277);fill:#a413bc;fill-opacity:1;stroke:#a413bc;stroke-width:1.34596;stroke-miterlimit:4;stroke-dasharray:none;stroke-opacity:1"
             transform="matrix(-0.97406306,-0.04387693,0.04387693,-0.97406306,-158.37955,269.34564)">
            <path
               id="path1283"
               style="fill:#a413bc;fill-opacity:1;stroke:#a413bc;stroke-width:1.34596;stroke-miterlimit:4;stroke-dasharray:none;stroke-opacity:1"
               d="m -244.61167,312.88581 c -0.62507,7.04533 -1.14898,13.98475 -1.57174,20.81828 -0.42397,6.79946 -0.60664,11.01636 -0.548,12.65066 l -1.25789,0.0451 c -0.10383,-2.89407 -0.90196,-9.58152 -2.39437,-20.06234 -1.48289,-10.48115 -2.97359,-20.38246 -4.47212,-29.70394 -1.49852,-9.32147 -2.27832,-14.83341 -2.3394,-16.5358 l 1.50088,-0.0539 c 0.0892,2.4855 1.40812,12.12024 3.95681,28.90423 2.54746,16.74994 3.95411,27.23383 4.21994,31.45168 l 0.0572,-0.002 c -0.0586,-1.6343 0.0507,-4.57012 0.32808,-8.80745 0.27735,-4.23733 0.85208,-11.62178 1.72421,-22.15334 l 0.64877,-7.84733 c 0.63167,-7.65921 1.05575,-12.99275 1.27226,-16.0006 0.22603,-3.00818 0.32134,-5.00597 0.28591,-5.99335 l 1.34366,-0.0482 c 0.033,0.91929 -0.0589,2.74649 -0.27565,5.4816 -0.21797,2.70108 -0.63423,7.45478 -1.2488,14.26108 z m -24.50898,-167.25938 c 5.40159,0.91086 11.42712,3.45158 15.04923,6.34562 6.56674,5.24681 8.96505,8.41984 15.86782,20.9936 1.84937,3.36871 4.12538,7.35013 5.05781,8.84759 2.11499,3.39664 2.52768,4.67535 2.3151,7.17328 -0.20745,2.43754 -0.83703,4.33874 -2.69171,8.12831 -1.35273,2.76398 -2.29406,3.86537 -2.95468,3.45709 -0.1507,-0.0931 -0.75623,-1.54122 -1.34564,-3.21793 -0.5894,-1.67673 -1.17531,-3.04859 -1.30203,-3.04859 -0.63036,0 -0.53292,0.88666 0.39415,3.58671 0.87271,2.54173 0.99416,3.2759 0.86777,5.24541 -0.18375,2.86322 -1.39382,5.57852 -3.74382,8.40087 -2.26832,2.72426 -4.0614,4.00551 -5.31362,3.79687 -2.25256,-0.37534 -3.35063,-0.50259 -5.88584,-0.68203 -1.97174,-0.13956 -3.45733,-0.48879 -5.60546,-1.31773 -1.60751,-0.62031 -3.05966,-1.26407 -3.22703,-1.43056 -0.58686,-0.5838 -1.0265,-0.3054 -0.91298,0.57815 0.0623,0.48447 0.53529,5.90726 1.05119,12.05066 0.51591,6.14338 1.00827,11.24005 1.09415,11.32593 0.2776,0.27759 2.04191,-1.17006 3.12286,-2.56238 4.49969,-5.79583 8.45287,-8.78547 13.79664,-10.43394 3.34249,-1.03109 8.71812,-1.97677 12.45082,-2.19034 3.18679,-0.18232 3.50652,-0.14352 5.19838,0.63104 2.36384,1.0822 3.09799,2.25236 3.09961,4.94043 0.002,2.50947 -0.85451,4.84845 -2.88274,7.87684 -1.79555,2.68098 -5.02874,6.01222 -6.9339,7.1442 -0.81024,0.48141 -1.40997,1.11034 -1.53542,1.61016 -0.17404,0.69343 -0.33343,0.78816 -1.03138,0.61298 -0.7519,-0.18871 -0.80783,-0.13662 -0.62698,0.58395 0.28419,1.13231 -0.0715,1.80298 -0.95622,1.80298 -0.87153,0 -0.91242,0.0954 -0.39565,0.92285 0.57484,0.92047 0.10566,1.7483 -0.85431,1.50736 -0.63119,-0.15841 -0.7978,-0.0786 -0.7978,0.38243 0,0.32047 0.15766,0.74032 0.35035,0.93302 0.56243,0.56243 0.19427,1.49546 -0.67066,1.69964 -0.93478,0.22067 -1.2527,1.25266 -0.51338,1.66641 1.00686,0.56346 0.47299,1.98644 -0.75363,2.00871 -0.25642,0.005 -0.6741,0.55356 -0.92819,1.2198 -0.42155,1.10536 -0.41235,1.24759 0.1051,1.62596 0.76544,0.55971 0.37531,1.9361 -0.48501,1.71112 -0.46725,-0.12219 -0.69623,0.15275 -1.09021,1.30902 -0.27431,0.80504 -0.49872,1.91045 -0.49872,2.45647 0,1.09621 -0.83452,2.53248 -1.30317,2.24284 -0.49468,-0.30573 -0.33751,-1.69702 0.34223,-3.02941 0.65611,-1.28609 0.85815,-2.88281 0.36477,-2.88281 -0.51034,0 -1.59937,3.44369 -1.83036,5.78786 -0.21417,2.17349 -0.19079,2.30951 0.36058,2.09793 2.9132,-1.1179 3.65662,-1.24004 4.43667,-0.72894 1.18244,0.77477 1.89358,3.01098 1.73742,5.46342 -0.14642,2.29943 -0.67169,3.15539 -2.3724,3.86599 -1.63388,0.68269 -2.26325,1.91259 -2.46367,4.81448 -0.82206,11.90234 -1.92852,26.29029 -2.03015,26.39903 -0.0686,0.0734 -0.17394,0.0734 -0.23409,0 -0.10398,-0.1269 1.45511,-22.43824 1.83915,-26.31896 0.10024,-1.01298 0.0954,-1.84179 -0.0108,-1.84179 -0.10617,0 -0.70973,0.45366 -1.34124,1.00814 -0.63151,0.55448 -2.08945,1.4486 -3.23986,1.98694 -1.70586,0.79827 -2.61457,1.00381 -4.92668,1.11435 l -2.83503,0.13554 0.19765,1.80134 c 0.22087,2.01293 1.36568,16.17447 1.60862,19.89895 0.114,1.74783 0.0765,2.14054 -0.13769,1.4414 -0.24223,-0.79065 -1.97324,-20.92198 -1.94415,-22.60999 0.006,-0.37534 -0.72512,-0.68822 -2.79396,-1.19492 -1.5415,-0.37754 -3.98077,-1.26728 -5.42058,-1.9772 -2.14406,-1.05716 -3.06246,-1.76845 -5.07435,-3.93008 -3.99546,-4.2928 -7.20279,-9.58292 -8.19214,-13.51201 -0.53735,-2.13398 -0.0803,-2.47593 1.6976,-1.27019 1.7248,1.1697 4.09268,1.22874 6.50386,0.16217 2.31084,-1.02219 10.43145,-6.13202 10.64993,-6.70139 0.16551,-0.43131 -1.13746,-18.02152 -1.35134,-18.24322 -0.0475,-0.0492 -1.7277,0.89923 -3.73383,2.10765 -2.00612,1.20842 -5.57232,3.26639 -7.92488,4.57325 -6.08479,3.38017 -9.01555,6.17118 -9.01555,8.58567 0,2.35397 4.7854,3.6527 8.92706,2.42276 0.9219,-0.27378 3.27563,-1.28276 5.23053,-2.24218 3.80857,-1.86919 5.1703,-2.11728 6.35517,-1.15784 0.55084,0.44604 0.6748,0.78419 0.51739,1.41135 -0.28987,1.15492 -3.25774,3.96552 -5.17295,4.89883 -3.80769,1.85554 -10.02877,2.64216 -12.5534,1.5873 -1.5365,-0.64199 -1.22602,-0.89204 0.39204,-0.31574 1.67592,0.59692 3.79196,0.59082 6.80787,-0.0196 4.28813,-0.86794 7.82755,-2.84912 9.57716,-5.36077 0.79453,-1.1406 0.81356,-1.24947 0.30689,-1.75614 -0.90072,-0.90073 -2.77464,-0.62154 -5.39002,0.80305 -3.01851,1.64417 -6.10714,2.84087 -8.03958,3.11497 -3.06714,0.43504 -6.76774,-0.95383 -7.41038,-2.78118 -0.7859,-2.23469 2.68023,-5.99012 8.49511,-9.20414 2.00667,-1.10914 5.69426,-3.24613 8.19466,-4.74887 4.19883,-2.5235 4.53551,-2.79564 4.40653,-3.56181 -0.0768,-0.45625 -0.58694,-6.22876 -1.13365,-12.82782 -1.13431,-13.69186 -1.09637,-13.5534 -3.80252,-13.87426 -1.90912,-0.22636 -2.57513,-1.06744 -2.57513,-3.25214 0,-1.35412 0.29145,-2.24814 1.55275,-4.76304 1.46618,-2.92339 1.51083,-3.08549 0.80078,-2.90729 -0.53639,0.13464 -0.75197,0.0523 -0.75197,-0.28723 0,-0.66531 0.81881,-1.27307 1.50609,-1.11789 0.31677,0.0715 0.93629,-0.045 1.37672,-0.25901 0.44043,-0.21398 1.91787,-0.56866 3.28319,-0.78816 1.36533,-0.21951 2.48242,-0.50599 2.48242,-0.63662 0,-0.13062 -0.46846,-0.43202 -1.04101,-0.66975 -1.11322,-0.46224 -2.62591,-0.49945 -5.2175,-0.12838 -1.31316,0.18803 -1.69739,0.13061 -2.06143,-0.30803 -0.70467,-0.84907 0.15198,-1.18577 2.44316,-0.96027 1.59598,0.15708 2.24762,0.0679 3.42578,-0.46881 0.8002,-0.36453 1.60696,-0.66279 1.7928,-0.66279 0.37978,0 0.47221,-0.62789 0.0976,-0.66338 -5.71968,-0.542 -6.00093,-0.53906 -7.218,0.0755 -0.66668,0.33665 -1.35135,0.52606 -1.52148,0.42092 -0.88622,-0.54772 0.33431,-1.75493 1.7743,-1.75493 0.65675,0 1.73256,-0.40616 2.75735,-1.04101 l 1.68042,-1.04102 -1.32082,-0.0976 c -0.77361,-0.0572 -1.73758,0.1179 -2.32677,0.42259 -1.88717,0.97589 -4.16673,0.52664 -3.20538,-0.63171 0.28173,-0.33946 0.98138,-0.49404 2.23608,-0.49404 1.78525,0 1.86715,-0.0401 3.66452,-1.79495 1.01114,-0.98722 1.77083,-1.86257 1.68818,-1.94522 -0.0827,-0.0827 -0.70432,0.004 -1.38148,0.19161 -0.67716,0.18802 -1.87984,0.34726 -2.67261,0.35384 -0.79277,0.007 -1.72119,0.2236 -2.06317,0.48225 -0.71868,0.54359 -2.2872,0.62592 -2.59002,0.13595 -0.4144,-0.67051 0.55714,-1.26722 2.06323,-1.26722 1.3597,0 1.62544,-0.1348 2.92366,-1.48314 l 1.42802,-1.48312 -1.12109,0.22175 c -0.61661,0.12197 -1.91387,0.3048 -2.88281,0.40629 -0.96894,0.10149 -2.15094,0.38083 -2.62667,0.62075 -1.24987,0.63034 -2.17801,0.55995 -2.17801,-0.16519 0,-0.96384 0.81371,-1.41938 2.10325,-1.17746 0.94819,0.17788 1.35522,0.0638 2.32577,-0.65206 1.48562,-1.09572 4.2194,-3.7115 4.2194,-4.03728 0,-0.13542 -0.91284,0.25555 -2.02855,0.86881 -1.1157,0.61327 -2.40807,1.11504 -2.87194,1.11504 -0.46386,0 -1.33756,0.23565 -1.94154,0.52367 -1.35484,0.64608 -2.76732,0.38308 -2.76732,-0.51526 0,-0.64583 1.21465,-1.01757 2.86287,-0.87618 0.5983,0.0513 0.99942,-0.25578 1.71575,-1.31361 1.02362,-1.5116 0.98827,-1.9214 -0.11483,-1.33105 -0.42277,0.22627 -1.2707,0.3072 -2.07022,0.19762 -1.09079,-0.14951 -1.46491,-0.0633 -1.92352,0.44351 -0.66879,0.739 -1.7513,0.83545 -1.7513,0.15603 0,-0.2602 0.36035,-0.70919 0.80078,-0.99778 0.44043,-0.28857 0.80078,-0.62913 0.80078,-0.75677 0,-0.12765 -1.29286,-1.61936 -2.87302,-3.3149 -3.24466,-3.48158 -6.23112,-7.79564 -7.75972,-11.2092 -1.32839,-2.96646 -1.61675,-6.77302 -0.6467,-8.53676 0.81396,-1.47992 3.66634,-3.44725 5.83468,-4.02425 1.86593,-0.49653 6.20371,-0.57 8.70917,-0.14751 z m -9.63133,1.03476 c -1.04723,0.38602 -2.32307,1.21631 -3.25474,2.11811 -1.27545,1.23456 -1.57105,1.74485 -1.76319,3.04377 -0.23828,1.61087 0.28268,4.83728 0.83631,5.17944 0.16421,0.10149 0.29856,-0.26356 0.29856,-0.81122 0,-2.93806 2.46562,-4.1455 8.48826,-4.1568 6.14803,-0.0115 8.77961,0.92903 15.85544,5.66702 2.71757,1.81969 4.93005,3.62883 6.8867,5.63125 1.58555,1.62262 3.87715,3.88604 5.09245,5.02981 6.52924,6.14497 10.41087,17.16503 8.32308,23.62949 -0.4984,1.54322 -0.49039,1.68715 0.21149,3.80044 0.40122,1.20807 0.93816,2.69751 1.19318,3.30988 l 0.46368,1.11338 0.64141,-0.7921 c 1.91295,-2.36239 4.11257,-8.26161 4.13426,-11.08777 0.017,-2.21783 -0.59592,-3.78342 -2.86921,-7.32856 -0.67961,-1.05985 -2.57617,-4.37508 -4.21456,-7.36718 -5.19564,-9.48851 -8.13908,-13.9222 -11.37422,-17.133 -5.1933,-5.15421 -8.1898,-7.06804 -13.93356,-8.89919 -6.43712,-2.05221 -11.20147,-2.35262 -15.01534,-0.94677 z m -0.96669,6.50384 c -1.43606,0.42647 -1.75496,0.66933 -2.16385,1.64795 -0.53141,1.27184 -0.34921,3.81691 0.37319,5.21308 l 0.41125,0.7948 0.3475,-1.29053 c 0.59728,-2.21813 2.58482,-3.63237 6.06788,-4.31762 2.49868,-0.49159 9.18231,-0.23233 11.34645,0.44012 0.83681,0.26002 1.52148,0.42185 1.52148,0.35963 0,-0.33357 -4.27403,-2.43113 -5.77645,-2.8349 -2.47462,-0.66505 -9.90434,-0.67272 -12.12745,-0.0125 z m 4.28254,2.72501 c -3.1134,0.60692 -4.95323,2.4533 -4.95553,4.97319 -0.002,1.73657 1.56587,4.13364 5.37217,8.21553 1.60064,1.71653 2.99722,3.39498 3.10351,3.72989 0.32991,1.03944 2.2822,1.07826 4.3356,0.0862 1.35245,-0.65341 1.74287,-0.99996 1.6806,-1.49176 -0.22516,-1.77833 -0.12251,-2.51225 0.4617,-3.301 1.10973,-1.49826 2.23465,-2.12139 6.82643,-3.78142 0.34995,-0.12652 0.0671,-0.52414 -1.04102,-1.46373 -1.73024,-1.46703 -1.88873,-2.21944 -0.68553,-3.25438 l 0.83594,-0.71905 -0.8454,-1.0047 c -1.87631,-2.22988 -9.02077,-3.17157 -15.08847,-1.98878 z m 15.85367,2.04807 c 0.52893,0.63732 0.17563,1.98267 -0.63453,2.41625 -0.35027,0.18746 -0.63684,0.46764 -0.63684,0.62263 0,0.15498 0.7282,0.8616 1.61823,1.57025 1.61012,1.282 1.62912,1.28755 3.7869,1.10665 1.41646,-0.11875 2.4201,-0.0473 2.89356,0.20614 2.50332,1.33974 -0.67444,-2.10875 -4.24024,-4.60148 -2.81327,-1.96667 -3.65395,-2.36496 -2.78708,-1.32044 z m 4.21397,6.13786 c -0.55054,0.11011 -1.00098,0.2937 -1.00098,0.40799 0,0.1143 0.82881,0.8413 1.84179,1.61556 2.64528,2.02188 3.66042,3.31257 3.69987,4.70415 0.0256,0.90475 -0.16998,1.33646 -0.88385,1.9505 -1.06707,0.91786 -1.66466,0.87159 -4.49765,-0.34821 -2.30189,-0.99112 -5.50121,-1.09359 -8.0078,-0.25648 -1.33852,0.44702 -1.79724,0.82421 -2.79296,2.29658 -0.65527,0.96895 -1.19579,1.88784 -1.20116,2.04199 -0.0194,0.55451 2.06966,-0.15161 3.84037,-1.29812 1.48935,-0.96434 1.78167,-1.29934 1.66525,-1.90837 -0.10612,-0.55516 0.0615,-0.83107 0.6747,-1.11046 1.70844,-0.77841 2.45575,0.44533 0.98056,1.60571 -0.46042,0.36217 -1.24791,1.30621 -1.74995,2.09785 -0.50205,0.79165 -1.70323,2.05094 -2.66929,2.79842 -0.96606,0.74748 -1.70133,1.4142 -1.63394,1.4816 0.0674,0.0674 1.13305,-0.058 2.36812,-0.27877 2.17534,-0.38875 2.27866,-0.45018 3.3038,-1.96445 1.15486,-1.70588 2.26205,-2.23871 3.03849,-1.46227 0.7231,0.7231 0.0893,1.6299 -1.79564,2.56922 -0.87351,0.43528 -2.30805,1.53048 -3.18787,2.43375 l -1.59967,1.64232 1.18038,-0.005 c 2.0954,-0.009 3.86885,-0.7304 4.55108,-1.85222 0.70309,-1.15614 0.89397,-1.21686 1.77313,-0.56401 0.79967,0.59381 0.34658,1.43422 -1.03474,1.91927 -0.94938,0.33337 -4.93334,4.21534 -4.63365,4.51503 0.083,0.083 0.67736,0.15086 1.32087,0.15086 0.86735,0 1.61904,-0.33503 2.90589,-1.29514 1.95303,-1.45716 3.27277,-1.61232 3.44458,-0.40499 0.12044,0.84628 -1.09981,1.57319 -3.18935,1.89993 -1.29899,0.20312 -4.55126,1.76869 -4.92269,2.36968 -0.0905,0.14638 0.66626,0.3517 1.68163,0.45626 1.01536,0.10456 2.44724,0.30877 3.18195,0.45378 0.7955,0.15702 2.00132,0.12736 2.98106,-0.0733 1.8411,-0.37714 2.72996,-0.0669 2.72996,0.95294 0,0.66642 -0.70103,0.72914 -3.36327,0.30089 -1.14158,-0.18364 -1.77454,-0.0853 -3.04296,0.47261 l -1.60156,0.70447 1.28125,0.44699 c 0.70468,0.24584 1.56953,0.78569 1.92187,1.19966 0.91282,1.07249 2.42997,1.53025 3.20163,0.966 0.76858,-0.562 2.94478,-0.54705 5.60694,0.0385 2.94597,0.648 5.64622,0.5933 7.27788,-0.14741 l 1.35211,-0.6138 -1.13884,-2.5022 c -1.95103,-4.2867 -3.64443,-7.35741 -4.76353,-8.63787 -0.95711,-1.09514 -1.12963,-1.1783 -1.55801,-0.75104 -0.26495,0.26426 -0.67254,1.27324 -0.90575,2.24219 -0.34468,1.4321 -0.5601,1.78103 -1.15139,1.86494 -2.068,0.2935 -2.55697,-7.22121 -0.70596,-10.84949 0.94334,-1.8491 1.62861,-2.09343 3.3959,-1.2108 3.01828,1.5074 4.32301,4.05779 7.59187,14.83987 l 0.77689,2.56249 0.4072,-0.96093 c 0.6512,-1.5367 0.50382,-6.03687 -0.29825,-9.10749 -1.25628,-4.80948 -4.37511,-10.44145 -7.28839,-13.16135 -0.90379,-0.8438 -1.06362,-0.91974 -0.65908,-0.31315 1.44344,2.16435 2.50806,4.21149 2.37557,4.56796 -0.0815,0.21926 -0.30544,-1.1e-4 -0.50042,-0.49021 -0.3405,-0.85582 -2.93316,-4.77777 -4.11356,-6.22262 -0.71448,-0.87455 -4.19072,-2.98012 -4.92011,-2.98012 -0.29664,0 -0.98979,0.0901 -1.54032,0.2002 z m -6.34463,1.97328 c -2.77563,1.27101 -4.2091,2.89726 -3.77088,4.27801 0.1968,0.62003 0.2576,0.60264 1.17561,-0.33632 0.53244,-0.5446 1.1717,-0.99018 1.42059,-0.99018 0.61475,0 0.87071,0.78213 0.48974,1.49645 -0.29023,0.54418 -0.12781,0.58703 2.29759,0.60616 2.17867,0.0172 2.88601,0.16273 4.2809,0.88086 2.07036,1.06588 3.39992,1.11428 4.07646,0.14838 0.27425,-0.39154 0.49863,-1.03976 0.49863,-1.44048 0,-0.91853 -1.85194,-2.99547 -4.25253,-4.76918 l -1.85019,-1.36704 -1.57159,0.46671 c -0.86438,0.2567 -2.12183,0.71868 -2.79433,1.02663 z m -2.18546,4.23472 c -0.31984,0.35342 -0.51366,0.71046 -0.4307,0.79341 0.21201,0.21202 1.55357,-0.7671 1.55357,-1.13385 0,-0.49671 -0.50336,-0.3441 -1.12287,0.34044 z m 1.7635,2.9156 c 0,0.57035 1.10759,0.14993 1.22609,-0.4654 0.0962,-0.49968 0.0163,-0.53202 -0.55687,-0.22529 -0.36807,0.19699 -0.66922,0.5078 -0.66922,0.69069 z m -11.05076,0.92618 c -0.10888,0.17617 -0.0538,0.32031 0.12235,0.32031 0.17617,0 0.40939,-0.14414 0.51827,-0.32031 0.10888,-0.17617 0.0538,-0.32031 -0.12234,-0.32031 -0.17618,0 -0.4094,0.14414 -0.51828,0.32031 z m 23.59073,1.62403 c -0.93933,1.00825 -1.48921,3.36543 -1.48921,6.38377 0,4.41774 1.36314,6.33688 1.91013,2.68924 0.19711,-1.31443 1.0768,-2.70594 1.69337,-2.67859 1.06529,0.0473 3.18341,3.17214 5.59938,8.26082 1.66745,3.51209 1.96894,3.96557 2.31855,3.48746 0.33477,-0.45783 0.13913,-1.41833 -1.17203,-5.75386 -2.37152,-7.84188 -3.94632,-10.85576 -6.50566,-12.4507 -1.22549,-0.76371 -1.59443,-0.75401 -2.35453,0.0619 z m -11.04498,1.97423 c -0.35822,0.48159 -0.57579,0.95114 -0.48349,1.04344 0.23539,0.23539 2.27232,-1.18696 2.44283,-1.70577 0.25534,-0.77691 -1.2731,-0.26024 -1.95934,0.66233 z m -11.42466,-0.39514 c 0,0.17617 0.43242,0.32031 0.96094,0.32031 0.52851,0 0.96093,-0.14414 0.96093,-0.32031 0,-0.17617 -0.43242,-0.32031 -0.96093,-0.32031 -0.52852,0 -0.96094,0.14414 -0.96094,0.32031 z m 0.80078,3.52343 c -0.10888,0.17617 0.0903,0.32031 0.44266,0.32031 0.35235,0 0.72971,-0.14414 0.83859,-0.32031 0.10888,-0.17617 -0.0903,-0.32031 -0.44266,-0.32031 -0.35235,0 -0.72971,0.14414 -0.83859,0.32031 z m 12.332,1.00015 c 0,0.35485 0.35358,0.35166 0.9219,-0.008 0.24278,-0.15378 0.33806,-0.44685 0.21172,-0.65127 -0.17406,-0.28162 -0.33922,-0.2808 -0.68166,0.003 -0.24857,0.20629 -0.45196,0.50157 -0.45196,0.65617 z m -9.69552,2.09276 c 0.21686,0.0877 0.64928,0.0931 0.96093,0.0119 0.31166,-0.0812 0.13422,-0.15299 -0.39429,-0.15952 -0.52851,-0.006 -0.7835,0.0599 -0.56664,0.14766 z m 10.43409,2.18211 c -0.4943,0.43487 -0.71391,0.79522 -0.48804,0.80079 0.70512,0.0174 2.63228,-0.90128 2.63228,-1.25478 0,-0.61088 -1.2298,-0.35049 -2.14424,0.45399 z m -9.20063,1.32565 c -0.27867,0.10693 -0.50667,0.32314 -0.50667,0.48046 0,0.33237 0.98921,0.37801 1.76238,0.0813 0.4256,-0.16331 0.4471,-0.25952 0.10628,-0.47556 -0.51546,-0.32675 -0.70406,-0.33869 -1.36199,-0.0862 z m 0.29411,3.329 c -0.25054,0.40539 0.17349,0.40539 0.80078,0 0.41407,-0.26759 0.40561,-0.31118 -0.0612,-0.31541 -0.2979,-0.003 -0.63073,0.13924 -0.73961,0.31541 z m 11.42495,0.32521 c -0.46204,0.004 -0.46934,0.0469 -0.0539,0.31541 0.61144,0.39515 2.24219,0.41456 2.24219,0.0267 0,-0.38346 -0.68612,-0.65278 -1.22737,-0.48178 -0.23462,0.0741 -0.66704,0.13699 -0.96094,0.13968 z m -10.14882,2.53052 c 0.58595,0.22885 1.76684,0.11494 1.76684,-0.17044 0,-0.0675 -0.54053,-0.11267 -1.20117,-0.10028 -0.91495,0.0171 -1.04974,0.0817 -0.56567,0.27072 z m 24.14356,2.58254 c -1.67289,0.75909 -3.7852,0.809 -6.84148,0.16163 -2.31195,-0.48971 -4.86198,-0.61723 -5.72446,-0.28627 -0.39086,0.14999 -0.41658,0.30875 -0.12555,0.77477 0.47121,0.75452 -0.15661,1.60175 -1.01969,1.37605 -0.50536,-0.13216 -0.65872,0.12619 -0.9727,1.63859 -0.43833,2.11147 -0.0788,3.62974 1.02245,4.31747 0.38993,0.24352 2.27121,0.62286 4.18062,0.84298 3.70438,0.42704 4.34337,0.73288 5.26836,2.52162 0.298,0.57626 0.41322,1.35218 0.30231,2.03567 -0.1346,0.82942 -0.005,1.34046 0.5213,2.05202 0.67651,0.91503 0.68164,0.98046 0.1494,1.90784 l -0.55115,0.96032 0.94081,-0.66991 c 2.35901,-1.67978 4.75072,-5.28832 5.83358,-8.80155 0.61408,-1.99232 0.64571,-2.42295 0.30069,-4.09335 -0.34106,-1.65128 -1.59289,-5.37147 -1.80747,-5.37147 -0.0444,0 -0.70906,0.28511 -1.47702,0.63359 z m -21.97302,0.54827 c -0.6866,0.25959 -0.97649,0.69596 -2.99127,4.50294 -1.17323,2.21684 -1.7384,4.77177 -1.30405,5.8951 0.31477,0.81406 2.3989,1.87111 2.8331,1.43691 0.0989,-0.0989 0.0141,-0.83783 -0.18839,-1.64209 -0.44358,-1.7616 -0.13166,-6.41085 0.46323,-6.90456 0.62894,-0.52198 1.41887,0.87096 1.45623,2.56788 0.0663,3.01348 0.48516,3.14384 0.72943,0.22704 0.27353,-3.26607 0.38436,-3.64659 1.18726,-4.07629 0.94488,-0.50569 1.48768,0.74375 1.88298,4.33429 0.44682,4.05852 0.87999,5.48824 1.91115,6.30797 0.73873,0.58726 1.07133,0.62918 3.22598,0.4066 3.28601,-0.33946 6.3898,-0.34982 7.44725,-0.0249 0.81876,0.2516 0.88077,0.20614 0.87966,-0.6449 -7.7e-4,-0.50357 -0.27415,-1.3632 -0.60776,-1.91029 -0.67608,-1.10874 -2.44569,-1.72795 -4.93815,-1.72795 -2.24709,0 -3.371,-0.33631 -4.43002,-1.32559 -0.95343,-0.89064 -0.98025,-0.99099 -0.8232,-3.08071 0.0893,-1.18805 0.25365,-2.44838 0.36525,-2.80072 0.14293,-0.45124 -0.0769,-0.9359 -0.74375,-1.63945 l -0.94667,-0.99885 -2.34543,0.41315 c -1.29,0.22724 -2.66826,0.53521 -3.06283,0.68438 z m 6.96054,-0.0643 c 0.21771,0.26232 0.52599,0.3965 0.68507,0.29818 0.40887,-0.25269 0.0179,-0.77512 -0.58011,-0.77512 -0.40718,0 -0.4268,0.0892 -0.10496,0.47694 z m 1.28418,0.64415 c 0,0.26425 0.14414,0.48046 0.32031,0.48046 0.17617,0 0.32031,-0.21621 0.32031,-0.48046 0,-0.26426 -0.14414,-0.48046 -0.32031,-0.48046 -0.17617,0 -0.32031,0.2162 -0.32031,0.48046 z m -10.73045,-0.16016 c -0.10888,0.17617 -0.0453,0.32031 0.14125,0.32031 0.18657,0 0.33922,-0.14414 0.33922,-0.32031 0,-0.17616 -0.0636,-0.3203 -0.14126,-0.3203 -0.0777,0 -0.23033,0.14414 -0.33921,0.3203 z m 4.36266,2.64257 c -0.14631,0.39639 -0.3591,1.97294 -0.47288,3.50346 -0.11377,1.53051 -0.3186,3.11606 -0.45517,3.52343 -0.13657,0.40737 -0.17245,1.46137 -0.0797,2.34223 0.16172,1.5366 0.23352,1.63663 1.77012,2.4659 2.5981,1.40218 6.17117,2.41704 9.36912,2.66111 l 2.96289,0.22615 -2e-5,-0.91486 c -1e-5,-0.6633 0.33028,-1.19382 1.20117,-1.92934 l 1.20118,-1.01447 -0.96093,-0.37622 c -0.64857,-0.25391 -1.89803,-0.30434 -3.84374,-0.15514 -5.34658,0.41001 -6.11653,0.37401 -6.89747,-0.3225 -1.10729,-0.98759 -1.57144,-2.43078 -2.0673,-6.428 -0.25089,-2.0225 -0.5431,-3.81793 -0.64936,-3.98986 -0.32613,-0.52769 -0.79848,-0.34885 -1.07787,0.40811 z m -3.16059,4.68044 c 0.0817,3.26267 0.43564,4.32875 1.151,3.4668 0.27836,-0.33541 0.28654,-1.28115 0.0325,-3.75687 -0.18675,-1.81974 -0.42345,-3.4444 -0.52601,-3.61036 -0.45167,-0.73081 -0.73183,0.93122 -0.65748,3.90043 z m 1.13621,4.9129 c 0.29895,0.29896 0.38437,0.21354 0.38437,-0.38437 0,-0.59792 -0.0854,-0.68333 -0.38437,-0.38438 -0.29896,0.29896 -0.29896,0.4698 0,0.76875 z m 16.70015,2.60178 c -0.98732,0.87044 -1.29332,1.56846 -0.93896,2.14184 0.2172,0.35143 0.47655,0.34431 1.49185,-0.041 1.31802,-0.50014 1.76943,-1.52017 1.05416,-2.382 -0.50024,-0.60277 -0.63028,-0.58002 -1.60705,0.28112 z m 8.57631,10.13796 c -5.13537,1.09323 -8.02331,2.14459 -10.57044,3.84821 -2.38552,1.59554 -6.69819,5.81596 -7.73279,7.5674 -0.31006,0.5249 -1.01852,1.27465 -1.57436,1.66611 -2.31866,1.633 -2.17799,0.52001 -1.33929,10.59662 0.41444,4.97931 0.83148,9.13124 0.92675,9.22651 0.0953,0.0953 1.11762,-0.50068 2.27189,-1.32435 1.81731,-1.29681 2.0548,-1.57952 1.7715,-2.10887 -0.24975,-0.46667 -0.65899,-0.60464 -1.72957,-0.58316 -1.62639,0.0326 -2.1111,-0.19044 -2.1111,-0.97164 0,-1.16473 2.17571,-2.71241 10.33482,-7.35163 8.0357,-4.56905 10.04143,-6.05843 16.20675,-12.03458 1.47309,-1.42789 2.51926,-2.28347 2.3248,-1.90127 -0.40673,0.79943 -5.96461,6.02759 -8.93819,8.40795 -1.10725,0.88636 -3.34142,2.39199 -4.96483,3.34586 -1.62341,0.95388 -5.04169,2.96134 -7.59618,4.46103 -5.35531,3.144 -7.47845,4.82867 -6.72655,5.33737 0.26426,0.17878 1.08489,0.32727 1.82363,0.32997 0.97178,0.004 1.46599,0.18026 1.78739,0.63912 0.42464,0.60626 0.73257,0.43294 6.98494,-3.93144 15.05502,-10.50894 15.58291,-10.92979 20.1101,-16.0322 3.26066,-3.67496 4.25296,-5.25333 3.97381,-6.32081 -0.20858,-0.79759 -1.32076,-0.3469 -3.71995,1.50747 -1.02961,0.79581 -1.94204,1.37691 -2.0276,1.29134 -0.2157,-0.21569 3.02977,-2.74826 4.30002,-3.35548 0.57256,-0.2737 1.04102,-0.5881 1.04102,-0.69868 0,-0.36269 -1.74423,-1.87831 -2.5625,-2.22664 -1.24028,-0.52798 -8.63548,-0.15665 -12.26407,0.61579 z m 8.77676,12.57791 c -2.18431,2.25774 -4.72444,4.21098 -13.12153,10.08982 -5.72706,4.00956 -10.76502,7.65045 -11.19546,8.09088 -0.43044,0.44043 -1.6464,1.68637 -2.70213,2.76875 l -1.91951,1.96797 0.2324,3.55741 c 0.12781,1.95658 0.348,3.55741 0.48931,3.55741 0.68453,0 6.85187,-7.36409 11.26681,-13.4531 3.63253,-5.00991 5.07469,-6.10533 5.69302,-4.32421 0.37225,1.07228 -0.51394,6.59159 -1.42252,8.85966 -0.5024,1.25414 -0.81226,2.57403 -0.75197,3.20312 0.0893,0.9318 0.23975,0.67697 1.16497,-1.97295 0.58434,-1.67363 1.33472,-4.05195 1.66749,-5.28515 0.63336,-2.34714 2.6955,-6.5938 4.08914,-8.42095 0.44905,-0.58874 1.40471,-1.36481 2.12368,-1.72461 3.52307,-1.76307 7.90475,-6.54177 9.78782,-10.67471 1.5678,-3.44097 1.43344,-3.67746 -0.71635,-1.26087 -1.08708,1.22199 -3.19541,3.48168 -4.68517,5.02153 z m -6.92282,10.17291 c -0.10888,0.17617 -0.0538,0.32031 0.12235,0.32031 0.17617,0 0.40939,-0.14414 0.51827,-0.32031 0.10888,-0.17618 0.0538,-0.32032 -0.12235,-0.32032 -0.17617,0 -0.40939,0.14414 -0.51827,0.32032 z m -1.30527,3.12571 c 0.32534,0.32534 0.91443,-0.47936 0.65647,-0.89675 -0.17661,-0.28577 -0.32188,-0.24419 -0.54598,0.15627 -0.16794,0.30009 -0.21766,0.63331 -0.11049,0.74048 z m -5.3188,-0.32299 c -0.44998,0.48448 -2.16726,2.75469 -3.81616,5.04492 -3.15502,4.38214 -7.08815,9.24549 -9.48677,11.73045 -1.02794,1.06495 -1.39879,1.69202 -1.3213,2.23417 0.0987,0.69056 0.30609,0.56655 2.47601,-1.48048 1.30256,-1.22879 3.77854,-4.05014 5.50218,-6.26967 2.11783,-2.72712 3.46525,-4.17276 4.15591,-4.45884 1.2615,-0.52253 1.98885,-0.14829 2.25726,1.16143 0.20624,1.00634 0.26713,0.9272 1.07004,-1.39066 0.5646,-1.62988 1.25163,-6.38514 1.01254,-7.0082 -0.26479,-0.69003 -0.95426,-0.52719 -1.84971,0.43688 z m 4.06157,2.96289 c 0.15498,0.25075 0.33924,0.26936 0.55278,0.0558 0.17617,-0.17617 0.2157,-0.48957 0.0879,-0.69644 -0.15498,-0.25076 -0.33924,-0.26936 -0.55278,-0.0558 -0.17617,0.17617 -0.2157,0.48957 -0.0879,0.69644 z m -1.06103,3.50341 c -0.0801,0.24023 0.04,0.36035 0.28027,0.28027 0.23123,-0.0771 0.48347,-0.32932 0.56055,-0.56054 0.0801,-0.24024 -0.04,-0.36036 -0.28027,-0.28028 -0.23123,0.0771 -0.48348,0.32933 -0.56055,0.56055 z m -18.63238,2.18212 c -0.009,0.60727 0.37747,0.47136 1.43565,-0.50522 1.83506,-1.69355 1.93398,-2.0914 0.24599,-0.98933 -0.92174,0.60179 -1.67847,1.27434 -1.68164,1.49455 z m 12.60888,-0.95381 c -0.37307,0.30439 -1.72396,1.92276 -3.00198,3.59639 -1.27803,1.67363 -3.69343,4.43295 -5.36757,6.13182 -1.6809,1.70574 -2.94819,3.24371 -2.83017,3.43467 0.38382,0.62103 4.37192,1.64442 6.40824,1.64442 1.73409,0 2.15624,-0.12773 3.28213,-0.99305 1.27695,-0.98143 1.29636,-1.0279 1.65791,-3.96983 0.24559,-1.99847 0.68225,-3.68206 1.32864,-5.12274 0.95602,-2.13079 1.13166,-3.1853 0.76093,-4.56865 -0.23451,-0.87509 -1.26663,-0.94566 -2.23813,-0.15303 z m -18.08406,4.08148 c -6.72284,4.18535 -9.45254,4.88876 -12.35982,3.18499 l -1.38946,-0.81428 0.002,0.7342 c 0.003,1.17407 2.62512,6.66591 4.41809,9.25149 2.29522,3.31062 5.19137,6.4266 7.12746,7.66898 1.74376,1.11897 7.31411,3.18495 8.60026,3.18974 l 0.76902,0.003 -0.20485,-2.96289 c -0.30777,-4.45162 -0.87831,-10.62258 -0.99268,-10.73695 -0.0555,-0.0555 -1.30795,0.76673 -2.78321,1.8272 -2.5124,1.80602 -6.10019,3.42622 -6.72793,3.03825 -0.63766,-0.39409 -0.19414,-1.12533 1.07537,-1.77298 1.27815,-0.65207 3.40799,-2.1576 5.50752,-3.89314 l 0.93568,-0.77346 -0.88754,-1.16361 c -1.81233,-2.37609 -1.59471,-4.48859 0.74868,-7.26771 1.09969,-1.30416 1.68036,-2.56029 1.18354,-2.56029 -0.0698,0 -2.32979,1.37142 -5.02219,3.0476 z m 22.44594,-0.7865 c 0,0.16577 0.14414,0.30141 0.32031,0.30141 0.17618,0 0.32032,-0.22472 0.32032,-0.49938 0,-0.27465 -0.14414,-0.41028 -0.32032,-0.3014 -0.17617,0.10888 -0.32031,0.3336 -0.32031,0.49937 z m -19.68934,2.72829 c -0.64621,1.36178 -0.61844,2.15212 0.12692,3.61315 0.95624,1.87439 1.38744,2.10174 2.24828,1.18541 0.66719,-0.71019 0.71022,-0.96859 0.51933,-3.11903 -0.11447,-1.28959 -0.29251,-2.91831 -0.39565,-3.61939 l -0.18752,-1.2747 -0.91054,1.09068 c -0.50079,0.59987 -1.13116,1.55561 -1.40082,2.12388 z m 17.26832,2.85826 c -0.14945,0.64063 -0.1174,0.85417 0.0961,0.64063 0.17617,-0.17618 0.42119,-0.75274 0.54449,-1.28125 0.14945,-0.64062 0.11741,-0.85417 -0.0961,-0.64062 -0.17617,0.17617 -0.42119,0.75273 -0.54449,1.28124 z m -14.6249,3.422 c 0.20848,0.20847 0.4569,0.30117 0.55207,0.206 0.0952,-0.0952 0.0784,-0.41956 -0.0372,-0.72088 -0.14898,-0.38823 -0.30982,-0.44825 -0.55207,-0.206 -0.24224,0.24225 -0.23141,0.45227 0.0372,0.72088 z m 14.80811,-8e-5 -1.68264,0.69927 0.14919,2.32463 c 0.2296,3.57769 1.8449,5.56635 1.85412,2.28268 0.006,-2.15067 0.56013,-3.2832 1.60629,-3.2832 1.16458,0 1.54748,1.79062 0.88888,4.15683 -0.5289,1.90018 -0.46228,2.03674 0.62276,1.27675 2.23336,-1.56431 1.2789,-8.15623 -1.18095,-8.15623 -0.31627,0 -1.33221,0.31467 -2.25765,0.69927 z m -17.2364,1.23962 c -0.8112,0.71405 -2.29978,1.83113 -3.30794,2.48242 -3.09066,1.99658 -3.12894,2.02796 -2.20216,1.80553 1.43209,-0.34371 3.96047,-1.70524 6.00276,-3.23248 1.57091,-1.17474 1.92255,-1.58671 1.64242,-1.92424 -0.48799,-0.58799 -0.47333,-0.59396 -2.13508,0.86877 z m 12.42736,1.47175 c -1.40984,0.64109 -4.30403,0.4222 -6.76002,-0.51126 -0.95053,-0.36128 -1.80584,-0.65694 -1.90069,-0.65703 -0.22677,-2.1e-4 0.86681,13.0216 1.12922,13.44619 0.29958,0.48473 2.96601,0.39654 5.14193,-0.17007 2.28367,-0.59466 4.35842,-1.73455 5.99307,-3.29265 1.50595,-1.43543 1.65626,-3.10424 0.4127,-4.58212 -0.90809,-1.07921 -1.44936,-2.77904 -1.45193,-4.55972 -0.002,-1.22917 -0.008,-1.23553 -0.72248,-0.71169 -0.39639,0.29071 -1.2252,0.75796 -1.8418,1.03835 z m 6.13058,0.0327 c -0.16401,0.3083 -0.34924,1.55517 -0.41165,2.77083 -0.12804,2.49416 0.32919,3.09493 1.14898,1.50963 0.49494,-0.95712 0.69622,-4.21696 0.28571,-4.62747 -0.35945,-0.35945 -0.71059,-0.24035 -1.02304,0.34701 z m -0.68528,6.02475 c 0,0.27465 0.1465,0.40883 0.32554,0.29818 0.17904,-0.11066 0.2426,-0.33537 0.14125,-0.49937 -0.27458,-0.44429 -0.46679,-0.36145 -0.46679,0.20119 z m 29.19548,32.79458 c -0.7683,-0.62965 -1.55046,-1.21821 -2.33881,-1.76134 -2.02948,-1.39102 -4.07255,-2.46218 -6.14252,-3.23653 -1.44132,-0.53382 -2.8952,-0.93136 -4.3672,-1.20408 -1.46654,-0.27434 -2.92622,-0.41616 -4.37627,-0.44392 -2.89591,-0.0455 -5.70156,0.35387 -8.29014,0.99596 -2.57698,0.6392 -5.01641,1.5116 -7.20407,2.46064 -1.57909,0.68506 -3.01074,1.3992 -4.24623,2.07693 -1.22671,0.69138 -2.29757,1.36985 -3.18066,1.98633 -0.85692,0.61055 -1.52672,1.16152 -1.9919,1.61349 -0.46585,0.45268 -0.76815,0.83716 -0.88774,1.11248 -0.14028,0.32301 -0.043,0.50295 0.31524,0.46107 0.35627,-0.0394 0.94714,-0.28244 1.80649,-0.86805 -1.01689,0.48654 -2.10219,1.0528 -3.26369,1.70876 -1.63456,1.07358 -2.86618,1.52675 -3.73822,1.6179 -0.84249,0.0794 -1.35235,-0.19663 -1.59695,-0.66203 -0.28806,-0.43642 -0.27755,-1.07909 -0.0353,-1.80778 0.20601,-0.71729 0.63621,-1.53188 1.23952,-2.37287 0.5866,-0.81771 1.36173,-1.6867 2.29276,-2.56462 0.90953,-0.85128 1.99499,-1.74167 3.22935,-2.63547 1.17759,-0.86124 2.50786,-1.73614 3.959,-2.58794 1.47927,-0.85325 3.08068,-1.70209 4.77201,-2.50874 2.80513,-1.34679 6.17612,-2.68476 9.775,-3.64977 1.78398,-0.46523 3.62986,-0.83176 5.49445,-1.05354 1.89023,-0.22487 3.77386,-0.30288 5.62031,-0.1972 3.70643,0.24199 7.05419,1.2273 10.11319,3.06084 2.99838,1.81033 5.51329,4.34719 7.93227,7.43272 0,0 0,0 0,0 0.05,0.065 0.0999,0.13019 0.14974,0.19553 -0.002,0.0881 -0.002,0.17566 -0.004,0.26318 -0.5282,0.72101 -1.05345,1.45154 -1.56925,2.18017 -2.20961,3.13171 -4.3422,6.31187 -5.9928,8.86445 -1.00305,1.55994 -1.97126,3.04485 -2.81012,4.29867 -0.57234,0.86593 -1.10834,1.6655 -1.6041,2.37712 -1.25306,1.79688 -2.28228,3.00204 -3.32464,3.73019 -1.05407,0.72724 -2.13061,0.85398 -3.47127,0.75894 -0.56052,-0.0398 -1.11696,-0.11217 -1.61385,-0.20084 -0.49674,-0.0833 -0.95951,-0.17811 -1.36287,-0.29004 -0.42022,-0.11254 -0.77716,-0.23857 -1.06854,-0.39428 -0.30452,-0.1546 -0.54169,-0.32401 -0.71248,-0.51803 -0.2638,-0.2997 -0.36653,-0.62931 -0.31168,-0.99074 0.0548,-0.36147 0.28487,-0.69705 0.68305,-1.00519 2e-4,-1e-5 0.15577,-0.0191 0.15597,-0.0191 0.70495,0.23726 1.3961,0.37499 2.01581,0.41488 0.61732,0.0493 1.19472,0.0457 1.71981,-0.0199 1.07197,-0.13406 2.04909,-0.53087 3.02461,-1.32954 0.98282,-0.79192 1.98255,-1.88388 3.10304,-3.34488 0.56846,-0.74924 1.1691,-1.58141 1.80166,-2.48734 0.59984,-0.84728 1.22662,-1.76561 1.8807,-2.75302 1.18705,-1.81002 2.95859,-4.51548 4.42076,-6.70264 0,0 6.7e-4,-2.3e-4 6.7e-4,-2.3e-4 z m 10.23794,12.96619 c -0.025,0.49945 -0.0472,0.891 -0.062,1.29254 0,0 0,0 0,0 0,0 0,0 0,0 0,0 0,0 0,0 0.005,-0.0713 -0.0263,0.4317 -0.0218,0.3604 -0.0288,0.47907 -0.0443,0.84372 -0.0885,0.86009 -0.01,0.004 -0.0231,-0.0131 -0.0394,-0.0534 0.0388,-0.25682 0.21299,-0.44563 0.61963,-0.49521 0,0 0,0 0,0 0.065,0.007 0.12981,0.0123 0.1946,0.0204 0.31152,0.053 0.64169,0.1227 0.96545,0.25321 0.1988,0.0732 0.40977,0.13396 0.63518,0.18571 0.78996,0.1813 1.75959,0.27503 2.95012,0.53426 0.0873,0.79415 0.18641,1.70187 0.29141,2.63015 -1.37756,0.27551 -2.71321,0.91429 -3.6967,1.40346 -0.18639,0.095 -0.35737,0.17777 -0.51914,0.24459 -0.10896,0.0482 -0.21134,0.0876 -0.30769,0.11714 -0.14191,0.0275 -0.3145,-0.008 -0.54261,-0.12978 -0.30738,-0.0796 -0.58659,-0.11189 -0.84571,-0.0668 -0.48244,0.0541 -0.72486,0.0806 -1.09877,0.12681 -0.14803,0.0167 -0.28897,0.0291 -0.42307,0.0352 -0.79878,0.042 -1.35112,-0.0809 -1.7087,-0.38376 -0.2865,-0.2254 -0.47851,-0.55964 -0.59042,-0.99071 -0.0283,-0.10886 -0.0512,-0.22391 -0.0689,-0.34474 -0.10264,-0.58032 -0.11057,-1.28807 -0.0327,-2.08842 0.0782,-0.803 0.17317,-1.67566 0.27173,-2.60867 0.0261,-0.24735 0.0976,-0.8005 0.18004,-1.61287 0.07,-0.81487 0.14285,-1.82277 0.17925,-3.00236 0.0238,-1.2007 0.009,-2.43908 -0.0553,-3.94451 -0.069,-1.62186 -0.17431,-2.92227 -0.29994,-4.88423 -0.0682,-1.06638 -0.1306,-2.22891 -0.16005,-3.46388 -0.0405,-0.8533 -0.0648,-1.75022 -0.0634,-2.69486 0.003,-1.41649 0.0626,-2.91879 0.20426,-4.54056 0.0921,-1.04331 0.21761,-2.13142 0.38304,-3.27607 0.42336,-2.92697 1.09926,-6.09768 2.09764,-9.74262 0.97882,-3.66694 2.16151,-7.44031 3.56182,-11.75729 3.07867,-0.52433 5.92385,-0.68132 8.53502,-0.12077 0,0 0,0 0,0 0.95267,0.21067 1.8149,0.48057 2.53343,0.98845 0,0 0,0 0,0 0.37209,0.29925 0.70222,0.58288 0.8284,0.93104 0.008,0.089 0.007,0.17969 -0.006,0.27253 -0.002,0.13359 -0.0382,0.29235 -0.0964,0.4649 -3.7586,2.19414 -6.50986,5.14431 -8.46985,8.021 -1.75277,2.55569 -2.98932,5.16036 -3.8389,7.42499 -1.75924,4.76114 -2.23324,8.9902 -2.24514,12.28976 -0.003,0.86595 0.0244,1.69993 0.0732,2.50555 0.093,2.28746 0.35666,4.52974 0.54615,6.50161 0,0 8.7e-4,0.01 8.7e-4,0.01 0.27156,2.93996 0.4014,5.32179 0.23047,8.72768 0,0 -3e-5,3.2e-4 -3e-5,3.2e-4 z m 27.09148,-3.69015 c 0.17353,0.75328 0.37145,1.3888 0.58132,1.89726 0.20218,0.52892 0.46172,0.92457 0.76997,1.16543 0.30988,0.24214 0.67813,0.32628 1.10305,0.24565 0.43328,-0.0602 0.90909,-0.28736 1.49947,-0.63607 0.34118,-0.2016 0.87631,-0.53919 1.30774,-0.71798 0.47592,-0.1819 0.92237,-0.24564 1.30296,0.0126 0.1627,0.564 0.33828,1.12057 0.52918,1.66675 -0.59193,-0.61348 -1.96275,1.35197 -2.99986,2.48728 -1.2185,1.32964 -2.23674,2.07502 -3.20129,2.19196 -0.87893,0.10663 -1.56188,-0.36125 -2.07436,-1.03575 -0.51482,-0.65992 -0.91277,-1.56553 -1.21219,-2.50301 -0.30401,-0.93221 -0.53826,-1.94696 -0.71393,-2.93414 -0.17757,-0.99787 -0.33761,-2.06852 -0.48168,-3.21898 -0.0473,-0.37755 -0.17319,-1.43691 -0.32031,-3.00827 -0.16426,-1.71417 -0.29731,-3.43025 -0.46993,-5.81082 -0.16855,-2.28108 -0.34131,-4.69599 -0.58713,-7.33748 -0.28044,-3.01339 -0.51168,-4.87244 -0.87986,-8.02148 -0.31402,-2.62583 -0.67439,-5.6973 -0.68919,-8.65199 -0.0154,-3.06985 0.31884,-6.36968 1.51892,-10.04069 2.54471,-0.54967 4.42416,-0.87251 6.09048,-1.21887 -0.0394,-0.004 0.37509,0.0312 0.33576,0.028 -1.90811,4.65842 -2.60371,8.96714 -2.92779,12.59539 -0.33328,3.58608 -0.36024,7.46868 -0.32734,10.7917 0.0327,3.26783 0.15015,7.25732 0.36313,10.61643 0.2095,3.48338 0.58713,7.54883 1.48282,11.4368 0,0 5e-5,3e-4 5e-5,3e-4 z m 40.65957,-8.47741 1.65658,-0.008 q 0.17128,2.68753 0.2654,4.77711 0.0971,2.1563 0.0159,3.69689 -0.0802,1.56285 -0.50284,2.58425 -0.43932,1.02215 -1.32024,1.52961 -0.89761,0.50822 -2.40086,0.57593 -0.95205,0.0429 -2.19105,0.0318 -1.239,-0.011 -2.61163,-0.016 -1.37263,-0.005 -2.81206,-0.007 -1.45614,-0.001 -2.80906,0.0597 -2.27156,0.10233 -4.00864,0.18058 -1.73605,0.10115 -3.088,0.18359 -1.35188,0.0838 -2.36877,0.17354 -1.01687,0.0903 -1.84799,0.21693 -0.84783,0.12739 -1.56104,0.27085 -0.72891,0.16652 -1.47252,0.37818 -0.33201,-1.05423 -0.36305,-1.74335 -0.0661,-1.46717 0.83421,-2.28733 0.8836,-0.81943 2.7042,-0.90144 1.72037,-0.0775 4.07077,0.0839 2.33469,0.1844 5.26967,0.3195 -0.0981,-3.29225 -0.18279,-7.0306 -0.10141,-3.73757 -0.19813,-7.74269 -0.0957,-3.98286 -0.18376,-8.16655 -0.10373,-4.16069 -0.19178,-8.34438 -0.0871,-4.16145 -0.17107,-8.25623 -0.10072,-4.09401 -0.18945,-7.92129 l 3.9285,-0.84519 0.30265,0.0309 q 0.0576,4.2519 0.11595,8.14733 0.0593,3.91769 0.12832,7.67899 0.069,3.76135 0.15373,7.49969 0.0857,3.76057 0.21383,7.71968 0.12812,3.95917 0.28697,8.22874 0.15986,4.29183 0.37715,9.11568 0.95406,0.002 1.94052,-0.0206 0.98746,2e-5 2.00632,-0.0459 1.01887,-0.0459 1.90211,-0.13017 0.88324,-0.0843 1.60614,-0.38418 0.7229,-0.29987 1.28146,-0.90421 0.55956,-0.58206 0.91336,-1.64489 0.3548,-1.04064 0.49984,-2.65096 0.12833,-1.60953 0.0242,-3.92145 z m 11.8433,12.54192 q 0.1578,-5.22663 0.23862,-9.97961 0.0623,-4.7286 0.0555,-9.2425 -0.006,-4.49045 -0.10625,-8.90606 -0.11917,-4.39129 -0.32316,-8.9198 -0.15854,-3.51957 -0.35328,-6.09706 -0.19475,-2.57749 -0.62404,-4.25099 -0.44892,-1.6726 -1.21191,-2.46115 -0.78262,-0.78764 -2.09728,-0.72842 -0.78487,0.0354 -1.75751,0.26722 -0.97263,0.23185 -2.29799,0.92642 l -0.59366,-1.83069 q 1.02997,-0.70471 2.12411,-1.29476 1.09413,-0.59003 2.15535,-1.03755 1.04161,-0.4466 2.01319,-0.70197 0.97052,-0.27872 1.75539,-0.31407 1.47163,-0.0663 2.42556,0.59609 0.95393,0.66235 1.5408,1.90555 0.56724,1.24406 0.84272,2.99502 0.25587,1.75184 0.35099,3.86358 0.10464,2.32294 0.12279,4.90838 0.0181,2.58544 -0.0141,5.36125 l 0.19833,0.038 q 0.52537,-2.30428 1.30055,-4.73737 0.77622,-2.40963 1.81388,-4.68995 1.03765,-2.28033 2.34201,-4.31405 1.2858,-2.00936 2.86744,-3.56184 1.56202,-1.55158 3.42728,-2.48203 1.84564,-0.92955 4.00403,-1.02677 2.27612,-0.10253 3.99742,0.5723 1.721289,0.67483 2.997025,1.93401 1.276795,1.28265 2.144106,3.07748 0.867311,1.79482 1.415848,3.93315 0.549598,2.16184 0.835056,4.57065 0.285459,2.40881 0.398551,4.91945 0.121547,2.69833 0.09879,5.68532 -0.0217,3.01045 -0.102237,6.02356 -0.100172,3.01398 -0.248046,5.842 -0.147872,2.82804 -0.258018,5.18415 -0.129767,2.35699 -0.210641,4.05347 -0.08089,1.69646 -0.04706,2.44731 0.03594,0.79776 0.181139,1.40253 0.145204,0.60477 0.51637,0.98772 0.351537,0.38387 0.948646,0.54506 0.598166,0.18468 1.54001,0.14226 0.667139,-0.0301 1.52626,-0.16298 0.839508,-0.13184 1.910249,-0.3682 l 0.30568,1.98472 q -2.96408,0.97993 -4.98466,1.51767 -2.040203,0.53862 -3.394104,0.5996 -0.981087,0.0442 -1.640231,-0.18472 -0.658091,-0.20558 -1.054153,-0.70489 -0.415689,-0.49854 -0.608598,-1.28923 -0.191862,-0.76722 -0.240482,-1.84658 -0.02854,-0.63354 0.05235,-2.32998 0.08088,-1.69649 0.20853,-4.10039 0.127652,-2.40393 0.288806,-5.37362 0.142586,-2.94536 0.234304,-6.14707 0.09277,-3.17822 0.10389,-6.42332 0.01113,-3.24507 -0.123104,-6.22499 -0.0835,-1.85363 -0.247591,-3.75068 -0.183723,-1.89613 -0.536639,-3.6201 -0.352917,-1.72394 -0.931783,-3.22611 -0.578867,-1.5022 -1.453713,-2.59133 -0.87485,-1.08915 -2.10137,-1.69221 -1.24509,-0.5787 -2.91293,-0.50357 -1.9818,0.0893 -3.77869,1.2282 -1.79582,1.16243 -3.31919,3.13547 -1.54194,1.9974 -2.77641,4.70981 -1.25408,2.7133 -2.11211,5.92597 -0.85802,3.21271 -1.30564,6.80662 -0.46619,3.61826 -0.43443,7.37866 0.006,1.43394 0.0277,2.79662 0.002,1.36357 0.0266,2.77315 0.006,1.43395 0.0155,2.96174 0.01,1.52783 0.01,3.26767 7.9e-4,1.76333 -0.006,3.78564 -0.0268,2.02319 -0.0553,4.44616 0.004,0.51711 -0.21492,0.90313 -0.21749,0.40948 -0.55906,0.68348 -0.36118,0.27493 -0.8072,0.41256 -0.44495,0.16117 -0.91588,0.18239 -0.56903,0.0256 -1.26424,-0.1311 -0.69417,-0.13342 -1.33686,-0.43353 z m 61.641216,-57.13063 q -1.493143,-0.41127 -2.835347,-0.52712 -1.342209,-0.11591 -2.69611,-0.0549 -2.433098,0.1096 -4.518279,0.95913 -2.084051,0.87468 -3.560571,2.57836 -1.49501,1.7297 -2.262498,4.33336 -0.785978,2.62968 -0.624064,6.22416 0.150591,3.3431 1.166419,5.81607 1.016959,2.49807 2.819536,4.10442 1.782953,1.60723 4.331902,2.32358 2.550081,0.74149 5.76805,0.59654 0.627896,-0.0283 1.292772,-0.10857 0.646359,-0.0549 1.311264,-0.13457 -0.02983,-1.5351 -0.0638,-3.59892 -0.03284,-2.03866 -0.05966,-4.37988 -0.02682,-2.34119 -0.0408,-4.83409 -0.03361,-2.49199 -0.04306,-4.88437 -0.0095,-2.39235 -0.0087,-4.55848 7.38e-4,-2.16613 0.02299,-3.85468 z m 0.867629,51.99762 q -0.05391,-1.63472 -0.122291,-4.02444 -0.06719,-2.36455 -0.141927,-5.33328 -0.07361,-2.9436 -0.151374,-6.41589 -0.09738,-3.47145 -0.192136,-7.32083 -1.704831,0.12713 -3.359091,0.50393 -1.67275,0.40278 -3.15532,1.09924 -1.502189,0.69734 -2.751934,1.76115 -1.248613,1.08891 -2.125919,2.56408 -0.896925,1.47608 -1.34066,3.4103 -0.462226,1.96023 -0.351264,4.42357 0.13021,2.89066 0.945664,4.84371 0.815454,1.95306 2.145217,3.10215 1.310141,1.14996 3.041011,1.60094 1.711248,0.45182 3.653801,0.36432 0.941845,-0.0424 1.93802,-0.18817 0.976553,-0.14486 1.96821,-0.3909 z m 4.890296,-5.35844 q 0.04755,1.05569 0.218876,1.8036 0.171321,0.74789 0.546024,1.20958 0.355083,0.46254 0.973548,0.6614 0.618467,0.19885 1.560311,0.15642 1.295036,-0.0583 3.299091,-0.52643 l 0.296996,2.22828 q -1.766328,0.50776 -3.845475,1.05478 -2.079148,0.54702 -4.279424,1.02392 -2.219894,0.47782 -4.446583,0.8048 -2.245174,0.35313 -4.344702,0.4477 -1.707092,0.0769 -3.365511,-0.0751 -1.658419,-0.15202 -3.153827,-0.61356 -1.494278,-0.43645 -2.770078,-1.26053 -1.274667,-0.79893 -2.235014,-2.04023 -0.960345,-1.24129 -1.54977,-2.97783 -0.588291,-1.71142 -0.690196,-3.97369 -0.146061,-3.24254 0.661801,-5.82285 0.789375,-2.55427 2.254575,-4.50929 1.46633,-1.92993 3.429624,-3.3029 1.964429,-1.34785 4.16734,-2.20269 l -0.01019,-0.22627 q -2.955718,-0.14391 -5.491838,-1.01196 -2.536123,-0.86807 -4.442468,-2.59566 -1.906346,-1.72761 -3.046696,-4.34608 -1.159973,-2.61758 -1.324152,-6.26235 -0.138135,-3.06659 0.418042,-5.55998 0.536554,-2.49253 1.608186,-4.45501 1.07163,-1.96252 2.599851,-3.39145 1.508598,-1.42807 3.313414,-2.39091 1.804815,-0.96285 3.82736,-1.45696 2.021414,-0.51924 4.101321,-0.61293 1.726715,-0.0778 3.327403,0.10209 1.581068,0.18077 3.383627,0.47728 l 3.780577,-0.74962 0.355456,0.0343 q -0.105626,3.32946 -0.128607,7.18413 -0.0426,3.85558 0.0091,8.05949 0.0321,4.20482 0.113662,8.63408 0.08155,4.42927 0.224228,8.90618 0.124192,4.50289 0.303841,8.92774 0.16117,4.45089 0.350259,8.64863 z" />
          </g>
        </g>
      </g>
      <ellipse
         style="opacity:0.525806;fill:url(#linearGradient3756);fill-opacity:1;stroke:none;stroke-width:0.324066;stroke-opacity:1;filter:url(#filter3740)"
         id="path2962"
         cx="86.67141"
         cy="192.60556"
         rx="75.584793"
         ry="75.716324" />
    </g>
  </g>
</svg>
