<?xml version="1.0" encoding="UTF-8" standalone="no"?>
<svg
   xmlns:dc="http://purl.org/dc/elements/1.1/"
   xmlns:cc="http://creativecommons.org/ns#"
   xmlns:rdf="http://www.w3.org/1999/02/22-rdf-syntax-ns#"
   xmlns:svg="http://www.w3.org/2000/svg"
   xmlns="http://www.w3.org/2000/svg"
   version="1.1"
   id="svg10"
   width="35mm"
   height="23mm"
   viewBox="0 0 132.28348 86.929112">
  <metadata
     id="metadata16">
    <rdf:RDF>
      <cc:Work
         rdf:about="">
        <dc:format>image/svg+xml</dc:format>
        <dc:type
           rdf:resource="http://purl.org/dc/dcmitype/StillImage" />
        <dc:title></dc:title>
      </cc:Work>
    </rdf:RDF>
  </metadata>
  <defs
     id="defs14">
    <rect
       x="24.167166"
       y="501.46866"
       width="137.95422"
       height="47.327366"
       id="rect890" />
    <rect
       x="66.459702"
       y="429.97415"
       width="131.91245"
       height="52.36219"
       id="rect884" />
    <rect
       x="77.536324"
       y="404.80002"
       width="154.06567"
       height="44.306469"
       id="rect876" />
  </defs>
  <g
     id="g18">
    <g
       style="fill:none;stroke:#000000;stroke-width:0.249503;stroke-miterlimit:4;stroke-dasharray:none;stroke-opacity:1"
       id="g872"
       transform="matrix(0.98329953,0,0,0.98329953,389.58355,248.35333)">
      <path
         fill-rule="evenodd"
         clip-rule="evenodd"
         d="M 46.8291,5.13752 45.9327,8.70648 44.3131,8.68528 C 42.4788,8.66127 41.6387,9.25434 40.44,11.4186 40.0221,12.1733 39.419,12.9907 39.1001,13.2358 38.59,13.6273 38.5323,13.43 38.6228,11.6139 38.7138,9.78575 38.6271,9.49744 37.8732,9.1202 37.1148,8.74003 37.0863,8.64333 37.6165,8.23634 c 0.3277,-0.25137 1.1199,-1.06993 1.7612,-1.81921 0.993,-1.16004 1.0631,-1.36179 0.4745,-1.36055 -0.3892,10e-4 -1.3343,0.80968 -2.1637,1.85155 l -1.4726,1.85021 0.268,-1.24974 c 0.1477,-0.68735 0.3558,-1.53074 0.4624,-1.87381 0.1519,-0.48857 -0.037,-0.62675 -0.8677,-0.63655 -2.1719,-0.02592 -4.7461,2.23812 -4.1854,3.6806 0.3641,0.93647 0.897,0.64338 1.1682,-0.64212 0.241,-1.14124 1.1853,-2.29475 1.5711,-1.91874 0.1432,0.14009 -0.569,3.51524 -1.6253,7.70082 -0.1693,0.6703 -0.0441,0.8051 0.758,0.8156 1.0676,0.014 1.0946,-0.0319 1.7339,-2.9314 0.3085,-1.3999 0.6312,-2.05061 1.0136,-2.0456 0.4668,0.00611 0.5138,0.4156 0.2775,2.4342 -0.2295,1.9642 -0.1735,2.516 0.2956,2.8956 1.3277,1.0759 3.2127,-0.2723 5.274,-3.7719 0.5492,-0.9321 0.8797,-1.1118 2.0182,-1.0969 1.12,0.0147 1.3254,0.1284 1.1578,0.6418 -0.1123,0.343 -1.0511,5.0855 -2.0867,10.5382 -1.7183,9.0474 -1.9873,11.6872 -1.099,10.785 0.1753,-0.1781 1.1781,-4.8865 2.2282,-10.4626 1.0496,-5.5761 2.0003,-10.3571 2.1127,-10.6249 0.112,-0.2675 0.5248,-0.4823 0.917,-0.4771 0.6841,0.0089 0.7073,0.4532 0.5705,10.9049 l -0.1426,10.8953 -1.038,0.1357 c -0.8349,0.109 -0.7615,0.1497 0.3741,0.2076 1.3179,0.0673 1.4148,0.1499 1.4533,1.2364 0.0372,1.0511 0.0576,1.071 0.2084,0.204 0.0921,-0.5284 0.4547,-1.0285 0.8058,-1.1117 0.5802,-0.1374 0.5786,-0.156 -0.02,-0.2015 -0.6124,-0.0466 -0.648,-0.8356 -0.5078,-11.2378 L 49.4631,10.364 50.7756,9.57982 C 51.4975,9.14812 52.3496,8.32927 52.6694,7.75947 53.1972,6.81893 53.1931,6.70179 52.6258,6.48632 52.1999,6.32499 51.7103,6.59286 51.0895,7.32666 50.5882,7.91914 50.0212,8.40192 49.829,8.39941 49.6365,8.39689 49.4929,7.3677 49.5093,6.11253 49.5518,2.86718 49.2422,1.5884 48.4115,1.57753 47.8506,1.57019 47.5625,2.21811 46.8291,5.13752 Z M 48.3703,6.769 C 48.3464,8.59878 48.2189,9.09447 47.7748,9.08866 47.464,9.08459 47.2127,8.85178 47.2163,8.57146 47.225,7.90843 48.116,4.43822 48.2772,4.44033 48.345,4.44122 48.3871,5.48912 48.3703,6.769 Z M 13.7311,4.76483 c -2.6748,0.68042 -4.41439,3.29662 -2.7674,4.16179 0.5901,0.30993 0.6756,0.19576 0.6902,-0.9198 0.0156,-1.18644 1.1471,-2.59853 2.0728,-2.58642 0.1635,0.00214 -0.0372,1.16754 -0.4462,2.59017 -1.0185,3.54333 -1.0081,5.08173 0.0394,5.79873 1.1159,0.7644 2.4818,0.7325 3.9478,-0.0916 0.9133,-0.5133 1.3647,-1.1437 1.8231,-2.5463 C 19.426,10.1463 19.71,8.97414 19.7214,8.5668 19.7408,7.89209 19.776,7.88253 20.1185,8.45813 20.7161,9.46246 21.4177,9.20452 21.53,7.9395 21.6329,6.785 22.4517,5.89267 23.3965,5.90503 c 0.654,0.00856 0.6041,0.6843 -0.3166,4.29267 -0.9901,3.8804 -0.9943,4.2838 -0.0468,4.2962 0.9249,0.0122 1.1882,-0.586 2.1557,-4.8952 0.6026,-2.68551 0.8669,-3.30079 1.4139,-3.29363 0.7742,0.01013 0.814,0.16176 0.2836,1.07541 -0.4637,0.79851 -0.1436,1.79097 0.5805,1.80045 0.3255,0.00426 0.5298,-0.37978 0.5381,-1.01166 0.0074,-0.56387 0.3535,-1.3034 0.7753,-1.65667 0.7368,-0.61698 0.7612,-0.61558 0.7447,0.04376 -0.0094,0.37514 -0.3714,2.11921 -0.8043,3.87594 -0.433,1.7568 -0.7899,3.4039 -0.7932,3.6599 -0.0105,0.8001 1.4959,0.542 1.8531,-0.3174 0.3334,-0.8024 2.0226,-7.91765 2.0309,-8.55419 0.0027,-0.19869 -1.985,-0.31422 -4.8562,-0.28198 -4.1424,0.04604 -4.9791,0.15361 -5.6615,0.72583 -0.7955,0.66705 -0.8007,0.6652 -0.788,-0.30393 0.0105,-0.80445 -0.1348,-0.9571 -0.8296,-0.87202 -0.7224,0.08866 -0.9434,0.51044 -1.5524,2.95882 -0.3905,1.5704 -0.801,3.22077 -0.9123,3.66727 -0.2765,1.1117 -1.567,2.2378 -2.2618,1.9738 -0.7739,-0.2938 -0.6973,-1.8851 0.247,-5.14227 1.1389,-3.92816 1.1737,-3.85287 -1.4655,-3.1813 z M 3.84019,5.13524 C 2.00032,6.0536 1.07466,8.8355 2.60232,8.8555 2.92706,8.85975 3.13216,8.47679 3.14035,7.85064 3.16649,5.85331 6.7755,4.2101 7.78759,5.73475 8.28754,6.48823 7.83506,8.06712 7.03977,8.34532 6.17104,8.64941 6.1068,8.49066 6.54114,7.1167 6.99042,5.69568 6.88703,5.53391 5.7004,5.80053 4.90414,5.97953 4.70857,6.41203 3.93637,9.70475 2.86289,14.2808 2.8628,14.2299 3.94629,14.2441 4.73969,14.2545 4.89719,13.9959 5.408,11.8463 5.87857,9.86409 6.12178,9.41897 6.77961,9.33699 7.74089,9.21673 8.17615,10.2483 7.80398,11.7663 7.52852,12.8906 6.81722,13.3153 5.83414,12.9422 5.35047,12.7586 5.263,12.8488 5.45219,13.3357 5.58743,13.6834 5.697,14.035 5.69592,14.1174 5.69484,14.1997 6.1905,14.2735 6.79741,14.2814 9.22433,14.3132 10.9043,10.6671 9.1689,9.1348 8.53081,8.57144 8.50934,8.42722 8.99565,7.97704 9.76001,7.26983 9.70975,5.95649 8.89101,5.23358 8.03577,4.47831 5.26399,4.42449 3.84019,5.13524 Z M 43.785,33.2319 c -0.5739,0.2865 -1.0441,0.6001 -1.0453,0.6975 -0.0013,0.097 0.4666,-0.0408 1.0402,-0.3069 0.5735,-0.2661 1.298,-0.5702 1.6102,-0.6761 0.5045,-0.171 0.5048,-0.1946 0.0028,-0.2137 -0.3107,-0.0116 -1.0341,0.2127 -1.6079,0.4992 z m -2.2963,0.7796 c -0.1732,0.774 -0.6371,1.3548 -1.4016,1.7551 -0.6283,0.3295 -1.1454,0.7395 -1.1491,0.911 -0.0034,0.1718 0.2224,0.1368 0.5017,-0.0776 0.4092,-0.3141 0.4987,-0.1296 0.4586,0.9466 -0.078,2.1062 0.7247,2.0706 1.4693,-0.0652 0.2047,-0.5878 0.3012,-0.6159 0.5885,-0.1714 0.4214,0.6515 0.44,2.8603 0.0241,2.8549 -0.1658,-0.0022 -0.2664,0.6009 -0.2237,1.3398 0.0427,0.7393 -0.0078,1.0609 -0.1126,0.7147 -0.1047,-0.3462 -0.3436,-0.6312 -0.5312,-0.6336 -0.1877,-0.0025 -0.1512,0.4055 0.0812,0.9063 0.4628,0.9986 1.0327,0.6104 1.0607,-0.722 0.0082,-0.3995 0.3039,-1.1071 0.6566,-1.5726 0.3528,-0.4659 0.441,-0.733 0.1962,-0.5933 -0.2973,0.1694 -0.4413,-0.057 -0.4331,-0.6803 0.0067,-0.5134 -0.2522,-1.4348 -0.575,-2.0474 -0.4213,-0.799 -0.483,-1.3262 -0.2178,-1.8652 0.2032,-0.413 0.2566,-1.0673 0.1181,-1.4536 -0.2098,-0.5861 -0.2944,-0.5109 -0.5109,0.4538 z m 9.5464,-0.5314 c 0.3083,0.1948 0.7301,0.3565 0.9373,0.3592 0.2072,0.0027 0.1245,-0.1545 -0.1838,-0.3494 -0.3083,-0.1949 -0.7301,-0.3565 -0.9373,-0.3592 -0.2072,-0.0027 -0.1245,0.1545 0.1838,0.3494 z m 2.4364,0.9736 c 0.205,0.1752 1.043,0.8905 1.8625,1.5902 l 1.4898,1.2717 -1.1139,-1.2091 c -0.6126,-0.6651 -1.4506,-1.3804 -1.8624,-1.5899 -0.4117,-0.2095 -0.5809,-0.2378 -0.376,-0.0629 z m -12.4824,2.9232 c -0.3622,1.5389 -0.9597,2.105 -0.9439,0.8942 0.0156,-1.1875 0.3782,-2.0654 0.8507,-2.0592 0.2151,0.0028 0.2536,0.4839 0.0932,1.165 z m -2.4009,0.9744 c -0.0888,1.6667 0.6238,2.6106 1.8223,2.4128 0.8882,-0.1462 0.8845,-0.1545 -0.1053,-0.2144 -1.0388,-0.0626 -1.1615,-0.2712 -1.5123,-2.575 -0.0989,-0.6504 -0.1553,-0.547 -0.2047,0.3766 z m 18.6045,-8e-4 c 0.3496,0.5213 0.7065,0.9485 0.7935,0.9496 0.2728,0.0036 -0.5866,-1.3876 -1.018,-1.6486 -0.2258,-0.1369 -0.1248,0.1778 0.2245,0.699 z M 51.5783,39.2199 49.439,40.2697 49.4059,39.46 c -0.0248,-0.6066 -0.0785,-0.6531 -0.2135,-0.1854 -0.0994,0.3435 -0.4648,0.623 -0.8122,0.6213 -0.535,-0.0023 -0.5477,0.0494 -0.0831,0.337 0.4339,0.2688 -0.2224,1.0426 -3.1497,3.7131 -2.0337,1.8554 -3.8897,3.3708 -4.1237,3.3677 -0.4411,-0.0057 -0.3074,-1.6994 0.2399,-3.0404 0.2414,-0.5913 0.2143,-0.622 -0.1593,-0.1811 -0.3658,0.4324 -0.4062,0.3524 -0.2167,-0.4286 0.1279,-0.5279 0.0641,-1.0619 -0.1423,-1.1867 -0.2064,-0.1248 -0.3796,0.0985 -0.3848,0.4962 -0.0052,0.3978 -0.357,1.023 -0.782,1.3891 -0.4413,0.3806 -0.6791,0.9049 -0.5555,1.2234 0.125,0.3214 -0.1216,0.8489 -0.5815,1.2457 -0.4513,0.389 -0.7055,0.926 -0.5852,1.2359 0.1243,0.3203 -0.0426,0.6372 -0.4026,0.7631 -0.4149,0.1454 -0.5406,0.4506 -0.3857,0.9364 0.168,0.5257 0.0596,0.7187 -0.4004,0.7127 -0.3895,-0.0051 -0.5548,0.1868 -0.4324,0.5017 0.109,0.2807 -0.0466,0.5959 -0.3456,0.7005 -0.299,0.1046 -0.5472,0.4368 -0.5511,0.7386 -0.004,0.3015 -0.1374,0.5063 -0.2961,0.4548 -0.343,-0.1108 -0.9399,0.3254 -3.9699,2.8993 -1.2539,1.0653 -2.4643,2.254 -2.6891,2.6417 -0.2251,0.3874 0.5913,-0.2962 1.8146,-1.5188 1.2229,-1.2229 2.8795,-2.5311 3.6813,-2.9069 1.8729,-0.8779 3.3424,-2.7761 4.9109,-6.3434 0.6902,-1.569 1.3317,-2.8515 1.4259,-2.8502 0.0941,0.0012 0.0617,0.317 -0.0725,0.7016 -0.2749,0.7881 0.342,2.1665 0.973,2.1747 0.228,0.003 2.0214,-1.4534 3.9856,-3.2363 1.9642,-1.7833 3.5685,-3.0388 3.5652,-2.7903 -0.0062,0.4725 -9.1422,9.5865 -9.6041,9.5804 -0.1462,-0.0019 -0.3343,-0.3667 -0.4182,-0.8111 -0.1311,-0.6924 -0.1619,-0.6674 -0.2171,0.1762 -0.098,1.5058 0.8218,1.2364 2.8755,-0.8421 4.0736,-4.124 7.1177,-6.9941 7.413,-6.9903 0.1722,0.0023 0.3027,0.796 0.2901,1.7637 -0.0214,1.6358 -0.1434,1.8576 -1.7304,3.1502 -0.9392,0.7651 -3.8024,2.5402 -6.3631,3.9454 -6.2742,3.4423 -8.5126,4.8629 -11.0612,7.0184 -1.1849,1.0025 -2.1675,1.6854 -2.183,1.5176 -0.0156,-0.1674 -0.1791,0.1516 -0.3631,0.7096 -0.4124,1.2503 0.0251,2.4821 1.1571,3.2571 0.6505,0.4453 1.6635,0.58 4.2557,0.5652 l 3.4016,-0.0192 -3.6588,-0.2527 c -2.8099,-0.194 -3.8125,-0.403 -4.3214,-0.9009 -0.5413,-0.5299 -0.5681,-0.7021 -0.1452,-0.9433 0.3964,-0.2261 0.4083,-0.3312 0.05,-0.4498 -0.9349,-0.3098 0.1067,-1.7359 2.8637,-3.9209 3.3708,-2.6715 14.3643,-8.8608 15.185,-8.5493 0.3183,0.1209 0.5356,0.041 0.4888,-0.1791 -0.0465,-0.2183 0.4708,-0.7042 1.149,-1.0795 l 1.2336,-0.6821 -0.0932,4.9551 -0.0927,4.9552 -2.7328,2.2111 c -1.5028,1.2161 -3.0748,2.453 -3.4931,2.7491 -0.7177,0.5076 -0.7072,0.5142 0.1869,0.1138 0.5211,-0.2335 1.9913,-1.3508 3.2673,-2.4835 1.276,-1.1327 2.4324,-2.0578 2.5703,-2.056 0.1379,0.0018 0.2125,2.9064 0.1661,6.4546 l -0.0845,6.4516 -1.4824,-0.743 c -0.8153,-0.4085 -1.6166,-0.737 -1.7802,-0.7298 -0.164,0.0068 0.5241,0.4323 1.5284,0.9453 l 1.8265,0.933 -0.2392,2.3834 c -0.2188,2.185 -0.2008,2.2747 0.2199,1.076 0.6991,-1.9921 1.0268,-2.0154 1.0692,-0.0751 l 0.0384,1.7611 0.2469,-1.9662 c 0.1897,-1.5096 0.1171,-2.0648 -0.3127,-2.3917 -0.4559,-0.3464 -0.5641,-1.7211 -0.5845,-7.4236 l -0.0248,-6.9984 4.0978,-1.9111 c 2.2539,-1.0512 3.9676,-1.921 3.8088,-1.9332 -0.1592,-0.0124 -1.992,0.7624 -4.0731,1.7217 l -3.7841,1.744 0.0656,-5.0114 0.0656,-5.0114 3.3173,-1.5539 c 1.8248,-0.8545 3.1871,-1.5635 3.0283,-1.5753 -0.1593,-0.0121 -2.0348,0.7784 -4.1678,1.7563 l -3.8787,1.7786 1.5244,-1.3121 c 0.8384,-0.7216 1.2253,-1.1173 0.8593,-0.8789 -0.61,0.3973 -0.6629,0.2677 -0.639,-1.5588 0.0361,-2.7621 0.9316,-3.2631 1.5517,-0.8684 0.2952,1.1389 0.3031,1.1433 0.1968,0.1103 -0.0609,-0.5916 -0.2303,-1.3501 -0.3766,-1.6853 -0.2082,-0.4776 0.1946,-0.8493 1.8532,-1.711 2.0505,-1.0653 2.6728,-1.7414 1.6153,-1.7552 -0.2818,-0.0037 -1.4748,0.4659 -2.6512,1.0431 z m 0.7197,0.5429 c -2.3904,1.3269 -2.4934,1.3649 -2.4877,0.9271 0.0042,-0.3169 3.7067,-2.1644 4.3211,-2.1563 0.205,0.0026 -0.6199,0.5558 -1.8334,1.2292 z m -8.4663,-0.5165 c 0.0857,0.0735 0.9824,0.2288 1.9933,0.3455 1.1234,0.13 1.6368,0.0877 1.3202,-0.1084 -0.4848,-0.3007 -3.6507,-0.5269 -3.3135,-0.2371 z m 15.0426,2.0997 c 0.4123,0.9471 0.8841,2.291 1.048,2.986 0.1956,0.8272 0.3152,0.9903 0.3469,0.4722 0.0562,-0.927 -1.2984,-4.668 -1.8005,-4.9717 -0.1895,-0.1149 -0.007,0.5663 0.4056,1.5135 z m -1.5621,2.9304 c 0.7306,0.146 1.5751,0.3923 1.8768,0.5473 0.3017,0.1547 0.2228,0.0237 -0.1752,-0.2916 -0.3983,-0.3153 -1.2428,-0.5612 -1.8768,-0.547 -1.1469,0.0258 -1.1458,0.0276 0.1752,0.2913 z m -0.1056,1.7034 c 0.2703,0.107 0.5956,0.0983 0.7222,-0.0189 0.1266,-0.1172 -0.0945,-0.2046 -0.4918,-0.1944 -0.4391,0.0114 -0.5295,0.0951 -0.2304,0.2133 z m -4.2724,0.7425 c -0.8337,0.3572 -1.8584,0.9182 -2.2771,1.2464 -0.4367,0.3423 -0.1429,0.267 0.6896,-0.1765 0.7979,-0.4256 2.1616,-0.9746 3.0303,-1.2207 0.8687,-0.2457 1.2404,-0.4582 0.8261,-0.4726 -0.4143,-0.0144 -1.4353,0.2663 -2.2689,0.6234 z m 6.2232,-0.4628 c -0.001,0.0773 0.2599,0.2401 0.5801,0.3617 0.3337,0.1265 0.4855,0.0683 0.3563,-0.136 -0.2167,-0.3434 -0.9326,-0.5157 -0.9364,-0.2257 z m -19.9452,1.4237 c -0.2396,0.6271 -0.4257,1.3178 -0.4143,1.5346 0.0119,0.2172 0.2729,-0.2327 0.5798,-0.9993 0.3074,-0.7665 0.4935,-1.4569 0.4142,-1.5346 -0.0796,-0.0773 -0.3406,0.3722 -0.5797,0.9993 z m 17.1845,0.7849 c 0.2579,0.1029 0.6817,0.1085 0.9418,0.0124 0.2605,-0.0958 0.0495,-0.1799 -0.4685,-0.1866 -0.518,-0.0068 -0.7308,0.0717 -0.4733,0.1742 z m 3.7635,0.3461 c 1.5373,0.6586 1.5863,1.7277 0.1464,3.2081 l -1.0504,1.0801 1.2382,-1.0354 c 0.7002,-0.5859 1.2427,-1.3863 1.2487,-1.8431 0.0111,-0.8506 -1.25,-1.9489 -2.2253,-1.938 -0.3165,0.0037 -0.0272,0.2413 0.6424,0.5283 z M 49.699,49.1965 c -0.0024,0.1855 0.1619,0.4375 0.3653,0.5605 0.2116,0.1281 0.2768,-0.0146 0.1525,-0.3349 -0.2424,-0.6234 -0.5111,-0.7404 -0.5178,-0.2256 z m 3.0112,0.2396 c -0.7286,0.2558 -1.0706,0.4737 -0.7599,0.4838 0.3107,0.0102 1.0765,-0.1961 1.7016,-0.4586 1.4632,-0.6139 0.7868,-0.6321 -0.9417,-0.0252 z m -4.9727,0.7849 c 0.3794,0.2353 0.2423,0.4927 -0.5794,1.0878 -0.5923,0.4284 -0.8207,0.6657 -0.508,0.5265 1.6145,-0.7172 2.2652,-1.9215 1.0391,-1.9225 -0.3071,0 -0.2918,0.0972 0.0483,0.3082 z m 10.3614,3.2441 c -0.7093,0.5256 -0.7048,0.5321 0.1142,0.168 0.4692,-0.2087 0.8537,-0.4544 0.8549,-0.5456 0.0036,-0.2739 -0.1929,-0.1974 -0.9691,0.3776 z M 37.341,56.0579 c -0.7092,0.5257 -0.7048,0.5322 0.1143,0.168 0.4688,-0.2087 0.8537,-0.4543 0.8549,-0.5456 0.0036,-0.2739 -0.193,-0.1973 -0.9692,0.3776 z m -2.462,1.5852 -1.3187,1.0827 1.4254,-0.9449 c 1.2596,-0.8346 1.6708,-1.2145 1.3204,-1.2191 -0.0595,-8e-4 -0.7019,0.4857 -1.4271,1.0813 z m -2.4945,1.8214 -0.7282,0.7962 0.8565,-0.6709 c 0.8048,-0.6305 1.0313,-0.9157 0.7299,-0.9197 -0.0716,-9e-4 -0.4576,0.3564 -0.8582,0.7944 z m -3.0299,2.218 c -0.7092,0.5257 -0.7048,0.5322 0.1143,0.168 0.4688,-0.2087 0.8537,-0.4543 0.8549,-0.5456 0.0036,-0.2739 -0.193,-0.1973 -0.9692,0.3776 z m 9.5298,2.319 c 0.2703,0.107 0.5956,0.0984 0.7222,-0.0188 0.1266,-0.1173 -0.0945,-0.2047 -0.4918,-0.1945 -0.4391,0.0115 -0.5295,0.0952 -0.2304,0.2133 z m -2.0933,0.3342 c 0.3653,0.0958 0.874,0.0964 1.1303,0.0016 0.2564,-0.0948 -0.0425,-0.1728 -0.6642,-0.1738 -0.6217,-9e-4 -0.8315,0.0765 -0.4661,0.1722 z m 0.8241,5.5813 c -1.1047,1.0265 -1.1708,1.1273 -0.2103,0.3192 l 1.4047,-1.1812 0.235,1.5607 c 0.3928,2.6072 0.5096,2.7824 2.159,3.2298 3.3635,0.9123 3.6369,1.0895 3.6206,2.3422 -0.0104,0.7937 -0.2887,1.3533 -0.8708,1.7521 -0.4703,0.3226 -0.6159,0.4764 -0.3229,0.3424 0.3677,-0.1685 0.4389,-0.1045 0.231,0.2064 -0.2072,0.3095 -0.8464,0.3807 -2.0396,0.2275 -0.9558,-0.1228 -2.4996,-0.3224 -3.4306,-0.4437 -1.3993,-0.1824 -1.3021,-0.1263 0.561,0.3228 1.2395,0.2987 2.9919,0.563 3.8944,0.5877 1.1639,0.0313 1.9539,0.3016 2.7185,0.9297 0.9994,0.8208 1.024,0.901 0.3391,1.0979 -0.4063,0.1168 -1.36,0.0932 -2.1192,-0.0524 -1.0859,-0.2083 -1.345,-0.1587 -1.2145,0.2337 0.1026,0.3085 0.8478,0.5489 1.9597,0.6322 1.1922,0.089 1.7137,0.0056 1.5531,-0.2482 -0.1329,-0.2105 -0.1042,-0.3878 0.0635,-0.3942 0.1678,-0.0064 1.0225,-0.1337 1.8998,-0.283 1.034,-0.1763 1.5121,-0.1482 1.3596,0.0797 -0.1296,0.1935 -0.0287,0.289 0.224,0.2128 1.1829,-0.358 0.3924,-0.8485 -1.5646,-0.9712 -2.3462,-0.1471 -2.91,-0.6919 -0.9302,-0.8991 1.0629,-0.111 1.0132,-0.1386 -0.3741,-0.2065 -0.8804,-0.043 -1.5981,-0.249 -1.5954,-0.4574 0.0027,-0.2083 -0.1655,-0.2821 -0.3735,-0.1635 -0.2517,0.1436 -0.2486,-0.0974 0.0094,-0.7181 0.5384,-1.2967 0.5067,-2.8726 -0.0671,-3.3374 -0.2647,-0.2147 -1.3127,-0.5786 -2.329,-0.8089 -2.0918,-0.4743 -2.8137,-0.9349 -2.8025,-1.7884 0.0066,-0.5084 0.4098,-0.5657 2.9256,-0.4161 3.0158,0.1791 3.8346,0.4953 3.8724,1.4948 0.0151,0.4023 0.085,0.4387 0.2256,0.1175 0.1119,-0.256 -0.0907,-0.7825 -0.4496,-1.1696 -0.5247,-0.5651 -1.1569,-0.7105 -3.2097,-0.7374 -2.6534,-0.0347 -3.3646,-0.3641 -2.3944,-1.1087 0.3117,-0.2394 0.5707,-0.7377 0.5756,-1.1072 0.0162,-1.2448 -1.7657,-0.8398 -3.5336,0.8031 z m 3.082,-0.5007 c -0.1681,0.7756 -1.4502,1.0513 -1.4405,0.3099 0.0065,-0.4919 0.5017,-0.8471 1.264,-0.9066 0.1709,-0.0131 0.2503,0.255 0.1765,0.5967 z m 1.3072,-0.3574 c 0.3654,0.0957 0.8741,0.0963 1.1304,0.0015 0.2563,-0.0947 -0.0426,-0.1727 -0.6643,-0.1737 -0.6217,-0.001 -0.8314,0.0765 -0.4661,0.1722 z m 2.084,0.3818 c 0.2703,0.107 0.5956,0.0983 0.7222,-0.0189 0.1266,-0.1172 -0.0945,-0.2046 -0.4918,-0.1944 -0.4391,0.0114 -0.5295,0.0951 -0.2304,0.2133 z m -8.956,3.1293 c -0.7085,1.2465 -0.8761,2.8811 -0.4639,4.5236 0.2321,0.9239 0.3216,1.7727 0.1991,1.886 -0.122,0.1134 -0.41,-0.541 -0.6392,-1.4542 -0.4587,-1.829 -0.9983,-2.0892 -1.8074,-0.873 -0.525,0.7891 -0.522,0.7909 0.26,0.1477 0.7839,-0.6447 0.795,-0.6363 1.2183,0.9111 0.3211,1.1747 0.3171,1.9395 -0.0162,3.0831 -0.4979,1.7101 -0.5447,3.7533 -0.1161,5.096 0.1737,0.5436 0.2267,-0.0221 0.1348,-1.4305 -0.0839,-1.2812 0.0187,-2.7301 0.2282,-3.2197 l 0.3806,-0.8902 0.3874,1.2583 c 0.3709,1.2034 0.3814,1.1799 0.2339,-0.534 l -0.154,-1.7924 1.6338,3.3336 c 1.7084,3.4859 2.5138,4.1052 3.1978,2.4588 0.966,-2.3259 1.5478,0.3525 0.6866,3.1618 -0.2287,0.7464 -0.6693,1.446 -0.9793,1.5544 C 38.734,90.0641 37.237,88.5929 36.7189,87.04 36.481,86.3272 36.214,85.9413 36.1253,86.1818 c -0.2457,0.6664 1.3484,3.2073 2.3371,3.7266 0.7017,0.3683 0.9899,0.3717 1.4528,0.0161 1.1449,-0.8787 1.8274,-4.921 1.0281,-6.0887 -0.3213,-0.469 -0.4474,-0.4495 -0.9383,0.1456 -0.312,0.3783 -0.5698,0.8985 -0.5732,1.1562 -0.0163,1.2498 -1.1511,0.1991 -2.1347,-1.9762 -1.5691,-3.4698 -1.7242,-4.0863 -1.1186,-4.4403 0.4044,-0.2364 0.3774,-0.3041 -0.1262,-0.315 -0.4182,-0.0091 -0.7718,-0.4828 -1.0162,-1.3614 -0.4732,-1.701 -0.4523,-2.1132 0.1898,-3.7573 0.5497,-1.4072 0.5028,-1.7662 -0.0935,-0.7174 z m 16.2195,1.1039 c 0.2545,0.534 0.5276,0.8001 0.6061,0.5913 0.0785,-0.2088 -0.1298,-0.6459 -0.4632,-0.9711 -0.5603,-0.5466 -0.5712,-0.5177 -0.1429,0.3798 z m -4.4845,2.0038 c 0.0077,1.4886 0.1468,1.9713 0.5699,1.9769 0.3081,0.004 0.5818,-0.2341 0.6086,-0.5292 0.0278,-0.3083 -0.0214,-0.3472 -0.1156,-0.091 -0.3731,1.0138 -0.8308,0.3164 -0.9479,-1.4447 L 46.857,73.7082 Z m 3.8945,0.7317 c -0.369,0.7217 -1.0237,1.6624 -1.4551,2.091 l -0.7845,0.7797 0.9565,0.0125 c 0.5259,0.0069 0.9586,-0.1486 0.9612,-0.3455 0.0026,-0.1969 -0.1671,-0.3603 -0.3773,-0.363 -0.2102,-0.0028 0.0693,-0.6357 0.6213,-1.4063 0.5519,-0.7708 0.9457,-1.5541 0.8758,-1.7405 -0.0703,-0.1868 -0.429,0.2507 -0.7979,0.9721 z m -1.8007,0.3699 c -0.0026,0.1969 0.175,0.3604 0.3943,0.3633 0.2192,0.0028 0.2963,-0.1573 0.1708,-0.3559 -0.1255,-0.1986 -0.3027,-0.362 -0.3943,-0.3632 -0.0915,-0.0012 -0.1682,0.1589 -0.1708,0.3558 z M 30.8633,79.016 c -0.4233,0.7643 -0.8676,2.0877 -0.9876,2.9412 l -0.2186,1.5518 0.5208,-1.7835 c 0.2864,-0.9809 0.8165,-2.3035 1.1779,-2.9387 0.3617,-0.6351 0.572,-1.1562 0.4673,-1.1576 -0.1048,-0.0013 -0.5368,0.6229 -0.9598,1.3868 z m 13.0345,2.5682 c -0.1266,0.1173 -0.4519,0.1259 -0.7222,0.0189 -0.2991,-0.1182 -0.2087,-0.2018 0.2304,-0.2133 0.3973,-0.0102 0.6184,0.0772 0.4918,0.1944 z m 3.3886,0.8017 c 0.465,0.0888 0.8437,0.3143 0.8412,0.5016 -0.0024,0.1883 0.4588,0.2423 1.0347,0.1213 1.8397,-0.387 1.6261,-0.6544 -0.5747,-0.7201 -1.1808,-0.0351 -1.7661,0.0088 -1.3012,0.0972 z m -11.915,1.1979 c -0.0111,0.3938 0.121,1.04 0.294,1.4361 0.4006,0.9176 0.4129,-0.0236 0.0164,-1.253 -0.2332,-0.7228 -0.2938,-0.7586 -0.3104,-0.1831 z m 10.2312,0.0938 c -1.8016,0.4369 -2.1943,0.7007 -1.8521,1.2426 0.1595,0.252 0.7559,0.1413 1.7507,-0.3247 0.8299,-0.3891 1.682,-0.6025 1.894,-0.4744 0.4901,0.2968 -0.632,1.4752 -2.0428,2.1457 -0.5737,0.2728 -1.0455,0.653 -1.048,0.8449 -0.007,0.5359 0.976,0.4263 1.5094,-0.1686 0.2619,-0.292 0.9846,-0.5242 1.6062,-0.5161 0.9852,0.0129 1.066,0.0863 0.6309,0.5715 -0.2746,0.3062 -1.1504,0.8619 -1.9462,1.235 -1.4736,0.6911 -1.775,1.1444 -1.0516,1.5821 0.2224,0.1347 0.8715,-0.1698 1.4426,-0.6761 0.5897,-0.523 1.4732,-0.9149 2.0451,-0.9074 0.9821,0.0128 0.965,0.0491 -0.6944,1.4647 -0.9359,0.798 -1.608,1.5992 -1.494,1.7797 0.1141,0.1806 0.0681,0.2967 -0.1025,0.2583 -0.1701,-0.0384 -0.6232,0.0552 -1.0068,0.2077 -0.4371,0.1741 -1.1786,0.0519 -1.9868,-0.3271 -0.7089,-0.3326 -1.4955,-0.604 -1.7476,-0.603 -0.855,0.0035 2.802,1.4611 3.6952,1.4728 0.506,0.0066 1.0591,0.3261 1.2869,0.743 0.2197,0.4021 0.5644,0.6373 0.7659,0.5224 0.202,-0.1148 0.2726,-0.3584 0.1571,-0.5411 -0.1152,-0.1823 0.0595,-0.2298 0.388,-0.1048 1.3419,0.5091 -0.7872,2.2179 -3.091,2.481 -1.3792,0.1574 -1.5983,0.0554 -2.9036,-1.3542 -0.9872,-1.066 -1.3483,-1.7436 -1.2011,-2.2526 0.1464,-0.5058 0.089,-0.6158 -0.1871,-0.3602 -0.6007,0.5561 -0.0621,1.7527 1.4221,3.1589 1.213,1.1495 1.2579,1.2608 0.5018,1.2509 -1.455,-0.0191 -2.9805,-1.0692 -3.9808,-2.7398 -0.9687,-1.6176 -1.4408,-2.1089 -1.0431,-1.0857 0.1155,0.2969 0.1237,0.5387 0.0186,0.5373 -0.2962,-0.0039 -1.7488,-2.5272 -2.4928,-4.3294 -0.3678,-0.8911 -0.6811,-1.3639 -0.6965,-1.0511 -0.0702,1.4217 2.3497,5.0397 5.698,8.5196 3.2505,3.3783 7.4862,6.6816 8.5381,6.6586 0.2356,-0.005 -0.1611,-0.327 -0.8814,-0.716 l -1.3095,-0.706 1.8816,0.183 1.8816,0.182 -1.6909,-0.363 c -0.9299,-0.201 -2.0699,-0.561 -2.5329,-0.801 -0.8701,-0.4521 -1.1181,-1.5396 -0.439,-1.9264 0.2392,-0.1362 0.1067,-0.6041 -0.3468,-1.2263 L 44.2139,96.1586 45.734,95.747 c 1.8608,-0.5034 2.9986,-1.5005 3.0135,-2.64 0.0119,-0.9108 0.6374,-1.2832 2.1213,-1.2638 1.2444,0.0163 5.3611,5.3546 5.3406,6.9255 -0.0081,0.6183 0.1451,0.9734 0.3657,0.8477 0.2319,-0.132 0.3713,0.4166 0.3583,1.4086 -0.0189,1.446 -0.1282,1.65 -0.9906,1.844 -0.5332,0.119 -2.3551,0.123 -4.0484,0.008 -1.6937,-0.116 -2.7428,-0.08 -2.3316,0.078 1.1128,0.43 6.1486,0.466 6.9928,0.05 0.4035,-0.199 0.7648,-0.717 0.8029,-1.153 0.0385,-0.436 0.1754,0.015 0.3046,1.001 l 0.235,1.794 0.0712,-1.611 c 0.0952,-2.148 -1.1804,-5.1069 -3.5425,-8.2179 -1.7572,-2.3143 -2.4151,-3.671 -1.516,-3.1272 0.2056,0.1244 0.3758,0.0755 0.3782,-0.1089 0.0025,-0.1855 -0.7539,-0.2641 -1.6933,-0.1758 -1.8867,0.1773 -2.2128,-0.2696 -0.8428,-1.1554 0.9542,-0.6174 1.5923,-0.7139 1.2398,-0.1872 -0.1368,0.2041 0.0211,0.2613 0.3781,0.1364 0.3963,-0.1388 0.4852,-0.3392 0.2519,-0.5667 -0.2336,-0.228 -1.0612,-0.2195 -2.3413,0.0241 -1.0894,0.2074 -2.0542,0.3047 -2.1446,0.2168 -0.2787,-0.2718 1.7573,-1.3484 2.9625,-1.5661 0.6282,-0.1138 1.0934,-0.3684 1.0342,-0.5661 -0.0596,-0.1977 -0.2732,-0.3098 -0.4749,-0.2487 -0.2016,0.0611 -1.2205,0.1814 -2.2643,0.2676 l -1.8977,0.1567 0.9515,-0.7244 c 0.5233,-0.3982 1.3328,-0.7231 1.7992,-0.7213 0.4665,0.0018 0.8497,-0.1425 0.852,-0.3208 0.0024,-0.1804 -1.0408,-0.2481 -2.353,-0.1529 -2.1102,0.1532 -2.3052,0.1131 -1.8616,-0.3835 0.673,-0.7531 3.0346,-1.7502 3.4915,-1.4739 0.2033,0.123 0.3721,0.0432 0.375,-0.1774 0.0035,-0.2742 -0.5489,-0.3294 -1.7469,-0.1747 -1.2663,0.1636 -1.6775,0.1145 -1.4826,-0.1766 0.3071,-0.4593 0.2332,-0.4567 -1.9191,0.0655 z m -15.549,0.1173 c -0.0152,0.1545 1.6087,3.5595 3.6086,7.5667 3.9155,7.8461 5.421,9.9054 9.0018,12.3174 5.1682,3.48 12.2517,4.283 14.6071,1.656 0.2945,-0.329 -0.1249,-0.184 -0.9319,0.322 -1.988,1.245 -5.3657,1.218 -9.0568,-0.074 -6.0613,-2.121 -8.5491,-4.843 -13.5802,-14.8596 -1.9915,-3.9649 -3.6331,-7.0826 -3.6486,-6.9285 z m 15.04,0.594 c -0.001,0.0773 -0.266,0.2332 -0.5893,0.3464 -0.3369,0.1177 -0.4872,0.0556 -0.3527,-0.1453 0.2256,-0.3376 0.9458,-0.4911 0.942,-0.2011 z m 0.6897,4.8813 c -0.301,0.1715 -0.6311,0.2302 -0.7334,0.1304 -0.1023,-0.0998 0.0603,-0.3219 0.3614,-0.4934 0.301,-0.1715 0.6311,-0.2302 0.7334,-0.1304 0.1023,0.0998 -0.0603,0.3219 -0.3614,0.4934 z m 3.8816,1.5955 c -0.3857,0.4253 -0.7236,0.8184 -0.7503,0.8735 -0.0263,0.0548 -0.5811,0.2377 -1.2329,0.4061 -1.0859,0.2808 -1.1522,0.2509 -0.7979,-0.3596 0.2124,-0.366 0.5594,-0.7643 0.7705,-0.8844 0.211,-0.1204 0.3147,-0.3296 0.2302,-0.4646 -0.0841,-0.1354 0.4399,-0.2682 1.1648,-0.2952 1.3164,-0.049 1.3172,-0.0483 0.6156,0.7242 z M 44.409,97.197 c 0.6712,0.5946 0.7257,0.8342 0.3563,1.5673 -0.2399,0.476 -0.5275,0.8654 -0.6391,0.8653 -0.1111,0 -1.014,-0.8035 -2.006,-1.7861 l -1.8038,-1.7864 1.6498,0.2189 c 0.9077,0.1207 2.007,0.535 2.4428,0.921 z m 10.8216,3.486 c -0.4245,0.276 -1.7009,0.634 -2.8364,0.798 -1.3107,0.189 -1.6523,0.317 -0.9349,0.352 1.5424,0.075 3.7823,-0.521 4.3536,-1.158 0.5781,-0.645 0.4232,-0.643 -0.5823,0.008 z"
         fill="#000000"
         id="path861"
         style="stroke:#000000;stroke-width:0.249503;stroke-miterlimit:4;stroke-dasharray:none;stroke-opacity:1" />
    </g>
    <text
       xml:space="preserve"
       id="text874"
       style="font-style:normal;font-variant:normal;font-weight:normal;font-stretch:normal;font-size:40px;line-height:1.25;font-family:'Segoe Script';-inkscape-font-specification:'Segoe Script, Normal';font-variant-ligatures:normal;font-variant-caps:normal;font-variant-numeric:normal;font-variant-east-asian:normal;white-space:pre;shape-inside:url(#rect876);fill:#000000;fill-opacity:1;stroke:none;"><tspan
         style="visibility:hidden"
         x="77.537109"
         y="484.32524"><tspan
           dx="0 29.765625 30.898438 29.21875 12.226562">BUTIK</tspan></tspan></text>
    <text
       xml:space="preserve"
       id="text882"
       style="font-style:normal;font-weight:normal;font-size:40px;line-height:1.25;font-family:sans-serif;white-space:pre;shape-inside:url(#rect884);fill:#000000;fill-opacity:1;stroke:none;" />
    <text
       xml:space="preserve"
       style="font-style:normal;font-weight:normal;font-size:40px;line-height:1.25;font-family:sans-serif;fill:#000000;fill-opacity:1;stroke:none"
       x="-111.77314"
       y="172.19106"
       id="text924"><tspan
         id="tspan922"
         x="-111.77314"
         y="172.19106" /></text>
    <g
       id="g1097"
       transform="matrix(0.52007397,0,0,0.52007397,6.8097858,-154.50808)">
      <g
         aria-label="BUTIK"
         transform="matrix(1.9611245,0,0,1.9611245,-43.696241,-683.73487)"
         id="text888"
         style="font-style:normal;font-variant:normal;font-weight:normal;font-stretch:normal;font-size:40px;line-height:1.25;font-family:Gabriola;-inkscape-font-specification:'Gabriola, Normal';font-variant-ligatures:normal;font-variant-caps:normal;font-variant-numeric:normal;font-variant-east-asian:normal;white-space:pre;shape-inside:url(#rect890);fill:#000000;fill-opacity:1;stroke:none" />
      <path
         id="path946"
         style="fill:none;stroke:#000000;stroke-width:2;stroke-linecap:butt;stroke-linejoin:miter;stroke-miterlimit:4;stroke-dasharray:none;stroke-opacity:1"
         d="m 157.64277,356.40976 c 0,0 0.7883,4.65111 4.86416,6.63293 1.67087,0.7241 5.97806,-0.51622 7.95952,-2.43207 v 0 c 17.01074,-13.95854 44.83676,-21.52229 59.69643,-22.10979 m -38.60842,26.69608 6.4583,-50.75522 2.97783,46.61087 m 1.76185,95.65742 c -3.68084,-0.89383 -7.71189,-2.94249 -10.06786,-5.11669 -4.27127,-3.94173 -5.76945,-6.24817 -9.91225,-15.26002 -1.10993,-2.41441 -2.48401,-5.27242 -3.05349,-6.35109 -1.29176,-2.44674 -1.51353,-3.349 -1.24409,-5.06142 0.26292,-1.67104 0.79064,-2.95141 2.25619,-5.47398 1.06891,-1.83988 1.77232,-2.55325 2.2079,-2.23917 0.0994,0.0717 0.44582,1.1002 0.7699,2.28566 0.32409,1.18546 0.66075,2.16047 0.74816,2.16671 0.43477,0.031 0.41115,-0.58535 -0.0955,-2.49323 -0.47695,-1.79601 -0.52463,-2.30836 -0.34062,-3.66057 0.26751,-1.9658 1.23563,-3.77913 2.99527,-5.61024 1.69847,-1.76746 2.99821,-2.563 3.85163,-2.35753 1.53519,0.36963 2.2863,0.51139 4.02608,0.75981 1.3531,0.1932 2.36058,0.50711 3.80145,1.18448 1.07823,0.50689 2.04817,1.0223 2.15543,1.14536 0.37606,0.43152 0.69298,0.26111 0.65813,-0.35387 -0.0192,-0.33723 -0.0787,-4.10072 -0.13253,-8.36334 -0.0538,-4.26263 -0.14278,-7.80214 -0.1978,-7.86559 -0.17782,-0.20512 -1.46587,0.70662 -2.27991,1.61379 -3.38852,3.7763 -6.26212,5.64396 -10.02891,6.51821 -2.3561,0.54683 -6.11032,0.93477 -8.69536,0.89855 -2.20697,-0.0309 -2.42559,-0.0734 -3.55443,-0.69082 -1.5772,-0.86265 -2.02602,-1.70584 -1.89498,-3.55996 0.12257,-1.73089 0.82777,-3.30209 2.37559,-5.29112 1.37026,-1.76086 3.76407,-3.89954 5.13376,-4.58662 0.58251,-0.2922 1.0271,-0.69651 1.13818,-1.03508 0.15414,-0.46972 0.26874,-0.52721 0.74152,-0.37208 0.50932,0.16714 0.55046,0.13398 0.46115,-0.37193 -0.14034,-0.79497 0.13792,-1.24005 0.74818,-1.19655 0.60111,0.0428 0.634,-0.0209 0.31826,-0.61706 -0.35122,-0.66313 0.0131,-1.21105 0.66336,-0.99767 0.42756,0.1403 0.5464,0.0933 0.56906,-0.22454 0.0158,-0.22104 -0.0724,-0.51838 -0.19578,-0.66075 -0.36026,-0.41559 -0.0604,-1.04102 0.54615,-1.13932 0.6556,-0.10624 0.92562,-0.80239 0.43602,-1.12412 -0.66675,-0.43815 -0.22856,-1.39335 0.61857,-1.34841 0.17708,0.009 0.49216,-0.34866 0.70017,-0.79568 0.34511,-0.74167 0.34575,-0.84023 0.007,-1.12665 -0.50043,-0.42368 -0.16367,-1.35382 0.41865,-1.15634 0.31626,0.10726 0.48772,-0.0711 0.8163,-0.84929 0.22878,-0.54176 0.43793,-1.29314 0.46478,-1.66975 0.0539,-0.75609 0.7001,-1.7057 1.0091,-1.48288 0.32616,0.2352 0.14936,1.18707 -0.38499,2.07264 -0.51578,0.85479 -0.73363,1.94616 -0.39332,1.97042 0.35198,0.0251 1.27243,-2.29656 1.547,-3.90206 0.2546,-1.48857 0.24515,-1.58354 -0.14555,-1.46472 -2.06428,0.62781 -2.58303,0.6755 -3.09593,0.28463 -0.77746,-0.59251 -1.158,-2.16985 -0.92973,-3.85368 0.21406,-1.57879 0.61845,-2.14333 1.82639,-2.54984 1.16052,-0.39053 1.65509,-1.20789 1.93599,-3.19954 1.15221,-8.16894 2.62279,-18.0383 2.69824,-18.10829 0.0508,-0.0473 0.12358,-0.0422 0.16145,0.0118 0.0655,0.0926 -2.10688,15.4047 -2.56255,18.06245 -0.11893,0.69376 -0.15629,1.26565 -0.0836,1.27083 0.0732,0.005 0.51182,-0.27801 0.97465,-0.62939 0.46284,-0.3514 1.51238,-0.89641 2.33231,-1.21115 1.21583,-0.46672 1.85271,-0.5638 3.45286,-0.52637 l 1.96205,0.0459 -0.0478,-1.25214 c -0.0534,-1.39924 -0.14668,-11.22311 -0.13112,-13.80394 0.007,-1.21113 0.0525,-1.48013 0.16583,-0.98739 0.1282,0.55724 0.33231,14.52747 0.22924,15.6903 -0.0235,0.25852 0.4663,0.51033 1.86832,0.96153 1.04465,0.33619 2.68334,1.06981 3.64151,1.63025 1.42682,0.83457 2.0253,1.37032 3.30667,2.96017 2.54471,3.15731 4.49679,6.96373 4.98598,9.72238 0.2657,1.49827 -0.0664,1.71166 -1.23333,0.79261 -1.13212,-0.89158 -2.76242,-1.04871 -4.47791,-0.43162 -1.6441,0.59141 -7.49634,3.71653 -7.67502,4.09849 -0.13537,0.28935 -0.10154,12.48584 0.0351,12.64926 0.0303,0.0362 1.23584,-0.53527 2.67894,-1.2701 1.44309,-0.73485 4.00397,-1.97894 5.69085,-2.76466 4.36304,-2.03221 6.5217,-3.81314 6.64041,-5.47848 0.11571,-1.6236 -3.12102,-2.75466 -6.03811,-2.10996 -0.64932,0.14349 -2.32236,0.7237 -3.71787,1.28933 -2.71879,1.10195 -3.6702,1.20612 -4.44026,0.48611 -0.358,-0.33474 -0.42687,-0.57406 -0.28747,-0.99889 0.25672,-0.78232 2.44193,-2.57494 3.80878,-3.12451 2.7175,-1.09259 7.04702,-1.32927 8.73646,-0.47758 1.0282,0.51835 0.80176,0.67555 -0.28593,0.19849 -1.12657,-0.4941 -2.58636,-0.59393 -4.69653,-0.32116 -3.00031,0.38781 -5.53896,1.58027 -6.8692,3.22659 -0.60409,0.74763 -0.62256,0.82179 -0.29802,1.19617 0.57697,0.66553 1.88318,0.56511 3.75712,-0.28888 2.1628,-0.98562 4.35195,-1.65914 5.69829,-1.75319 2.13686,-0.14924 4.62097,0.99064 4.97438,2.2826 0.43218,1.57998 -2.14315,3.99977 -6.31186,5.93067 -1.43858,0.66633 -4.08708,1.95897 -5.88555,2.87249 -3.02013,1.53408 -3.26572,1.70523 -3.21444,2.24003 0.0306,0.31847 0.0986,4.325 0.1512,8.90342 0.10916,9.49941 0.0898,9.40203 1.94053,9.7564 1.30565,0.24999 1.72366,0.86288 1.61624,2.36969 -0.0666,0.93398 -0.31156,1.53629 -1.30516,3.20885 -1.155,1.94426 -1.19377,2.05387 -0.69527,1.96588 0.37659,-0.0664 0.52123,9.2e-4 0.50453,0.23507 -0.0327,0.4589 -0.62733,0.83783 -1.09375,0.697 -0.21497,-0.0648 -0.648,-0.015 -0.96229,0.11095 -0.3143,0.12593 -1.35076,0.29793 -2.30326,0.38219 -0.9525,0.0843 -1.73706,0.22695 -1.74349,0.31704 -0.006,0.0901 0.30187,0.321 0.68509,0.51313 0.74508,0.37354 1.78659,0.4736 3.59233,0.34511 0.91496,-0.0651 1.17715,-0.007 1.40667,0.31382 0.44429,0.62027 -0.16312,0.81038 -1.73232,0.54219 -1.09308,-0.18682 -1.5469,-0.15739 -2.38591,0.15492 -0.56984,0.21208 -1.14095,0.37812 -1.26913,0.36899 -0.26194,-0.0186 -0.35655,0.40986 -0.0999,0.45275 3.91838,0.65506 4.11249,0.66686 4.98216,0.30282 0.47639,-0.19941 0.95792,-0.29639 1.0701,-0.2155 0.58433,0.42133 -0.31686,1.19399 -1.31006,1.12319 -0.45298,-0.0323 -1.21497,0.19494 -1.95301,0.58242 l -1.21021,0.6354 0.9062,0.13226 c 0.53077,0.0775 1.20425,0.004 1.62562,-0.17705 1.34961,-0.58032 2.89979,-0.15838 2.17977,0.59329 -0.21101,0.22029 -0.70117,0.2925 -1.56657,0.23082 -1.23133,-0.0878 -1.2898,-0.064 -2.61576,1.05785 -0.74596,0.6312 -1.31297,1.19759 -1.26004,1.25866 0.0529,0.061 0.48592,0.0327 0.96227,-0.0642 0.4763,-0.0964 1.31364,-0.14709 1.86076,-0.11264 0.54716,0.0339 1.19815,-0.0696 1.44673,-0.23119 0.52243,-0.3396 1.60832,-0.31925 1.7931,0.0337 0.25284,0.48284 -0.44658,0.84664 -1.48537,0.77259 -0.93783,-0.0668 -1.12773,0.013 -2.08945,0.87921 l -1.05787,0.95274 0.78416,-0.0978 c 0.43127,-0.0537 1.33502,-0.11612 2.00832,-0.13849 0.67329,-0.0224 1.50229,-0.1569 1.8422,-0.29899 0.89307,-0.37331 1.52976,-0.27912 1.49411,0.22102 -0.0474,0.66478 -0.63103,0.93897 -1.50856,0.70871 -0.64525,-0.16931 -0.9316,-0.11062 -1.63621,0.3354 -1.07853,0.68269 -3.0927,2.35247 -3.10872,2.57716 -0.006,0.0934 0.64217,-0.13138 1.44186,-0.49951 0.79966,-0.36812 1.71572,-0.65067 2.03566,-0.62786 0.31995,0.0228 0.93414,-0.0968 1.36489,-0.26572 0.96623,-0.37901 1.92752,-0.12817 1.88336,0.49143 -0.0317,0.44545 -0.88781,0.64214 -2.01768,0.46357 -0.41013,-0.0648 -0.7019,0.12728 -1.24798,0.82168 -0.78035,0.99227 -0.77611,1.27665 0.0138,0.9237 0.30273,-0.13526 0.89155,-0.1494 1.43761,-0.0346 0.745,0.15675 1.00729,0.11563 1.34851,-0.21133 0.49762,-0.47682 1.249,-0.49011 1.2156,-0.0215 -0.0133,0.17945 -0.28342,0.47143 -0.60138,0.6488 -0.31797,0.1774 -0.58325,0.39456 -0.58953,0.48261 -0.006,0.0881 0.8121,1.18048 1.8186,2.42763 2.06676,2.56087 3.91449,5.68322 4.80096,8.11281 0.77038,2.11136 0.78211,4.75103 0.0263,5.91983 -0.63417,0.98071 -2.69826,2.19738 -4.22221,2.48875 -1.31139,0.25073 -4.30688,0.0881 -6.01419,-0.32647 z m 6.69386,-0.24016 c 0.74127,-0.21475 1.66208,-0.7247 2.34901,-1.30088 0.94042,-0.7888 1.16939,-1.12622 1.36578,-2.01267 0.24354,-1.09935 0.0428,-3.35031 -0.32216,-3.61352 -0.10827,-0.0781 -0.2189,0.16711 -0.24582,0.54483 -0.14442,2.02647 -1.90442,2.73804 -6.05895,2.44971 -4.24103,-0.2943 -6.00985,-1.07245 -10.65729,-4.68827 -1.78492,-1.38871 -3.22197,-2.7453 -4.47306,-4.22262 -1.01381,-1.19713 -2.4831,-2.87094 -3.26509,-3.71958 -4.20127,-4.55938 -6.33669,-12.35104 -4.57885,-16.70711 0.41964,-1.03989 0.42118,-1.13955 0.041,-2.63166 -0.21733,-0.85297 -0.51443,-1.90667 -0.66021,-2.34158 l -0.26507,-0.79073 -0.48135,0.5148 c -1.43558,1.53536 -3.24275,5.49604 -3.39667,7.44426 -0.12076,1.52887 0.225,2.63883 1.61863,5.19577 0.41665,0.76443 1.56175,3.14427 2.54467,5.28856 3.11706,6.79994 4.92923,10.0027 7.00272,12.37633 3.32853,3.81034 5.3012,5.27768 9.17279,6.82309 4.33896,1.73195 7.61029,2.17341 10.30994,1.39127 z m 0.98652,-4.43834 c 1.01146,-0.22353 1.24335,-0.37536 1.57348,-1.03023 0.42906,-0.8511 0.42854,-2.61545 -0.001,-3.61395 l -0.24457,-0.56841 -0.30314,0.87301 c -0.52102,1.50055 -1.96141,2.37826 -4.39747,2.67965 -1.74757,0.21619 -6.3447,-0.29123 -7.80429,-0.86145 -0.56439,-0.22049 -1.02867,-0.36577 -1.03173,-0.32286 -0.0164,0.23007 2.82838,1.88697 3.84478,2.23933 1.67411,0.58037 6.79822,0.95096 8.36399,0.60526 z m -2.8198,-2.09007 c 2.17723,-0.26552 3.537,-1.44857 3.66248,-3.18649 0.0862,-1.1977 -0.87678,-2.92808 -3.30139,-5.9306 -1.01961,-1.26264 -1.90033,-2.48897 -1.95718,-2.72519 -0.17644,-0.73315 -1.52108,-0.85592 -2.98613,-0.27262 -0.96495,0.38418 -1.25128,0.60401 -1.23251,0.94628 0.0678,1.23763 -0.0394,1.73877 -0.48075,2.25408 -0.83908,0.97884 -1.6456,1.35331 -4.89429,2.2725 -0.24759,0.0701 -0.0721,0.35822 0.64605,1.06076 1.12126,1.09692 1.19358,1.62368 0.31281,2.27835 l -0.61191,0.45484 0.53369,0.73454 c 1.18451,1.63025 6.06592,2.63104 10.30912,2.11358 z m -10.834,-2.19209 c -0.33347,-0.46559 -0.0236,-1.37613 0.55647,-1.63536 0.2508,-0.11208 0.46223,-0.29123 0.46985,-0.39813 0.008,-0.1069 -0.4599,-0.63007 -1.03893,-1.16262 -1.04751,-0.96339 -1.06034,-0.96814 -2.55751,-0.94946 -0.9828,0.0123 -1.67154,-0.0863 -1.98564,-0.28445 -1.66073,-1.04713 0.3615,1.48761 2.69836,3.38224 1.8437,1.49479 2.40395,1.81082 1.8574,1.04778 z m -2.60469,-4.44064 c 0.38513,-0.0489 0.70484,-0.15335 0.71046,-0.23218 0.006,-0.0788 -0.53029,-0.62102 -1.1909,-1.20486 -1.72511,-1.5246 -2.36182,-2.46475 -2.3206,-3.42649 0.0268,-0.62528 0.18294,-0.91343 0.70551,-1.30185 0.78112,-0.58061 1.19101,-0.51933 3.08503,0.4613 1.53895,0.79679 3.74056,1.02477 5.51057,0.57063 0.94519,-0.24251 1.28013,-0.48011 2.0393,-1.44668 0.4996,-0.63609 0.91759,-1.24331 0.92888,-1.34936 0.0406,-0.38151 -1.43496,0.003 -2.71263,0.70652 -1.07467,0.59191 -1.29276,0.80859 -1.24241,1.23439 0.0459,0.38811 -0.0832,0.57017 -0.51994,0.73273 -1.21664,0.45289 -1.6719,-0.42789 -0.59737,-1.15571 0.33536,-0.22716 0.92493,-0.83957 1.31013,-1.36091 0.3852,-0.52133 1.2756,-1.33084 1.97868,-1.7989 0.70307,-0.46805 1.24298,-0.89175 1.1998,-0.94156 -0.0431,-0.0497 -0.78434,-0.0157 -1.64705,0.0758 -1.51951,0.16118 -1.5938,0.19848 -2.37532,1.1925 -0.88041,1.11982 -1.67026,1.43287 -2.16762,0.85917 -0.46318,-0.5343 0.0189,-1.12858 1.36483,-1.68377 0.62388,-0.25728 1.66716,-0.94213 2.31842,-1.52189 l 1.18408,-1.05409 -0.81436,-0.055 c -1.44567,-0.0971 -2.70435,0.31355 -3.23005,1.05377 -0.5418,0.76284 -0.67644,0.79534 -1.25072,0.30183 -0.52236,-0.44888 -0.16852,-1.00626 0.80805,-1.2729 0.6712,-0.18325 3.60992,-2.66488 3.41796,-2.88631 -0.0532,-0.0613 -0.45978,-0.13735 -0.90362,-0.16899 -0.59824,-0.0427 -1.13317,0.15146 -2.06795,0.75042 -1.4187,0.90901 -2.3366,0.95114 -2.39574,0.10997 -0.0415,-0.58963 0.83592,-1.031 2.2932,-1.15362 0.90592,-0.0762 3.22607,-0.99614 3.51181,-1.39239 0.0695,-0.0966 -0.44224,-0.27534 -1.13742,-0.39739 -0.69519,-0.12203 -1.67276,-0.33329 -2.17237,-0.46944 -0.54096,-0.14741 -1.37411,-0.18618 -2.05971,-0.096 -1.28841,0.16961 -1.88622,-0.0881 -1.83608,-0.79149 0.0328,-0.45965 0.51937,-0.46844 2.33454,-0.0422 0.77834,0.18279 1.21973,0.1461 2.12204,-0.17636 l 1.13927,-0.40714 -0.86173,-0.37129 c -0.47395,-0.20421 -1.04391,-0.61909 -1.26658,-0.92193 -0.57686,-0.7846 -1.60078,-1.17495 -2.16075,-0.8237 -0.55775,0.34984 -2.058,0.23252 -3.86536,-0.30231 -2.00005,-0.59179 -3.86517,-0.68682 -5.02699,-0.25617 l -0.96278,0.35688 0.66247,1.78183 c 1.13491,3.05258 2.15192,5.25379 2.86083,6.19197 0.6063,0.8024 0.7212,0.86826 1.03767,0.59462 0.19575,-0.16925 0.52647,-0.84512 0.73496,-1.50196 0.30815,-0.97081 0.47389,-1.20088 0.88584,-1.22969 1.44079,-0.10076 1.40857,5.10638 -0.0465,7.51789 -0.74157,1.22899 -1.22623,1.36382 -2.40178,0.66817 -2.00766,-1.18811 -2.78219,-3.01134 -4.50667,-10.60874 l -0.40985,-1.80561 -0.32811,0.64276 c -0.52471,1.02788 -0.64432,4.139 -0.24206,6.29633 0.63003,3.37899 2.50426,7.41686 4.3799,9.43608 0.58188,0.62643 0.68838,0.68668 0.43918,0.24841 -0.88915,-1.56379 -1.5228,-3.0281 -1.4139,-3.26745 0.0669,-0.14724 0.21066,0.0151 0.32106,0.36271 0.19277,0.60703 1.78817,3.43957 2.53127,4.49415 0.4498,0.63835 2.74394,2.26152 3.24701,2.29739 0.2046,0.0149 0.68711,-0.0134 1.07225,-0.0624 z m 4.47309,-1.04907 c 1.97691,-0.74018 3.04556,-1.79137 2.8112,-2.76525 -0.10524,-0.43733 -0.14805,-0.42832 -0.82739,0.17417 -0.39401,0.34944 -0.85684,0.62534 -1.02849,0.61311 -0.42402,-0.0302 -0.5621,-0.58228 -0.26422,-1.05623 0.22694,-0.36106 0.11704,-0.3986 -1.55491,-0.53106 -1.50184,-0.11901 -1.98256,-0.25413 -2.90934,-0.81803 -1.37557,-0.83695 -2.29022,-0.93571 -2.80433,-0.30277 -0.20841,0.25658 -0.39505,0.69264 -0.41475,0.96903 -0.0452,0.63353 1.13005,2.15711 2.69858,3.4985 l 1.20892,1.03387 1.10692,-0.24463 c 0.60881,-0.13456 1.49881,-0.39138 1.97781,-0.57071 z m 1.71556,-2.81335 c 0.23798,-0.22803 0.38923,-0.46477 0.33609,-0.52606 -0.13582,-0.15665 -1.10926,0.4527 -1.12729,0.70566 -0.0245,0.3426 0.33027,0.26208 0.7912,-0.1796 z m -1.07297,-2.09768 c 0.0281,-0.39337 -0.75658,-0.15785 -0.86855,0.26073 -0.091,0.33991 -0.0374,0.36614 0.373,0.18276 0.26356,-0.11777 0.48656,-0.31733 0.49555,-0.44349 z m 7.66754,-0.0955 c 0.0838,-0.11615 0.0528,-0.21828 -0.0686,-0.22695 -0.12151,-0.009 -0.28947,0.0793 -0.37322,0.19546 -0.0838,0.11615 -0.0528,0.21828 0.0686,0.22694 0.1215,0.009 0.28946,-0.0793 0.37322,-0.19545 z m -16.1913,-2.28003 c 0.69745,-0.64924 1.19262,-2.24802 1.34102,-4.32984 0.21721,-3.04704 -0.62862,-4.43773 -1.18525,-1.94876 -0.20058,0.89691 -0.87574,1.81342 -1.29965,1.76424 -0.73245,-0.085 -2.03972,-2.34443 -3.45589,-5.97301 -0.97739,-2.50437 -1.16305,-2.83196 -1.42769,-2.5194 -0.25342,0.29933 -0.16569,0.97142 0.52546,4.02621 1.25015,5.52536 2.18814,7.68154 3.87498,8.90745 0.8077,0.587 1.06264,0.59846 1.62702,0.0731 z m 7.71508,-0.81864 c 0.27075,-0.31454 0.4439,-0.62771 0.38478,-0.69591 -0.15078,-0.17393 -1.62564,0.70695 -1.76875,1.05641 -0.21432,0.52331 0.86529,0.2421 1.38397,-0.3605 z m 7.86046,0.83427 c 0.009,-0.1215 -0.28249,-0.24219 -0.64703,-0.26817 -0.36453,-0.026 -0.66987,0.0522 -0.67853,0.17368 -0.009,0.1215 0.28249,0.24218 0.64703,0.26817 0.36453,0.026 0.66987,-0.0522 0.67853,-0.17368 z m -0.37908,-2.46957 c 0.0838,-0.11616 -0.0465,-0.22536 -0.28957,-0.2427 -0.24301,-0.0173 -0.51039,0.0636 -0.59414,0.17971 -0.0838,0.11616 0.0465,0.22535 0.28957,0.24268 0.24302,0.0173 0.51038,-0.0636 0.59414,-0.17969 z m -8.45653,-1.29618 c 0.0174,-0.24474 -0.22659,-0.25992 -0.6363,-0.0394 -0.175,0.0942 -0.25512,0.29158 -0.17804,0.43879 0.10621,0.2028 0.22016,0.21035 0.4703,0.0315 0.18159,-0.13008 0.33639,-0.32374 0.34399,-0.43037 z m 6.79015,-0.96672 c -0.14525,-0.0712 -0.44324,-0.0961 -0.66222,-0.0552 -0.21894,0.0407 -0.10009,0.0989 0.26412,0.12943 0.36418,0.031 0.54334,-0.003 0.39809,-0.074 z m -7.08937,-2.01807 c 0.36231,-0.27563 0.5315,-0.51338 0.37598,-0.52833 -0.48549,-0.0468 -1.85986,0.49221 -1.87724,0.73603 -0.03,0.42134 0.83099,0.3022 1.50126,-0.2077 z m 6.41109,-0.46196 c 0.19746,-0.06 0.36535,-0.19797 0.37309,-0.30648 0.0164,-0.22924 -0.6637,-0.30936 -1.21156,-0.14271 -0.30158,0.0917 -0.32114,0.15701 -0.0967,0.32279 0.33945,0.2507 0.46895,0.26821 0.93515,0.12641 z m -0.0392,-2.31057 c 0.19274,-0.26728 -0.0997,-0.28814 -0.55232,-0.0394 -0.29874,0.1642 -0.29505,0.19469 0.0267,0.22056 0.20532,0.0166 0.44187,-0.0651 0.52562,-0.18119 z m -7.8641,-0.78604 c 0.3189,0.0197 0.32603,-0.009 0.0527,-0.2149 -0.40231,-0.30259 -1.52612,-0.39617 -1.54519,-0.12864 -0.0189,0.26449 0.44115,0.48399 0.82286,0.39264 0.16548,-0.0397 0.46683,-0.0617 0.66965,-0.0491 z m 7.12433,-1.24636 c -0.3929,-0.18667 -1.21298,-0.16617 -1.22701,0.0307 -0.003,0.0465 0.36728,0.10428 0.82355,0.12818 0.6319,0.0332 0.72804,-0.005 0.40346,-0.1589 z m -16.52548,-2.96834 c 1.19117,-0.44131 2.65054,-0.37187 4.7267,0.22489 1.57054,0.45145 3.3231,0.66478 3.93424,0.47892 0.27697,-0.0842 0.30251,-0.19247 0.12468,-0.52822 -0.28792,-0.54357 0.18677,-1.09707 0.77096,-0.89896 0.34206,0.11601 0.46055,-0.0547 0.75145,-1.08236 0.40616,-1.43478 0.23283,-2.49964 -0.49291,-3.02815 -0.25699,-0.18712 -1.53591,-0.54127 -2.84205,-0.78696 -2.53402,-0.47668 -2.9597,-0.71905 -3.50975,-1.99827 -0.1772,-0.41211 -0.21853,-0.95295 -0.10842,-1.41893 0.13365,-0.56545 0.0689,-0.92433 -0.25865,-1.44095 -0.42163,-0.66438 -0.42194,-0.70977 -0.009,-1.32324 l 0.42735,-0.63525 -0.68183,0.41579 c -1.70968,1.0426 -3.53673,3.41391 -4.45634,5.78385 -0.52151,1.34395 -0.56449,1.63941 -0.40865,2.80851 0.15405,1.15569 0.83455,3.78316 0.98255,3.79371 0.0307,0.002 0.50308,-0.16179 1.04989,-0.36438 z m 15.18234,0.70221 c 0.48633,-0.14529 0.70772,-0.43202 2.28456,-2.95874 0.9182,-1.47132 1.43364,-3.20573 1.18928,-4.00188 -0.17709,-0.57696 -1.56258,-1.4085 -1.88341,-1.13038 -0.0731,0.0634 -0.0512,0.57717 0.0492,1.14187 0.21933,1.23683 -0.22445,4.4282 -0.65899,4.73948 -0.45947,0.32908 -0.93581,-0.6705 -0.87815,-1.84274 0.10242,-2.08174 -0.18004,-2.19225 -0.49195,-0.19247 -0.34923,2.23926 -0.44438,2.49626 -1.0193,2.75315 -0.67657,0.30233 -0.98952,-0.58612 -1.08563,-3.08205 -0.10865,-2.82124 -0.33711,-3.82864 -1.00803,-4.44474 -0.48063,-0.44137 -0.70798,-0.48664 -2.20505,-0.43905 -2.28314,0.0726 -4.42441,-0.0729 -5.13779,-0.34901 -0.55235,-0.21379 -0.59735,-0.1855 -0.63842,0.40155 -0.0243,0.34736 0.12206,0.95372 0.32525,1.34746 0.41181,0.79797 1.60191,1.31206 3.32102,1.43461 1.54987,0.11045 2.30853,0.3977 2.99034,1.13211 0.6138,0.66117 0.62736,0.73171 0.4163,2.16532 -0.11996,0.81504 -0.29533,1.67624 -0.38964,1.91378 -0.12073,0.30419 0.007,0.64929 0.43239,1.16735 l 0.60383,0.73547 1.63801,-0.16964 c 0.90093,-0.0933 1.86669,-0.23796 2.14617,-0.32144 z m -4.80403,-0.29794 c -0.13725,-0.19165 -0.34329,-0.29935 -0.45784,-0.23936 -0.29444,0.15419 -0.0505,0.53374 0.36199,0.56314 0.28085,0.02 0.29875,-0.0405 0.0958,-0.32378 z m -0.85405,-0.50744 c 0.0133,-0.18225 -0.0759,-0.33848 -0.19731,-0.34714 -0.1215,-0.009 -0.23156,0.13338 -0.24456,0.31564 -0.0133,0.18226 0.0759,0.33848 0.19731,0.34715 0.12151,0.009 0.23156,-0.13338 0.24456,-0.31565 z m 7.39319,0.63806 c 0.0838,-0.11616 0.047,-0.2187 -0.0817,-0.22787 -0.12869,-0.009 -0.24106,0.0828 -0.24971,0.20425 -0.009,0.1215 0.0282,0.22405 0.0817,0.22787 0.0535,0.004 0.16596,-0.0882 0.24971,-0.20425 z m -2.87911,-2.03716 c 0.1204,-0.2662 0.34468,-1.34314 0.49841,-2.39317 0.15376,-1.05004 0.37296,-2.13356 0.48719,-2.40783 0.11418,-0.27426 0.1908,-0.99947 0.17012,-1.61158 -0.036,-1.06778 -0.0806,-1.1403 -1.09965,-1.78783 -1.72305,-1.09485 -4.13759,-1.97051 -6.33129,-2.2961 l -2.03246,-0.30165 -0.045,0.63101 c -0.0326,0.45749 -0.28651,0.80716 -0.92333,1.27166 l -0.87838,0.64064 0.6443,0.30674 c 0.43484,0.20701 1.29415,0.30323 2.64349,0.29599 3.70784,-0.0199 4.23711,0.0428 4.74152,0.56156 0.71517,0.7356 0.96434,1.75384 1.10981,4.5352 0.0736,1.40731 0.18688,2.66004 0.25171,2.78385 0.199,0.38 0.53358,0.27987 0.76351,-0.22849 z m 2.41007,-3.07283 c 0.10404,-2.25436 -0.0876,-3.00707 -0.62342,-2.44773 -0.20849,0.21765 -0.26063,0.86956 -0.20706,2.58962 0.0393,1.26431 0.1227,2.39652 0.18529,2.51603 0.2756,0.52626 0.55054,-0.6063 0.64526,-2.65791 z m -0.54212,-3.44441 c -0.1915,-0.2209 -0.25461,-0.16619 -0.28401,0.24621 -0.0294,0.4124 0.0254,0.47552 0.24622,0.28401 0.2209,-0.1915 0.2293,-0.30932 0.0377,-0.53022 z m -11.39061,-2.61563 c 0.72378,-0.55182 0.96915,-1.01822 0.75293,-1.43113 -0.13252,-0.25305 -0.31176,-0.2609 -1.03097,-0.0451 -0.93367,0.28015 -1.29517,0.96149 -0.8442,1.59109 0.31538,0.44034 0.4062,0.43104 1.12224,-0.11489 z m -5.41685,-7.4141 c 3.59575,-0.50151 5.63933,-1.08468 7.47993,-2.13447 1.7238,-0.98319 4.90587,-3.6821 5.70557,-4.83924 0.23967,-0.34678 0.76518,-0.82908 1.16779,-1.07175 1.67955,-1.01232 1.52779,-0.25157 1.44476,-7.24292 -0.041,-3.45474 -0.12453,-6.33894 -0.18556,-6.40933 -0.061,-0.0703 -0.79547,0.29038 -1.63209,0.80173 -1.31721,0.8051 -1.49491,0.98841 -1.32553,1.36745 0.1493,0.33414 0.42478,0.44943 1.16424,0.48724 1.12338,0.0574 1.44673,0.23518 1.40832,0.77397 -0.0573,0.80336 -1.63401,1.76385 -7.48967,4.56249 -5.76709,2.75629 -7.22372,3.68494 -11.76994,7.50371 -1.08624,0.91243 -1.84986,1.4511 -1.69696,1.19705 0.31985,-0.53139 4.41031,-3.86412 6.57831,-5.35971 0.80727,-0.55691 2.42227,-1.48554 3.58889,-2.06362 1.16661,-0.5781 3.623,-1.79463 5.45863,-2.70341 3.84827,-1.90518 5.3955,-2.96277 4.90189,-3.35059 -0.17346,-0.13631 -0.73218,-0.27906 -1.24158,-0.31726 -0.67011,-0.0498 -1.00226,-0.1964 -1.20138,-0.52869 -0.26307,-0.43904 -0.48398,-0.33463 -5.011,2.36817 -10.90055,6.50808 -11.28534,6.7724 -14.65873,10.06908 -2.42966,2.37439 -3.19168,3.41424 -3.05163,4.16424 0.10465,0.56038 0.89391,0.3042 2.63987,-0.85684 0.74928,-0.49826 1.40717,-0.8542 1.46197,-0.79098 0.13818,0.15938 -2.22483,1.74659 -3.13081,2.10293 -0.40836,0.16063 -0.74693,0.35446 -0.75237,0.43073 -0.0179,0.25016 1.11069,1.38127 1.65795,1.66175 0.82949,0.42515 5.94842,0.53265 8.48913,0.17828 z m -5.43513,-9.10684 c 1.61758,-1.44982 3.4656,-2.67213 9.54634,-6.31406 4.14725,-2.48391 7.80109,-4.74743 8.11963,-5.03004 0.31855,-0.28261 1.21849,-1.08218 1.99987,-1.77682 l 1.42069,-1.26299 0.0146,-2.46506 c 0.008,-1.35579 -0.0651,-2.47075 -0.16259,-2.47771 -0.47214,-0.0336 -5.08799,4.74232 -8.43248,8.725 -2.75177,3.27687 -3.80035,3.9615 -4.13923,2.7026 -0.20405,-0.75786 0.67856,-4.52111 1.41675,-6.04078 0.40818,-0.84032 0.6868,-1.73545 0.67614,-2.17231 -0.0157,-0.64707 -0.13207,-0.47871 -0.90051,1.30352 -0.48534,1.12563 -1.11982,2.72912 -1.40998,3.56331 -0.55224,1.58775 -2.18336,4.41539 -3.23442,5.60711 -0.33867,0.38399 -1.03597,0.87228 -1.54955,1.08509 -2.51663,1.04281 -5.77375,4.12337 -7.27578,6.88139 -1.25054,2.29624 -1.1695,2.46597 0.4321,0.90488 0.80987,-0.7894 2.37514,-2.24431 3.47839,-3.23313 z m 5.27502,-6.67614 c 0.0838,-0.11616 0.0528,-0.21829 -0.0686,-0.22695 -0.1215,-0.009 -0.28946,0.0793 -0.37322,0.19545 -0.0838,0.11616 -0.0528,0.21828 0.0686,0.22693 0.12151,0.009 0.28946,-0.0793 0.37322,-0.19543 z m 1.05397,-2.09171 c -0.20841,-0.2404 -0.65428,0.28567 -0.49688,0.58624 0.10776,0.20578 0.21,0.18425 0.38426,-0.081 0.13059,-0.19872 0.18127,-0.4261 0.11262,-0.50529 z m 3.65265,0.48428 c 0.33417,-0.31203 1.63025,-1.79342 2.88014,-3.29197 2.39157,-2.86736 5.34346,-6.02836 7.12003,-7.62437 0.76135,-0.68399 1.04798,-1.09826 1.0212,-1.47599 -0.0341,-0.48115 -0.18327,-0.40583 -1.78057,0.89937 -0.95882,0.78349 -2.80529,2.60772 -4.10326,4.05384 -1.59481,1.77684 -2.59525,2.70768 -3.08567,2.87103 -0.89579,0.29839 -1.37906,0.005 -1.49979,-0.91204 -0.0928,-0.70425 -0.13866,-0.65265 -0.80642,0.90656 -0.46956,1.0964 -1.17722,4.34245 -1.04296,4.78395 0.14871,0.48896 0.63226,0.41054 1.2973,-0.21038 z m -2.65571,-2.24328 c -0.0945,-0.18057 -0.22075,-0.20246 -0.37853,-0.0656 -0.13017,0.11286 -0.17284,0.32707 -0.0949,0.47604 0.0945,0.18056 0.22074,0.20247 0.37853,0.0656 0.13016,-0.11286 0.17284,-0.32707 0.0949,-0.47604 z m 0.90408,-2.36423 c 0.0671,-0.16175 -0.01,-0.25051 -0.17953,-0.20709 -0.16328,0.0418 -0.34967,0.20337 -0.41419,0.35907 -0.0671,0.16174 0.01,0.2505 0.17953,0.20709 0.16327,-0.0418 0.34965,-0.20337 0.41419,-0.35907 z m 12.95854,-0.58895 c 0.0359,-0.41842 -0.23718,-0.34367 -1.01505,0.27788 -1.34896,1.07786 -1.43675,1.34741 -0.21832,0.67027 0.66534,-0.36975 1.22036,-0.79642 1.23337,-0.94815 z m -8.74357,0.0379 c 0.27228,-0.1916 1.28359,-1.24142 2.24736,-2.33293 0.96378,-1.0915 2.76542,-2.87591 4.00364,-3.96537 1.24322,-1.09384 2.19293,-2.09231 2.12092,-2.22982 -0.23419,-0.44722 -2.93458,-1.34917 -4.33908,-1.44928 -1.19605,-0.0853 -1.4935,-0.018 -2.3126,0.52356 -0.929,0.61413 -0.94467,0.64522 -1.33869,2.65659 -0.26764,1.3663 -0.65161,2.50606 -1.16827,3.46795 -0.76416,1.42266 -0.93715,2.14135 -0.74947,3.1137 0.11873,0.61512 0.82713,0.71453 1.53619,0.2156 z m 12.67372,-1.92595 c 4.84271,-2.5562 6.76004,-2.90715 8.68149,-1.58908 l 0.91832,0.62996 0.0353,-0.50646 c 0.0557,-0.80993 -1.48287,-4.72672 -2.5924,-6.59822 -1.42062,-2.39629 -3.26496,-4.68787 -4.53925,-5.63996 -1.1477,-0.85753 -4.88814,-2.55637 -5.775,-2.62291 l -0.53026,-0.0399 -0.004,2.05365 c -0.007,3.08553 0.0835,7.36986 0.15675,7.45437 0.0355,0.0411 0.93984,-0.46454 2.00951,-1.12344 1.82167,-1.12212 4.37592,-2.06321 4.78982,-1.76477 0.42042,0.30318 0.0786,0.78574 -0.8289,1.17001 -0.91362,0.38691 -2.45666,1.32059 -3.99009,2.4144 l -0.68339,0.48748 0.55494,0.84622 c 1.13318,1.72796 0.87923,3.1743 -0.87372,4.97592 -0.8226,0.84543 -1.28487,1.68328 -0.9422,1.7077 0.048,0.003 1.67435,-0.83136 3.61379,-1.85507 z m -15.52023,-0.56115 c 0.008,-0.11434 -0.0846,-0.21497 -0.20611,-0.22364 -0.12151,-0.009 -0.23198,0.13925 -0.24548,0.32868 -0.0135,0.18945 0.0793,0.29008 0.2061,0.22364 0.12687,-0.0665 0.23733,-0.21435 0.24549,-0.32868 z m 13.7144,-0.9137 c 0.51266,-0.90748 0.53238,-1.45395 0.09,-2.49832 -0.56738,-1.33983 -0.85362,-1.51784 -1.4924,-0.92816 -0.49511,0.45704 -0.53749,0.63315 -0.51157,2.12576 0.0156,0.89508 0.0583,2.02721 0.0949,2.51584 l 0.0667,0.8884 0.68165,-0.70748 c 0.3749,-0.38913 0.85667,-1.01734 1.0706,-1.39604 z m -11.76988,-2.82045 c 0.13458,-0.43451 0.12299,-0.58337 -0.0349,-0.44659 -0.13018,0.11285 -0.32753,0.49848 -0.43855,0.85693 -0.13458,0.43451 -0.12299,0.58337 0.0349,0.44659 0.13016,-0.11285 0.32751,-0.49847 0.43854,-0.85693 z m 10.25542,-1.64118 c -0.13354,-0.15403 -0.30032,-0.23018 -0.37063,-0.16922 -0.0703,0.0609 -0.0748,0.28553 -0.01,0.49903 0.0837,0.2751 0.19166,0.32441 0.37065,0.16923 0.179,-0.15517 0.18184,-0.30056 0.01,-0.49903 z m -10.21353,-0.72802 1.19494,-0.39959 0.0114,-1.61068 c 0.0176,-2.47892 -0.9988,-3.92997 -1.1666,-1.66559 -0.10977,1.48309 -0.54776,2.23696 -1.26934,2.18553 -0.80323,-0.0573 -0.97928,-1.31111 -0.40869,-2.91078 0.45822,-1.28459 0.41899,-1.38206 -0.36676,-0.91122 -1.61733,0.96914 -1.28312,5.56268 0.41351,5.68363 0.21813,0.0155 0.93434,-0.15153 1.59155,-0.3713 z m 11.94935,-0.008 c 0.59461,-0.45261 1.67625,-1.14992 2.40363,-1.54955 2.22987,-1.22514 2.25782,-1.24489 1.60766,-1.13705 -1.00466,0.16666 -2.81549,0.98143 -4.2992,1.93437 -1.14126,0.73303 -1.40404,0.99987 -1.22744,1.24647 0.30768,0.42954 0.29727,0.43293 1.51535,-0.49424 z m -8.49912,-1.62613 c 1.00392,-0.37286 2.98936,-0.0796 4.63742,0.685 0.63784,0.29592 1.21324,0.54189 1.27865,0.54663 0.15639,0.0117 0.0424,-9.02397 -0.11773,-9.32973 -0.18278,-0.34905 -2.02623,-0.41933 -3.55489,-0.13552 -1.60434,0.29786 -3.0914,0.98206 -4.29547,1.97635 -1.10927,0.91602 -1.29499,2.05965 -0.50994,3.14012 0.57327,0.78901 0.86303,1.98805 0.77723,3.21635 -0.0596,0.84785 -0.0547,0.8526 0.46335,0.52639 0.28768,-0.18101 0.88231,-0.46254 1.32138,-0.62561 z m -4.22682,-0.32397 c 0.12827,-0.20459 0.31736,-1.05547 0.42017,-1.89087 0.21091,-1.714 -0.0749,-2.15085 -0.71827,-1.09773 -0.38843,0.6358 -0.68755,2.87432 -0.42459,3.17763 0.23025,0.26561 0.4783,0.20073 0.72269,-0.18903 z m 0.76888,-4.12174 c 0.0135,-0.18944 -0.0809,-0.28919 -0.20987,-0.22166 -0.12894,0.0675 -0.18382,0.21938 -0.12201,0.33748 0.16754,0.31993 0.30419,0.27224 0.33185,-0.11582 z m -43.43205,-26.28526 q 2.4131,4.13676 4.36657,7.20102 1.95345,3.04509 3.5622,5.30499 1.60873,2.24075 2.91104,3.79201 1.3023,1.55129 2.4131,2.66207 0.80438,0.80438 1.49383,1.37893 0.70861,0.55539 1.35976,0.91928 0.65116,0.34472 1.26401,0.49793 0.61285,0.15316 1.264,0.15316 0.76608,0 1.60873,-0.1916 0.86184,-0.19141 1.89602,-0.51709 l 0.53625,1.57043 q -1.37893,0.57455 -2.52803,1.01504 -1.12994,0.42132 -2.08752,0.70861 -0.93842,0.30643 -1.72363,0.44049 -0.78524,0.15316 -1.45553,0.15316 -0.65115,0 -1.24486,-0.15316 -0.57455,-0.15317 -1.1491,-0.45965 -0.55539,-0.28727 -1.12994,-0.72775 -0.57455,-0.45965 -1.20655,-1.05334 -1.05334,-0.97674 -2.4514,-2.62377 -1.37893,-1.66619 -3.14086,-4.1559 -1.7428,-2.50887 -3.88778,-5.91785 -2.14498,-3.42814 -4.7113,-7.90961 l 0.0192,-0.24898 1.41722,-2.01092 q 3.12171,-4.44316 5.78378,-8.10113 2.66207,-3.67711 4.99857,-6.28172 2.35565,-2.62377 4.46233,-4.06013 2.12582,-1.43639 4.17505,-1.43639 0.88096,0 1.53213,0.24899 0.65116,0.22982 1.07248,0.63199 0.44049,0.40218 0.63201,0.93843 0.21067,0.53625 0.21067,1.12995 0,0.91927 -0.44049,1.83855 -0.44049,0.91928 -1.264,1.55129 h -0.15317 q -0.74691,-0.80438 -1.55127,-1.09164 -0.78521,-0.30643 -1.55128,-0.30643 -1.55127,0 -3.31323,1.22571 -1.76195,1.20654 -3.71541,3.27492 -1.93431,2.06837 -4.02184,4.80705 -2.06837,2.73867 -4.25166,5.80292 z m -9.36514,-13.73169 q 0,-0.90012 -0.13406,-1.53213 -0.1149,-0.65115 -0.45964,-1.05334 -0.34473,-0.40219 -0.95758,-0.57455 -0.5937,-0.19141 -1.53213,-0.19141 -1.264,0 -3.23662,0.28727 l -0.19152,-1.58959 q 2.77698,-0.7086 4.71129,-1.05334 1.93432,-0.36387 3.23662,-0.36387 1.28316,0 2.01092,0.34473 0.72776,0.32556 1.07249,0.99588 0.36388,0.65115 0.44049,1.60873 0.0766,0.95759 0.0766,2.1833 0,0.32556 -0.0383,1.4555 -0.0192,1.12994 -0.0766,2.91106 -0.0383,1.76195 -0.1149,4.09843 -0.0766,2.33651 -0.15323,5.09434 -0.0766,2.73867 -0.17236,5.82209 -0.0958,3.06425 -0.19152,6.32001 -0.0958,3.23663 -0.21067,6.58817 -0.0958,3.33238 -0.19152,6.6073 l -4.53893,0.57455 -0.34473,-0.0382 q 0.22982,-5.51566 0.40218,-10.47594 0.19152,-4.97941 0.32558,-9.6524 0.13406,-4.69214 0.19152,-9.21193 0.0766,-4.53892 0.0766,-9.15447 z m -17.19814,0 q 0,-0.90012 -0.0958,-1.53213 -0.0766,-0.65115 -0.38303,-1.05334 -0.30643,-0.40219 -0.88098,-0.57455 -0.55539,-0.19141 -1.49382,-0.19141 -0.63201,0 -1.55128,0.0767 -0.91928,0.0575 -1.91516,0.21067 l -0.19153,-1.58959 q 2.81529,-0.72776 4.82621,-1.07248 2.03007,-0.34473 3.35153,-0.34473 1.26401,0 1.93431,0.34473 0.68946,0.32556 0.99589,0.99587 0.32557,0.65116 0.38303,1.60873 0.0575,0.9576 0.0575,2.1833 0,0.42133 -0.0575,2.25989 -0.0383,1.81939 -0.13406,4.69214 -0.0766,2.8536 -0.19153,6.56901 -0.1149,3.71541 -0.24897,7.9096 -0.1149,4.17506 -0.24897,8.63738 -0.13406,4.46233 -0.26812,8.82889 l -4.53893,0.57455 -0.34473,-0.0382 q 0.22982,-5.49652 0.40218,-10.39934 0.19153,-4.92195 0.32558,-9.55663 0.13406,-4.65385 0.19152,-9.19278 0.0766,-4.55808 0.0766,-9.34599 z m -37.173267,5.22839 -1.896009,-0.0575 q -0.05746,-2.31734 -0.05746,-4.11759 0,-1.85772 0.172363,-3.17916 0.172363,-1.34063 0.708609,-2.20244 0.555396,-0.86182 1.589584,-1.26401 1.053337,-0.40219 2.776981,-0.40219 1.091643,0 2.508861,0.0575 1.417218,0.0575 2.987652,0.11492 1.570431,0.0575 3.217469,0.11492 1.666189,0.0575 3.21747,0.0575 2.604618,0 4.596388,0 1.99176,-0.0196 3.54304,-0.0382 1.55128,-0.0196 2.71953,-0.0575 1.16825,-0.0382 2.12583,-0.11492 0.97673,-0.0767 1.80025,-0.17239 0.84267,-0.11492 1.7045,-0.26812 0.32557,0.91927 0.32557,1.51297 0,1.26402 -1.07249,1.93431 -1.05334,0.67031 -3.14086,0.67031 -1.97262,0 -4.65384,-0.22982 -2.66208,-0.24897 -6.01361,-0.47879 -0.0575,2.83443 -0.15322,6.05191 -0.0766,3.21746 -0.17236,6.66477 -0.0958,3.42812 -0.21067,7.02863 -0.0958,3.58134 -0.21067,7.18185 -0.1149,3.58135 -0.22982,7.10525 -0.0958,3.52389 -0.19152,6.81797 l -4.53893,0.57455 -0.34473,-0.0382 q 0.153223,-3.65797 0.287275,-7.00949 0.134063,-3.37068 0.248971,-6.6073 0.114902,-3.23662 0.210668,-6.4541 0.09576,-3.23662 0.153223,-6.64561 0.05746,-3.40898 0.09576,-7.08609 0.0383,-3.69627 0.0383,-7.85217 -1.091642,-0.0382 -2.221585,-0.0575 -1.129945,-0.0382 -2.298193,-0.0382 -1.16825,0 -2.183285,0.0382 -1.015035,0.0383 -1.857704,0.26811 -0.842672,0.22982 -1.512978,0.72777 -0.670307,0.47879 -1.129945,1.37891 -0.459639,0.88097 -0.70861,2.2599 -0.229818,1.37891 -0.229818,3.37068 z m -7.430824,-10.89726 q -0.383032,4.25164 -0.670307,8.12027 -0.268121,3.84947 -0.459638,7.52658 -0.191524,3.65797 -0.287274,7.25846 -0.0766,3.58136 -0.0766,7.27761 0,2.87274 0.0766,4.97941 0.0766,2.10668 0.421336,3.48561 0.363881,1.37891 1.07249,2.04922 0.727761,0.67031 2.010917,0.67031 0.766065,0 1.723646,-0.15316 0.95758,-0.15317 2.279041,-0.67032 l 0.497941,1.51299 q -1.034185,0.53625 -2.125827,0.97674 -1.091643,0.44047 -2.14498,0.76605 -1.034188,0.32559 -1.991767,0.49795 -0.95758,0.19141 -1.723644,0.19141 -1.436371,0 -2.336498,-0.57455 -0.900125,-0.57453 -1.417218,-1.60873 -0.497942,-1.03418 -0.689457,-2.47055 -0.172363,-1.43638 -0.172363,-3.16002 0,-1.89601 0.09576,-4.00269 0.09576,-2.10668 0.248971,-4.36656 l -0.191523,-0.0382 q -0.612852,1.85769 -1.474674,3.81117 -0.861822,1.93431 -1.972615,3.75371 -1.110794,1.81939 -2.470558,3.42814 -1.340613,1.58957 -2.949347,2.79613 -1.589583,1.20655 -3.44729,1.89602 -1.838554,0.68945 -3.945231,0.68945 -2.221585,0 -3.868624,-0.61285 -1.647039,-0.61285 -2.834437,-1.68535 -1.1874,-1.09164 -1.953464,-2.58547 -0.766064,-1.49383 -1.206551,-3.25576 -0.440488,-1.78111 -0.612851,-3.75373 -0.172363,-1.9726 -0.172363,-4.02184 0,-2.20242 0.153222,-4.63468 0.153223,-2.45141 0.363881,-4.90281 0.229818,-2.45141 0.497941,-4.74959 0.268123,-2.2982 0.478791,-4.21336 0.229819,-1.91516 0.383031,-3.29408 0.153223,-1.37891 0.153223,-1.99176 0,-0.65115 -0.114902,-1.1491 -0.114903,-0.49795 -0.459639,-0.82352 -0.325576,-0.32558 -0.900125,-0.47878 -0.574548,-0.17239 -1.493825,-0.17239 -0.651154,0 -1.493824,0.0767 -0.823519,0.0767 -1.876859,0.22983 l -0.210668,-1.62789 q 2.930197,-0.68946 4.921964,-1.05334 2.010919,-0.36389 3.33238,-0.36389 0.957579,0 1.589583,0.21066 0.632002,0.19161 0.995883,0.61286 0.383033,0.42134 0.536246,1.0725 0.153222,0.63199 0.153222,1.51296 0,0.51711 -0.153222,1.89602 -0.153223,1.37893 -0.383033,3.33238 -0.229819,1.95346 -0.517094,4.36656 -0.268121,2.39395 -0.497941,4.99858 -0.229819,2.58546 -0.383031,5.22839 -0.153223,2.64291 -0.153223,5.07518 0,1.51297 0.0766,3.06425 0.09576,1.55127 0.363881,2.9685 0.268123,1.41721 0.766064,2.66207 0.497942,1.24486 1.302309,2.16414 0.804369,0.91928 1.972616,1.45551 1.1874,0.51709 2.815287,0.51709 1.934312,0 3.734563,-0.86182 1.80025,-0.88098 3.370683,-2.43224 1.589582,-1.57043 2.911044,-3.73457 1.340611,-2.16414 2.317343,-4.74959 0.976733,-2.58547 1.570432,-5.49653 0.612851,-2.93019 0.746913,-5.99445 0.05746,-1.16824 0.09576,-2.27904 0.05746,-1.1108 0.09576,-2.25988 0.05746,-1.16826 0.114902,-2.41311 0.05746,-1.24486 0.134063,-2.66207 0.0766,-1.43638 0.172363,-3.08341 0.114902,-1.64703 0.248971,-3.61965 0.01922,-0.42135 0.24897,-0.72777 0.22982,-0.32557 0.574549,-0.53623 0.363881,-0.21069 0.804367,-0.30643 0.440486,-0.11492 0.900125,-0.11492 0.555398,0 1.225702,0.15316 0.670307,0.13414 1.283158,0.40219 z m -62.549147,41.23341 q 1.436371,0.36386 2.738679,0.49793 1.302311,0.13414 2.623771,0.13414 2.3748,0 4.443173,-0.57455 2.068374,-0.59369 3.581351,-1.83856 1.532128,-1.264 2.39395,-3.21746 0.880974,-1.97261 0.880974,-4.7113 0,-2.54715 -0.880974,-4.46233 -0.880974,-1.93429 -2.566316,-3.21746 -1.666189,-1.28316 -4.117594,-1.91515 -2.451406,-0.65116 -5.59227,-0.65116 -0.612852,0 -1.264006,0.0383 -0.632002,0.0196 -1.283158,0.0575 -0.0383,1.16826 -0.09576,2.73869 -0.05746,1.55127 -0.134063,3.33238 -0.0766,1.78109 -0.172363,3.67711 -0.0766,1.89599 -0.172363,3.71541 -0.09576,1.81939 -0.191524,3.46644 -0.09576,1.64703 -0.191523,2.9302 z m 1.436371,-39.56722 q -0.01922,1.24484 -0.05746,3.06426 -0.0383,1.80023 -0.09576,4.06013 -0.05746,2.24075 -0.134062,4.88365 -0.05746,2.64293 -0.134062,5.57313 1.666191,-0.0382 3.294077,-0.26813 1.647036,-0.24896 3.121712,-0.72775 1.493824,-0.47879 2.757831,-1.24486 1.264006,-0.78522 2.183283,-1.87686 0.938427,-1.09164 1.455521,-2.54717 0.536246,-1.47466 0.536246,-3.35152 0,-2.20244 -0.708609,-3.71541 -0.708609,-1.51299 -1.953465,-2.43226 -1.225702,-0.91928 -2.891891,-1.32147 -1.647039,-0.40216 -3.543048,-0.40216 -0.919277,0 -1.89601,0.0767 -0.957579,0.0767 -1.934312,0.22982 z m -4.998569,3.90691 q 0,-0.80435 -0.134062,-1.3789 -0.134063,-0.57455 -0.478789,-0.93844 -0.3255784,-0.36387 -0.9192774,-0.53625 -0.5937011,-0.17238 -1.5129782,-0.17238 -1.2640055,0 -3.2366202,0.28728 l -0.1915235,-1.70449 q 1.7427945,-0.32558 3.7920167,-0.67031 2.0492216,-0.34473 4.2133546,-0.63199 2.183282,-0.28729 4.366565,-0.45965 2.202435,-0.1916 4.251657,-0.1916 1.666189,0 3.274925,0.17238 1.608734,0.17238 3.045105,0.57455 1.436371,0.38305 2.642923,1.05334 1.20655,0.65115 2.087525,1.62789 0.880972,0.97674 1.378915,2.31734 0.497942,1.32147 0.497942,3.04512 0,2.47055 -0.900125,4.40486 -0.880974,1.91516 -2.393953,3.35152 -1.512976,1.41723 -3.48559,2.39397 -1.972617,0.95758 -4.1559,1.53213 v 0.17238 q 2.872742,0.21066 5.304995,0.95758 2.432255,0.74691 4.213354,2.12582 1.7811,1.37892 2.776982,3.40898 1.015035,2.03008 1.015035,4.80707 0,2.33648 -0.651154,4.21334 -0.632002,1.87687 -1.761947,3.33238 -1.129945,1.45553 -2.681226,2.48971 -1.532128,1.0342 -3.33238,1.70449 -1.800249,0.67031 -3.792016,0.97674 -1.991768,0.32558 -4.021839,0.32558 -1.685342,0 -3.236621,-0.1916 -1.532128,-0.1916 -3.274925,-0.47879 l -3.7154107,0.44049 -0.3447303,-0.0382 q 0.2489726,-2.52801 0.4404881,-5.4582 0.2106679,-2.93022 0.3447289,-6.12852 0.153222,-3.19832 0.268123,-6.569 0.114902,-3.37068 0.172363,-6.77969 0.0766,-3.42812 0.09576,-6.7988 0.0383,-3.38984 0.0383,-6.58816 z" />
    </g>
  </g>
</svg>
